<?xml version="1.0" encoding="utf-8"?>
<svg version="1.1" xmlns:xlink="http://www.w3.org/1999/xlink" width="24px" height="24px" xmlns="http://www.w3.org/2000/svg">
  <g transform="matrix(1 0 0 1 -2161 -28 )">
    <path d="M 23.2777777777778 14.8823784722222  C 22.1172743055556 14.4368055555556  21.2890625 13.3190972222222  21.2890625 12  C 21.2890625 10.6809027777778  22.1172743055556 9.56319444444444  23.2777777777778 9.11762152777778  C 23.0008680555556 8.03012152777778  22.5729166666667 7.00555555555556  22.0140625 6.0640625  C 20.8762152777778 6.57005208333333  19.5017361111111 6.36362847222222  18.5703125 5.4296875  C 17.6388888888889 4.49826388888889  17.4324652777778 3.12126736111111  17.9384548611111 1.9859375  C 16.9944444444444 1.42708333333333  15.9698784722222 0.999131944444444  14.8823784722222 0.722222222222222  C 14.4342881944444 1.88272569444444  13.3165798611111 2.7109375  12 2.7109375  C 10.6809027777778 2.7109375  9.56319444444444 1.88272569444444  9.11762152777778 0.722222222222222  C 8.03012152777778 0.999131944444444  7.00555555555556 1.42708333333333  6.0640625 1.9859375  C 6.57005208333333 3.12378472222222  6.36362847222222 4.49826388888889  5.43220486111111 5.4296875  C 4.50078125 6.36111111111111  3.12378472222222 6.56753472222222  1.98845486111111 6.0640625  C 1.42708333333333 7.00555555555556  0.999131944444444 8.03012152777778  0.722222222222222 9.11762152777778  C 1.88272569444444 9.56571180555556  2.7109375 10.6834201388889  2.7109375 12  C 2.7109375 13.3190972222222  1.88272569444444 14.4368055555556  0.722222222222222 14.8823784722222  C 0.999131944444444 15.9698784722222  1.42708333333333 16.9944444444444  1.9859375 17.9359375  C 3.12378472222222 17.4299479166667  4.49826388888889 17.6363715277778  5.4296875 18.5703125  C 6.36111111111111 19.5017361111111  6.56753472222222 20.8787326388889  6.06154513888889 22.0140625  C 7.00555555555556 22.5729166666667  8.03012152777778 23.0008680555556  9.11762152777778 23.2777777777778  C 9.56571180555556 22.1172743055556  10.6834201388889 21.2890625  12 21.2890625  C 13.3190972222222 21.2890625  14.4368055555556 22.1172743055556  14.8823784722222 23.2777777777778  C 15.9698784722222 23.0008680555556  16.9944444444444 22.5729166666667  17.9359375 22.0140625  C 17.4299479166667 20.8762152777778  17.6363715277778 19.5017361111111  18.5677951388889 18.5703125  C 19.49921875 17.6388888888889  20.8762152777778 17.4324652777778  22.0115451388889 17.9359375  C 22.5729166666667 16.9944444444444  23.0008680555556 15.9698784722222  23.2777777777778 14.8823784722222  Z M 15.0963541666667 12  C 15.0963541666667 13.7092881944444  13.7092881944444 15.0963541666667  12 15.0963541666667  C 10.2907118055556 15.0963541666667  8.90364583333333 13.7092881944444  8.90364583333333 12  C 8.90364583333333 10.2907118055556  10.2907118055556 8.90364583333333  12 8.90364583333333  C 13.7092881944444 8.90364583333333  15.0963541666667 10.2907118055556  15.0963541666667 12  Z " fill-rule="nonzero" fill="#000000" stroke="none" transform="matrix(1 0 0 1 2161 28 )" />
  </g>
</svg>