<?xml version="1.0" encoding="utf-8"?>
<svg version="1.1" xmlns:xlink="http://www.w3.org/1999/xlink" width="18px" height="17px" xmlns="http://www.w3.org/2000/svg">
  <g transform="matrix(1 0 0 1 -1701 -376 )">
    <path d="M 17.1971623828125 7.63644344075521  C 17.76339984375 7.09292799886068  17.7195976171875 6.62452010091146  17.6436474609375 6.39341182454427  C 17.5668725390625 6.16228590901693  17.321935078125 5.7583491414388  16.5395373046875 5.64626991780599  L 13.4258677734375 5.20128682454427  C 12.660574921875 5.09167708333333  11.7238025390625 4.42253554280599  11.3808076171875 3.73945906575521  L 9.98837015625 0.963584431966147  C 9.638275078125 0.265708699544272  9.172174921875 0.161443623860678  8.9251396875 0.161443623860678  C 8.678104453125 0.161443623860678  8.21204015625 0.265691060384116  7.861945078125 0.96356679280599  L 6.4690773046875 3.73944142659505  C 6.1265126953125 4.4221298421224  5.1901526953125 5.09167708333333  4.4244474609375 5.20128682454427  L 1.31076 5.64626991780599  C 0.52794984375 5.75792580159505  0.2830303125 6.16228590901693  0.20664984375 6.39341182454427  C 0.1307176171875 6.62452010091146  0.0868974609375 7.09292799886068  0.6535473046875 7.63602010091146  L 2.906824921875 9.79655263264974  C 3.46095984375 10.3281616414388  3.8185674609375 11.4110826009115  3.6875373046875 12.1615053914388  L 3.15594 15.2124274495443  C 3.05288015625 15.8027395833333  3.218944921875 16.1459270833333  3.3766723828125 16.330238667806  C 3.6971476171875 16.7038184407552  4.27131 16.7551307576497  4.8763473046875 16.4427235921224  L 7.6608277734375 15.0022392171224  C 8.3109223828125 14.6668482259115  9.539374921875 14.6664425252279  10.1894874609375 15.0022392171224  L 12.9747926953125 16.4427235921224  C 13.243504921875 16.5814732259115  13.49972015625 16.6521004231771  13.737145078125 16.6521004231771  C 14.0338276171875 16.6521004231771  14.2954576171875 16.5379750569661  14.473624921875 16.330238667806  C 14.6313523828125 16.1463327840169  14.797435078125 15.8027395833333  14.6947876171875 15.2128331502279  L 14.1631723828125 12.1615053914388  C 14.0325725390625 11.4114883015951  14.38974984375 10.3285673421224  14.9439026953125 9.79695833333333  L 17.1971623828125 7.63644344075521  Z " fill-rule="nonzero" fill="#ffd700" stroke="none" transform="matrix(1 0 0 1 1701 376 )" />
  </g>
</svg>