<?xml version="1.0" encoding="utf-8"?>
<svg version="1.1" xmlns:xlink="http://www.w3.org/1999/xlink" width="110px" height="80px" xmlns="http://www.w3.org/2000/svg">
  <defs>
    <mask fill="white" id="clip88">
      <path d="M 123 210  C 119.67 210  117 207.33  117 204  L 117 136  C 117 132.67  119.67 130  123 130  L 221 130  C 224.33 130  227 132.67  227 136  L 227 204  C 227 207.33  224.33 210  221 210  " fill-rule="evenodd" />
    </mask>
  </defs>
  <g transform="matrix(1 0 0 1 -117 -130 )">
    <path d="M 117 130  L 227 130  L 227 210  L 117 210  L 117 130  " fill-rule="nonzero" fill="#cccccc" stroke="none" mask="url(#clip88)" />
    <path d="M 123 136  L 221 136  L 221 204  L 123 204  L 123 136  " fill-rule="nonzero" fill="#ffffff" stroke="none" mask="url(#clip88)" />
    <path d="M 180.2 154  C 176.84 154  174.2 151.36  174.2 148  C 174.2 144.64  176.84 142  180.2 142  C 183.56 142  186.2 144.64  186.2 148  C 186.2 151.36  183.56 154  180.2 154  " fill-rule="nonzero" fill="#cccccc" stroke="none" mask="url(#clip88)" />
    <path d="M 125 202  L 125 166.8  L 148.5 150.8  L 181.4 174.072727272727  L 200.2 160.4  L 219 174.072727272727  L 219 202  L 125 202  " fill-rule="nonzero" fill="#169bd5" stroke="none" mask="url(#clip88)" />
  </g>
</svg>