<?xml version="1.0" encoding="utf-8"?>
<svg version="1.1" xmlns:xlink="http://www.w3.org/1999/xlink" width="40px" height="22px" xmlns="http://www.w3.org/2000/svg">
  <g transform="matrix(1 0 0 1 -405 -293 )">
    <path d="M 0.99609375 15.27109375  C 0.33203125 13.91328125  0 12.4895833333333  0 11  C 0 9.51041666666667  0.33203125 8.08671875  0.99609375 6.72890625  C 1.66015625 5.37109375  2.548828125 4.20234375  3.662109375 3.22265625  C 4.775390625 2.24296875  6.103515625 1.4609375  7.646484375 0.876562499999999  C 9.189453125 0.2921875  10.8072916666667 0  12.5 0  L 27.5 0  C 29.1927083333333 0  30.810546875 0.2921875  32.353515625 0.876562499999999  C 33.896484375 1.4609375  35.224609375 2.24296875  36.337890625 3.22265625  C 37.451171875 4.20234375  38.33984375 5.37109375  39.00390625 6.72890625  C 39.66796875 8.08671875  40 9.51041666666667  40 11  C 40 12.4895833333333  39.66796875 13.91328125  39.00390625 15.27109375  C 38.33984375 16.62890625  37.451171875 17.79765625  36.337890625 18.77734375  C 35.224609375 19.75703125  33.896484375 20.5390625  32.353515625 21.1234375  C 30.810546875 21.7078125  29.1927083333333 22  27.5 22  L 12.5 22  C 10.8072916666667 22  9.189453125 21.7078125  7.646484375 21.1234375  C 6.103515625 20.5390625  4.775390625 19.75703125  3.662109375 18.77734375  C 2.548828125 17.79765625  1.66015625 16.62890625  0.99609375 15.27109375  Z M 23.623046875 19.10390625  C 24.853515625 19.56796875  26.1458333333333 19.8  27.5 19.8  C 28.8541666666667 19.8  30.146484375 19.56796875  31.376953125 19.10390625  C 32.607421875 18.63984375  33.671875 18.0125  34.5703125 17.221875  C 35.46875 16.43125  36.181640625 15.49453125  36.708984375 14.41171875  C 37.236328125 13.32890625  37.5 12.1916666666667  37.5 11  C 37.5 9.80833333333333  37.236328125 8.67109375  36.708984375 7.58828125  C 36.181640625 6.50546875  35.46875 5.56875  34.5703125 4.778125  C 33.671875 3.9875  32.607421875 3.36015625  31.376953125 2.89609375  C 30.146484375 2.43203125  28.8541666666667 2.2  27.5 2.2  C 26.1458333333333 2.2  24.853515625 2.43203125  23.623046875 2.89609375  C 22.392578125 3.36015625  21.328125 3.9875  20.4296875 4.778125  C 19.53125 5.56875  18.818359375 6.50546875  18.291015625 7.58828125  C 17.763671875 8.67109375  17.5 9.80833333333333  17.5 11  C 17.5 12.1916666666667  17.763671875 13.32890625  18.291015625 14.41171875  C 18.818359375 15.49453125  19.53125 16.43125  20.4296875 17.221875  C 21.328125 18.0125  22.392578125 18.63984375  23.623046875 19.10390625  Z " fill-rule="nonzero" fill="#000000" stroke="none" transform="matrix(1 0 0 1 405 293 )" />
  </g>
</svg>