<?xml version="1.0" encoding="utf-8"?>
<svg version="1.1" xmlns:xlink="http://www.w3.org/1999/xlink" width="19px" height="19px" xmlns="http://www.w3.org/2000/svg">
  <g transform="matrix(1 0 0 1 -2641 -812 )">
    <path d="M 2650.5 813  C 2655.26 813  2659 816.74  2659 821.5  C 2659 826.26  2655.26 830  2650.5 830  C 2645.74 830  2642 826.26  2642 821.5  C 2642 816.74  2645.74 813  2650.5 813  Z " fill-rule="nonzero" fill="#ffffff" stroke="none" />
    <path d="M 2650.5 813  C 2655.26 813  2659 816.74  2659 821.5  C 2659 826.26  2655.26 830  2650.5 830  C 2645.74 830  2642 826.26  2642 821.5  C 2642 816.74  2645.74 813  2650.5 813  Z " stroke-width="2" stroke="#41a28e" fill="none" />
  </g>
</svg>