<?xml version="1.0" encoding="utf-8"?>
<svg version="1.1" xmlns:xlink="http://www.w3.org/1999/xlink" width="18px" height="19px" xmlns="http://www.w3.org/2000/svg">
  <g transform="matrix(1 0 0 1 -2100 -623 )">
    <path d="M 2109 624  C 2113.48 624  2117 627.74  2117 632.5  C 2117 637.26  2113.48 641  2109 641  C 2104.52 641  2101 637.26  2101 632.5  C 2101 627.74  2104.52 624  2109 624  Z " fill-rule="nonzero" fill="#ffffff" stroke="none" />
    <path d="M 2109 624  C 2113.48 624  2117 627.74  2117 632.5  C 2117 637.26  2113.48 641  2109 641  C 2104.52 641  2101 637.26  2101 632.5  C 2101 627.74  2104.52 624  2109 624  Z " stroke-width="2" stroke="#41a28e" fill="none" />
  </g>
</svg>