<?xml version="1.0" encoding="utf-8"?>
<svg version="1.1" xmlns:xlink="http://www.w3.org/1999/xlink" width="21px" height="11px" xmlns="http://www.w3.org/2000/svg">
  <g transform="matrix(1 0 0 1 -2517 -554 )">
    <path d="M 14.3356143836813 6.694179816409  C 15.3574102241487 6.285729445791  16.363343315428 5.70551410830531  17.3532631665308 4.95620540715289  L 19.217297972893 6.74627057834202  C 19.3554427242717 6.87893339514221  19.5428072150997 6.95346258957218  19.7381733960701 6.95346258957218  C 20.1450024075238 6.95346258957218  20.4748024838339 6.63674981787754  20.4748024838339 6.24606481481482  C 20.4748024838339 6.05845126007337  20.3971935706259 5.87852186808781  20.2590488192472 5.74585905128762  L 18.472915069359 4.0306035510389  C 19.2354135605504 3.34650643656583  19.9881385162307 2.56018846251129  20.7310185162169 1.67291666666666  C 20.8738331149563 1.49842984102405  20.9514693828983 1.28292880236495  20.9514693828983 1.06099401759409  C 20.9514693828983 0.514107110098985  20.4898101371864 0.0707676757248816  19.9203245971502 0.0707676757248816  C 19.6119573182226 0.0707676757248816  19.3197745950256 0.203301143623188  19.1239057262074 0.432021598307296  C 16.3018097597065 3.80246914243345  13.4820707001657 5.43775719943576  10.6585016927083 5.43775719943576  C 7.82403199573863 5.43775719943576  4.88762626953126 3.79115226779515  1.85399830729167 0.406558635344333  C 1.65810798077228 0.187954108539603  1.37271035245201 0.0622226660521084  1.07239056433475 0.0622226660521084  C 0.502893450531339 0.0622226660521084  0.0412248224273836 0.505571110501169  0.0412248224273836 1.05246913248698  C 0.0412248224273836 1.28951727251966  0.129773593219766 1.51870079220011  0.290782821377833 1.69837962962962  C 1.26315392840828 2.78325143619479  2.24080789504262 3.71632212166078  3.22382812968416 4.49542921744646  L 1.30071548591382 6.63225307978878  C 1.18503992330403 6.76076547968253  1.12138484079662 6.92496155174309  1.12138484079662 7.09483024359809  C 1.12138484079662 7.48549491328843  1.45116775251707 7.8021912015279  1.85797559037642 7.8021912015279  C 2.07193341654529 7.8021912015279  2.2753184386002 7.71285166875461  2.41523569483902 7.55740740740741  L 4.37941918501422 5.37494856409144  C 4.38623657248872 5.36737463240437  4.39287327289768 5.35967675764512  4.39932690237492 5.35186108177147  C 5.36372651452712 5.99292837569271  6.33327796463732 6.4862715668092  7.30805890754799 6.8298754019505  C 7.27477421190485 6.88549235608468  7.24898487103915 6.9461672602149  7.23215487985321 7.01080247576678  L 6.44642254971591 10.028729421658  C 6.43181023203793 10.0848477070242  6.42442130889402 10.1424753981519  6.42442130889402 10.2003215042679  C 6.42442130889402 10.5909828987064  6.75420145578269 10.9076765318297  7.16100588304923 10.9076765318297  C 7.49898738850959 10.9076765318297  7.79360075493697 10.6867884737735  7.87558921638259 10.3719135868779  L 8.66132154651987 7.35398662109375  C 8.67325220556569 7.30816718419772  8.68036746820158 7.26134151863257  8.68257723768286 7.21421230702149  C 9.33875044895617 7.35000884210261  9.99728593941377 7.41820988317419  10.6582070638021 7.41820988317419  C 11.4266724067689 7.41820988317419  12.1868777742608 7.32610007123278  12.938765659719 7.14290147731221  L 14.0403619436553 10.1518004159433  C 14.1481018410979 10.4279747820655  14.4229754587798 10.6109658793216  14.7300811372442 10.6109658793216  C 15.1368565262531 10.6109658793216  15.4666131329828 10.294294852224  15.4666131329828 9.90366134373132  C 15.4666131329828 9.82860139037389  15.4541717298637 9.75401987488577  15.4297558830492 9.68271604275173  L 14.3356143836813 6.694179816409  Z " fill-rule="nonzero" fill="#000000" stroke="none" transform="matrix(1 0 0 1 2517 554 )" />
  </g>
</svg>