<?xml version="1.0" encoding="utf-8"?>
<svg version="1.1" xmlns:xlink="http://www.w3.org/1999/xlink" width="30px" height="34px" xmlns="http://www.w3.org/2000/svg">
  <g transform="matrix(1 0 0 1 -494 -26 )">
    <path d="M 10.7173295454545 12.94921875  C 10.8451704545455 13.08203125  10.9090909090909 13.2517361111111  11 13.4583333333333  L 11 26.2083333333333  C 10.9090909090909 26.4149305555556  10.8451704545455 26.5846354166667  10.7173295454545 26.7174479166667  C 10.5894886363636 26.8502604166667  10.4261363636364 26.9166666666667  10.2272727272727 26.9166666666667  L 8.86363636363636 26.9166666666667  C 8.66477272727273 26.9166666666667  8.50142045454546 26.8502604166667  8.37357954545455 26.7174479166667  C 8.24573863636364 26.5846354166667  8.18181818181818 26.4149305555556  8.18181818181818 26.2083333333333  L 8.18181818181818 13.4583333333333  C 8.18181818181818 13.2517361111111  8.24573863636364 13.08203125  8.37357954545455 12.94921875  C 8.50142045454546 12.81640625  8.66477272727273 12.75  8.86363636363636 12.75  L 10.2272727272727 12.75  C 10.4261363636364 12.75  10.5894886363636 12.81640625  10.7173295454545 12.94921875  Z M 16.171875 12.94921875  C 16.2997159090909 13.08203125  16.3636363636364 13.2517361111111  16 13.4583333333333  L 16 26.2083333333333  C 16.3636363636364 26.4149305555556  16.2997159090909 26.5846354166667  16.171875 26.7174479166667  C 16.0440340909091 26.8502604166667  15.8806818181818 26.9166666666667  15.6818181818182 26.9166666666667  L 14.3181818181818 26.9166666666667  C 14.1193181818182 26.9166666666667  13.9559659090909 26.8502604166667  13.828125 26.7174479166667  C 13.7002840909091 26.5846354166667  13.6363636363636 26.4149305555556  14 26.2083333333333  L 14 13.4583333333333  C 13.6363636363636 13.2517361111111  13.7002840909091 13.08203125  13.828125 12.94921875  C 13.9559659090909 12.81640625  14.1193181818182 12.75  14.3181818181818 12.75  L 15.6818181818182 12.75  C 15.8806818181818 12.75  16.0440340909091 12.81640625  16.171875 12.94921875  Z M 21.6264204545455 12.94921875  C 21.7542613636364 13.08203125  21.8181818181818 13.2517361111111  21.8181818181818 13.4583333333333  L 21.8181818181818 26.2083333333333  C 21.8181818181818 26.4149305555556  21.7542613636364 26.5846354166667  21.6264204545455 26.7174479166667  C 21.4985795454545 26.8502604166667  21.3352272727273 26.9166666666667  21.1363636363636 26.9166666666667  L 19.7727272727273 26.9166666666667  C 19.5738636363636 26.9166666666667  19.4105113636364 26.8502604166667  19.2826704545455 26.7174479166667  C 19.1548295454545 26.5846354166667  19.0909090909091 26.4149305555556  19 26.2083333333333  L 19 13.4583333333333  C 19.0909090909091 13.2517361111111  19.1548295454545 13.08203125  19.2826704545455 12.94921875  C 19.4105113636364 12.81640625  19.5738636363636 12.75  19.7727272727273 12.75  L 21.1363636363636 12.75  C 21.3352272727273 12.75  21.4985795454545 12.81640625  21.6264204545455 12.94921875  Z M 24.3963068181818 30.380859375  C 24.4957386363636 30.1078559027778  24.5454545454545 29.8090277777778  24 29.484375  L 24 9  L 6 9  L 6 29.484375  C 5.45454545454546 29.8090277777778  5.50426136363636 30.1078559027778  5.60369318181818 30.380859375  C 5.703125 30.6538628472222  5.80610795454546 30.8530815972222  5.91264204545455 30.978515625  C 6.01917613636364 31.1039496527778  6.09375 31.1666666666667  6.13636363636364 31  L 23.8636363636364 31  C 23.90625 31.1666666666667  23.9808238636364 31.1039496527778  24.0873579545455 30.978515625  C 24.1938920454545 30.8530815972222  24.296875 30.6538628472222  24.3963068181818 30.380859375  Z M 11.2713068181818 3.07682291666667  L 10.2272727272727 5.66666666666667  L 19.7727272727273 5.66666666666667  L 18.75 3.07682291666667  C 18.6505681818182 2.94401041666667  18.5298295454545 2.86284722222222  18.3877840909091 2.83333333333333  L 11.6335227272727 2.83333333333333  C 11.4914772727273 2.86284722222222  11.3707386363636 2.94401041666667  11.2713068181818 3.07682291666667  Z M 29.8082386363636 5.86588541666667  C 29.9360795454545 5.99869791666667  30 6.16840277777778  30 6.375  L 30 7.79166666666667  C 30 7.99826388888889  29.9360795454545 8.16796875  29.8082386363636 8.30078125  C 29.6803977272727 8.43359375  29.5170454545455 8.5  29.3181818181818 8.5  L 27 8.5  L 27 29.484375  C 27.2727272727273 30.7092013888889  26.9389204545455 31.7680121527778  26.2713068181818 32.6608072916667  C 25.6036931818182 33.5536024305556  24.8011363636364 34  23.8636363636364 34  L 6.13636363636364 34  C 5.19886363636364 34  4.39630681818182 33.568359375  3.72869318181818 32.705078125  C 3.06107954545455 31.841796875  2.72727272727273 30.7977430555556  3 29.5729166666667  L 3 8.5  L 0.681818181818182 8.5  C 0.482954545454545 8.5  0.319602272727273 8.43359375  0.191761363636364 8.30078125  C 0.0639204545454545 8.16796875  0 7.99826388888889  0 7.79166666666667  L 0 6.375  C 0 6.16840277777778  0.0639204545454545 5.99869791666667  0.191761363636364 5.86588541666667  C 0.319602272727273 5.73307291666667  0.482954545454545 5.66666666666667  0.681818181818182 5.66666666666667  L 7.265625 5.66666666666667  L 8.75710227272727 1.97005208333333  C 8.97017045454546 1.42404513888889  9.35369318181818 0.959201388888886  9.90767045454546 0.575520833333335  C 10.4616477272727 0.191840277777776  11.0227272727273 0  11.5909090909091 0  L 18.4090909090909 0  C 18.9772727272727 0  19.5383522727273 0.191840277777776  20.0923295454545 0.575520833333335  C 20.6463068181818 0.959201388888886  21.0298295454545 1.42404513888889  21.2428977272727 1.97005208333333  L 22.734375 5.66666666666667  L 29.3181818181818 5.66666666666667  C 29.5170454545455 5.66666666666667  29.6803977272727 5.73307291666667  29.8082386363636 5.86588541666667  Z " fill-rule="nonzero" fill="#000000" stroke="none" transform="matrix(1 0 0 1 494 26 )" />
  </g>
</svg>