<?xml version="1.0" encoding="utf-8"?>
<svg version="1.1" xmlns:xlink="http://www.w3.org/1999/xlink" width="11px" height="16px" xmlns="http://www.w3.org/2000/svg">
  <g transform="matrix(1 0 0 1 -364 -137 )">
    <path d="M 11 2.28287841191067  C 11 2.45492142266336  10.9327541827542 2.60380479735318  10.7982625482625 2.72952853598015  L 5.16023166023166 8  L 10.7982625482625 13.2704714640199  C 10.9327541827542 13.3961952026468  11 13.5450785773366  11 13.7171215880893  C 11 13.889164598842  10.9327541827542 14.0380479735318  10.7982625482625 14.1637717121588  L 9.03571428571428 15.8114143920596  C 8.90122265122265 15.9371381306865  8.74195624195624 16  8.55791505791506 16  C 8.37387387387387 16  8.21460746460747 15.9371381306865  8.08011583011583 15.8114143920596  L 0.201737451737452 8.44665012406948  C 0.0672458172458174 8.32092638544251  0 8.17204301075269  0 8  C 0 7.82795698924731  0.0672458172458174 7.67907361455748  0.201737451737452 7.55334987593052  L 8.08011583011583 0.188585607940446  C 8.21460746460747 0.0628618693134815  8.37387387387387 0  8.55791505791506 0  C 8.74195624195624 0  8.90122265122265 0.0628618693134815  9.03571428571428 0.188585607940446  L 10.7982625482625 1.83622828784119  C 10.9327541827542 1.96195202646815  11 2.11083540115798  11 2.28287841191067  Z " fill-rule="nonzero" fill="#000000" stroke="none" transform="matrix(1 0 0 1 364 137 )" />
  </g>
</svg>