<?xml version="1.0" encoding="utf-8"?>
<svg version="1.1" xmlns:xlink="http://www.w3.org/1999/xlink" width="36px" height="21px" xmlns="http://www.w3.org/2000/svg">
  <g transform="matrix(1 0 0 1 -338 -260 )">
    <path d="M 0.896484375 14.576953125  C 0.298828125 13.280859375  0 11.921875  0 10.5  C 0 9.078125  0.298828125 7.719140625  0.896484375 6.423046875  C 1.494140625 5.126953125  2.2939453125 4.011328125  3.2958984375 3.076171875  C 4.2978515625 2.141015625  5.4931640625 1.39453125  6.8818359375 0.836718749999999  C 8.2705078125 0.27890625  9.7265625 0  11.25 0  L 24.75 0  C 26.2734375 0  27.7294921875 0.27890625  29.1181640625 0.836718749999999  C 30.5068359375 1.39453125  31.7021484375 2.141015625  32.7041015625 3.076171875  C 33.7060546875 4.011328125  34.505859375 5.126953125  35.103515625 6.423046875  C 35.701171875 7.719140625  36 9.078125  36 10.5  C 36 11.921875  35.701171875 13.280859375  35.103515625 14.576953125  C 34.505859375 15.873046875  33.7060546875 16.988671875  32.7041015625 17.923828125  C 31.7021484375 18.858984375  30.5068359375 19.60546875  29.1181640625 20.16328125  C 27.7294921875 20.72109375  26.2734375 21  24.75 21  L 11.25 21  C 9.7265625 21  8.2705078125 20.72109375  6.8818359375 20.16328125  C 5.4931640625 19.60546875  4.2978515625 18.858984375  3.2958984375 17.923828125  C 2.2939453125 16.988671875  1.494140625 15.873046875  0.896484375 14.576953125  Z M 21.2607421875 18.235546875  C 22.3681640625 18.678515625  23.53125 18.9  24.75 18.9  C 25.96875 18.9  27.1318359375 18.678515625  28.2392578125 18.235546875  C 29.3466796875 17.792578125  30.3046875 17.19375  31.11328125 16.4390625  C 31.921875 15.684375  32.5634765625 14.790234375  33.0380859375 13.756640625  C 33.5126953125 12.723046875  33.75 11.6375  33.75 10.5  C 33.75 9.3625  33.5126953125 8.276953125  33.0380859375 7.243359375  C 32.5634765625 6.209765625  31.921875 5.315625  31.11328125 4.5609375  C 30.3046875 3.80625  29.3466796875 3.207421875  28.2392578125 2.764453125  C 27.1318359375 2.321484375  25.96875 2.1  24.75 2.1  C 23.53125 2.1  22.3681640625 2.321484375  21.2607421875 2.764453125  C 20.1533203125 3.207421875  19.1953125 3.80625  18.38671875 4.5609375  C 17.578125 5.315625  16.9365234375 6.209765625  16.4619140625 7.243359375  C 15.9873046875 8.276953125  15.75 9.3625  15.75 10.5  C 15.75 11.6375  15.9873046875 12.723046875  16.4619140625 13.756640625  C 16.9365234375 14.790234375  17.578125 15.684375  18.38671875 16.4390625  C 19.1953125 17.19375  20.1533203125 17.792578125  21.2607421875 18.235546875  Z " fill-rule="nonzero" fill="#41a28e" stroke="none" transform="matrix(1 0 0 1 338 260 )" />
  </g>
</svg>