<?xml version="1.0" encoding="utf-8"?>
<svg version="1.1" xmlns:xlink="http://www.w3.org/1999/xlink" width="22px" height="22px" xmlns="http://www.w3.org/2000/svg">
  <g transform="matrix(1 0 0 1 -1042 -81 )">
    <path d="M 8.70079242247582 21.9949140758461  L 8.61879310661429 21.9949140758461  C 8.27227992801108 21.9949140758461  7.93899243628859 21.8268037222243  7.68770426042763 21.5214604292361  L 0.516733022681384 12.8483384294363  C -0.0202301435309505 12.19991277644  -0.0387461301894382 11.1226341734333  0.474410803212689 10.4433311293663  C 0.987567736614814 9.76402808529922  1.84194754884237 9.74344312700562  2.37891073293005 10.3918687568171  L 8.50240701201305 17.7990168416948  L 19.6093447497248 0.751254528688633  C 20.0828245867341 0.0273507648369959  20.9319141349345 -0.0790047834586547  21.5059092565885 0.517958543358328  C 22.0799043782424 1.11492184699045  22.1619036762286 2.18533879723257  21.6910689801705 2.91267338746647  L 9.66097780125046 21.3773658371053  C 9.42291531227021 21.7444639586045  9.07375699271579 21.9674674879729  8.70079242247582 21.9949140758461  Z " fill-rule="nonzero" fill="#212121" stroke="none" transform="matrix(1 0 0 1 1042 81 )" />
  </g>
</svg>