<?xml version="1.0" encoding="utf-8"?>
<svg version="1.1" xmlns:xlink="http://www.w3.org/1999/xlink" width="40px" height="57px" xmlns="http://www.w3.org/2000/svg">
  <g transform="matrix(1 0 0 1 -1662 -174 )">
    <path d="M 39.3402777777778 22.5739182692308  C 39.7800925925926 23.0078125  40 23.5216346153846  40 24.1153846153846  L 40 28.5  C 40 33.546875  38.2928240740741 37.9371995192308  34.8784722222222 41.6709735576923  C 31.4641203703704 45.4047475961538  27.2453703703704 47.5456730769231  22.2222222222222 48.09375  L 22.2222222222222 52.6153846153846  L 31.1111111111111 52.6153846153846  C 31.712962962963 52.6153846153846  32.2337962962963 52.8323317307692  32.6736111111111 53.2662259615385  C 33.1134259259259 53.7001201923077  33.3333333333333 54.2139423076923  33.3333333333333 54.8076923076923  C 33.3333333333333 55.4014423076923  33.1134259259259 55.9152644230769  32.6736111111111 56.3491586538462  C 32.2337962962963 56.7830528846154  31.712962962963 57  31.1111111111111 57  L 8.88888888888889 57  C 8.28703703703704 57  7.7662037037037 56.7830528846154  7.32638888888889 56.3491586538462  C 6.88657407407407 55.9152644230769  6.66666666666667 55.4014423076923  6.66666666666667 54.8076923076923  C 6.66666666666667 54.2139423076923  6.88657407407407 53.7001201923077  7.32638888888889 53.2662259615385  C 7.7662037037037 52.8323317307692  8.28703703703704 52.6153846153846  8.88888888888889 52.6153846153846  L 17.7777777777778 52.6153846153846  L 17.7777777777778 48.09375  C 12.7546296296296 47.5456730769231  8.53587962962963 45.4047475961538  5.12152777777778 41.6709735576923  C 1.70717592592593 37.9371995192308  0 33.546875  0 28.5  L 0 24.1153846153846  C 0 23.5216346153846  0.219907407407407 23.0078125  0.659722222222222 22.5739182692308  C 1.09953703703704 22.1400240384615  1.62037037037037 21.9230769230769  2.22222222222222 21.9230769230769  C 2.82407407407407 21.9230769230769  3.34490740740741 22.1400240384615  3.78472222222222 22.5739182692308  C 4.22453703703704 23.0078125  4.44444444444444 23.5216346153846  4.44444444444444 24.1153846153846  L 4.44444444444444 28.5  C 4.44444444444444 32.7247596153846  5.96643518518519 36.3386418269231  9.01041666666667 39.3416466346154  C 12.0543981481481 42.3446514423077  15.7175925925926 43.8461538461538  20 43.8461538461538  C 24.2824074074074 43.8461538461538  27.9456018518519 42.3446514423077  30.9895833333333 39.3416466346154  C 34.0335648148148 36.3386418269231  35.5555555555556 32.7247596153846  35.5555555555556 28.5  L 35.5555555555556 24.1153846153846  C 35.5555555555556 23.5216346153846  35.775462962963 23.0078125  36.2152777777778 22.5739182692308  C 36.6550925925926 22.1400240384615  37.1759259259259 21.9230769230769  37.7777777777778 21.9230769230769  C 38.3796296296296 21.9230769230769  38.900462962963 22.1400240384615  39.3402777777778 22.5739182692308  Z M 27.8472222222222 3.21995192307692  C 30.0231481481481 5.36658653846153  31.1111111111111 7.94711538461538  31 10.9615384615385  L 31 28.5  C 31.1111111111111 31.5144230769231  30.0231481481481 34.0949519230769  27.8472222222222 36.2415865384615  C 25.6712962962963 38.3882211538462  23.0555555555556 39.4615384615385  20 39.4615384615385  C 16.9444444444444 39.4615384615385  14.3287037037037 38.3882211538462  12.1527777777778 36.2415865384615  C 9.97685185185185 34.0949519230769  8.88888888888889 31.5144230769231  9 28.5  L 9 10.9615384615385  C 8.88888888888889 7.94711538461538  9.97685185185185 5.36658653846153  12.1527777777778 3.21995192307692  C 14.3287037037037 1.07331730769231  16.9444444444444 0  20 0  C 23.0555555555556 0  25.6712962962963 1.07331730769231  27.8472222222222 3.21995192307692  Z " fill-rule="nonzero" fill="#1aa8a4" stroke="none" transform="matrix(1 0 0 1 1662 174 )" />
  </g>
</svg>