<?xml version="1.0" encoding="utf-8"?>
<svg version="1.1" xmlns:xlink="http://www.w3.org/1999/xlink" width="19px" height="17px" xmlns="http://www.w3.org/2000/svg">
  <g transform="matrix(1 0 0 1 -2330 -2441 )">
    <path d="M 19 5.02310855263158  C 13.7571875 -1.52524671052632  5.251125 -1.52524671052632  0 5.02310855263158  L 1.7278125 7.18026315789474  C 6.0194375 1.81883223684211  12.9805625 1.81883223684211  17.2721875 7.18026315789474  L 19 5.02310855263158  Z M 12.091125 13.6517269736842  C 10.666125 11.8622532894737  8.3421875 11.8622532894737  6.908875 13.6517269736842  L 9.5 16.8881578947368  L 12.091125 13.6517269736842  Z M 3.4544375 9.33881578947368  L 3.455625 9.33881578947368  L 5.1834375 11.4959703947368  C 7.56675 8.51817434210526  11.435625 8.51817434210526  13.8189375 11.4959703947368  L 15.5455625 9.33881578947368  C 12.21225 5.17549342105263  6.79725 5.17549342105263  3.4544375 9.33881578947368  Z " fill-rule="nonzero" fill="#000000" stroke="none" transform="matrix(1 0 0 1 2330 2441 )" />
  </g>
</svg>