<?xml version="1.0" encoding="utf-8"?>
<svg version="1.1" xmlns:xlink="http://www.w3.org/1999/xlink" width="11px" height="21px" xmlns="http://www.w3.org/2000/svg">
  <g transform="matrix(1 0 0 1 -1721 -2209 )">
    <path d="M 11 2.99627791563275  C 11 3.22208436724566  10.9327541827542 3.41749379652605  10.7982625482625 3.58250620347395  L 5.16023166023166 10.5  L 10.7982625482625 17.4174937965261  C 10.9327541827542 17.5825062034739  11 17.7779156327543  11 18.0037220843672  C 11 18.2295285359801  10.9327541827542 18.4249379652605  10.7982625482625 18.5899503722084  L 9.03571428571428 20.7524813895782  C 8.90122265122265 20.9174937965261  8.74195624195624 21  8.55791505791506 21  C 8.37387387387387 21  8.21460746460747 20.9174937965261  8.08011583011583 20.7524813895782  L 0.201737451737452 11.0862282878412  C 0.0672458172458174 10.9212158808933  0 10.7258064516129  0 10.5  C 0 10.2741935483871  0.0672458172458174 10.0787841191067  0.201737451737452 9.91377171215881  L 8.08011583011583 0.247518610421836  C 8.21460746460747 0.0825062034739444  8.37387387387387 0  8.55791505791506 0  C 8.74195624195624 0  8.90122265122265 0.0825062034739444  9.03571428571428 0.247518610421836  L 10.7982625482625 2.41004962779156  C 10.9327541827542 2.57506203473945  11 2.77047146401985  11 2.99627791563275  Z " fill-rule="nonzero" fill="#000000" stroke="none" transform="matrix(1 0 0 1 1721 2209 )" />
  </g>
</svg>