<?xml version="1.0" encoding="utf-8"?>
<svg version="1.1" xmlns:xlink="http://www.w3.org/1999/xlink" width="21px" height="21px" viewBox="343 1184  21 21" xmlns="http://www.w3.org/2000/svg">
  <path d="M 353.5 1184  C 359.38 1184  364 1188.62  364 1194.5  C 364 1200.38  359.38 1205  353.5 1205  C 347.62 1205  343 1200.38  343 1194.5  C 343 1188.62  347.62 1184  353.5 1184  Z " fill-rule="nonzero" fill="#f0f0f0" stroke="none" />
  <path d="M 353.5 1184.5  C 359.1 1184.5  363.5 1188.9  363.5 1194.5  C 363.5 1200.1  359.1 1204.5  353.5 1204.5  C 347.9 1204.5  343.5 1200.1  343.5 1194.5  C 343.5 1188.9  347.9 1184.5  353.5 1184.5  Z " stroke-width="1" stroke="#797979" fill="none" />
  <path d="M 353.5 1199.75  C 350.56 1199.75  348.25 1197.44  348.25 1194.5  C 348.25 1191.56  350.56 1189.25  353.5 1189.25  C 356.44 1189.25  358.75 1191.56  358.75 1194.5  C 358.75 1197.44  356.44 1199.75  353.5 1199.75  " fill-rule="nonzero" fill="#797979" stroke="none" />
</svg>