<?xml version="1.0" encoding="utf-8"?>
<svg version="1.1" xmlns:xlink="http://www.w3.org/1999/xlink" width="21px" height="21px" viewBox="343 1240  21 21" xmlns="http://www.w3.org/2000/svg">
  <path d="M 353.5 1240  C 359.38 1240  364 1244.62  364 1250.5  C 364 1256.38  359.38 1261  353.5 1261  C 347.62 1261  343 1256.38  343 1250.5  C 343 1244.62  347.62 1240  353.5 1240  Z " fill-rule="nonzero" fill="#f0f0f0" stroke="none" />
  <path d="M 353.5 1240.5  C 359.1 1240.5  363.5 1244.9  363.5 1250.5  C 363.5 1256.1  359.1 1260.5  353.5 1260.5  C 347.9 1260.5  343.5 1256.1  343.5 1250.5  C 343.5 1244.9  347.9 1240.5  353.5 1240.5  Z " stroke-width="1" stroke="#797979" fill="none" />
  <path d="M 353.5 1255.75  C 350.56 1255.75  348.25 1253.44  348.25 1250.5  C 348.25 1247.56  350.56 1245.25  353.5 1245.25  C 356.44 1245.25  358.75 1247.56  358.75 1250.5  C 358.75 1253.44  356.44 1255.75  353.5 1255.75  " fill-rule="nonzero" fill="#797979" stroke="none" />
</svg>