<?xml version="1.0" encoding="utf-8"?>
<svg version="1.1" xmlns:xlink="http://www.w3.org/1999/xlink" width="21px" height="21px" viewBox="343 1296  21 21" xmlns="http://www.w3.org/2000/svg">
  <path d="M 353.5 1296  C 359.38 1296  364 1300.62  364 1306.5  C 364 1312.38  359.38 1317  353.5 1317  C 347.62 1317  343 1312.38  343 1306.5  C 343 1300.62  347.62 1296  353.5 1296  Z " fill-rule="nonzero" fill="#f0f0f0" stroke="none" />
  <path d="M 353.5 1296.5  C 359.1 1296.5  363.5 1300.9  363.5 1306.5  C 363.5 1312.1  359.1 1316.5  353.5 1316.5  C 347.9 1316.5  343.5 1312.1  343.5 1306.5  C 343.5 1300.9  347.9 1296.5  353.5 1296.5  Z " stroke-width="1" stroke="#797979" fill="none" />
  <path d="M 353.5 1311.75  C 350.56 1311.75  348.25 1309.44  348.25 1306.5  C 348.25 1303.56  350.56 1301.25  353.5 1301.25  C 356.44 1301.25  358.75 1303.56  358.75 1306.5  C 358.75 1309.44  356.44 1311.75  353.5 1311.75  " fill-rule="nonzero" fill="#797979" stroke="none" />
</svg>