<?xml version="1.0" encoding="utf-8"?>
<svg version="1.1" xmlns:xlink="http://www.w3.org/1999/xlink" width="34px" height="27px" xmlns="http://www.w3.org/2000/svg">
  <g transform="matrix(1 0 0 1 -4560 -594 )">
    <path d="M 1.23095000000012 11  L 24.3802922233858 11  L 17.8504499999999 4.47000000000003  C 17.3758582911987 3.99488060128715  17.3758582911987 3.22511939871288  17.8504499999999 2.75  L 19.5704500000002 1.02999999999997  C 20.0455693987128 0.555408291198773  20.8153306012873 0.555408291198773  21.29045 1.02999999999997  L 33.7604500000002 13.5  L 21.29045 25.97  C 20.8153306012873 26.4445917088012  20.0455693987128 26.4445917088012  19.5704500000002 25.97  L 17.8504499999999 24.25  C 17.6220020502078 24.022105994192  17.4936146592172 23.7126827290815  17.4936146592172 23.39  C 17.4936146592172 23.0673172709185  17.6220020502078 22.757894005808  17.8504499999999 22.53  L 24.3801344778453 16  L 1.23095000000012 16  C 0.557687275718763 15.9381  0.0118999999999687 15.3923127242813  0.0118999999999687 14.71905  L 0.0118999999999687 12.28095  C 0.0118999999999687 11.6076872757187  0.557687275718763 11.0619  1.23095000000012 11  Z " fill-rule="nonzero" fill="#ffffff" stroke="none" transform="matrix(1 0 0 1 4560 594 )" />
  </g>
</svg>