<?xml version="1.0" encoding="utf-8"?>
<svg version="1.1" xmlns:xlink="http://www.w3.org/1999/xlink" width="38px" height="38px" xmlns="http://www.w3.org/2000/svg">
  <g transform="matrix(1 0 0 1 -1091 -166 )">
    <path d="M 25.75390625 7.34765625  C 23.6922743055556 6.14366319444444  21.4409722222222 5.54166666666667  19 5.54166666666667  C 16.5590277777778 5.54166666666667  14.3077256944444 6.14366319444444  12.24609375 7.34765625  C 10.1844618055556 8.55164930555555  8.55164930555556 10.1844618055556  7.34765625 12.24609375  C 6.14366319444444 14.3077256944444  5.54166666666667 16.5590277777778  5.54166666666667 19  C 5.54166666666667 21.4409722222222  6.14366319444444 23.6922743055556  7.34765625 25.75390625  C 8.55164930555556 27.8155381944444  10.1844618055556 29.4483506944444  12.24609375 30.65234375  C 14.3077256944444 31.8563368055556  16.5590277777778 32.4583333333333  19 32.4583333333333  C 21.4409722222222 32.4583333333333  23.6922743055556 31.8563368055556  25.75390625 30.65234375  C 27.8155381944445 29.4483506944444  29.4483506944445 27.8155381944444  30.65234375 25.75390625  C 31.8563368055556 23.6922743055556  32.4583333333333 21.4409722222222  32.4583333333333 19  C 32.4583333333333 16.5590277777778  31.8563368055556 14.3077256944444  30.65234375 12.24609375  C 29.4483506944445 10.1844618055556  27.8155381944445 8.55164930555555  25.75390625 7.34765625  Z M 35.4518229166667 9.462890625  C 37.1506076388889 12.3739149305556  38 15.5529513888889  38 19  C 38 22.4470486111111  37.1506076388889 25.6260850694444  35.4518229166667 28.537109375  C 33.7530381944445 31.4481336805556  31.4481336805556 33.7530381944444  28.537109375 35.4518229166667  C 25.6260850694445 37.1506076388889  22.4470486111111 38  19 38  C 15.5529513888889 38  12.3739149305556 37.1506076388889  9.462890625 35.4518229166667  C 6.55186631944444 33.7530381944444  4.24696180555556 31.4481336805556  2.54817708333333 28.537109375  C 0.849392361111111 25.6260850694444  0 22.4470486111111  0 19  C 0 15.5529513888889  0.849392361111111 12.3739149305556  2.54817708333333 9.462890625  C 4.24696180555556 6.55186631944444  6.55186631944444 4.24696180555555  9.462890625 2.54817708333333  C 12.3739149305556 0.849392361111108  15.5529513888889 0  19 0  C 22.4470486111111 0  25.6260850694445 0.849392361111108  28.537109375 2.54817708333333  C 31.4481336805556 4.24696180555555  33.7530381944445 6.55186631944444  35.4518229166667 9.462890625  Z " fill-rule="nonzero" fill="#41a28e" stroke="none" transform="matrix(1 0 0 1 1091 166 )" />
  </g>
</svg>