<?xml version="1.0" encoding="utf-8"?>
<svg version="1.1" xmlns:xlink="http://www.w3.org/1999/xlink" width="11px" height="18px" xmlns="http://www.w3.org/2000/svg">
  <g transform="matrix(1 0 0 1 -46 -80 )">
    <path d="M 11 2.5682382133995  C 11 2.76178660049628  10.9327541827542 2.92928039702233  10.7982625482625 3.07071960297767  L 5.16023166023166 9  L 10.7982625482625 14.9292803970223  C 10.9327541827542 15.0707196029777  11 15.2382133995037  11 15.4317617866005  C 11 15.6253101736973  10.9327541827542 15.7928039702233  10.7982625482625 15.9342431761787  L 9.03571428571428 17.787841191067  C 8.90122265122265 17.9292803970223  8.74195624195624 18  8.55791505791506 18  C 8.37387387387387 18  8.21460746460747 17.9292803970223  8.08011583011583 17.787841191067  L 0.201737451737452 9.50248138957816  C 0.0672458172458174 9.36104218362283  0 9.19354838709677  0 9  C 0 8.80645161290323  0.0672458172458174 8.63895781637717  0.201737451737452 8.49751861042184  L 8.08011583011583 0.212158808933002  C 8.21460746460747 0.0707196029776667  8.37387387387387 0  8.55791505791506 0  C 8.74195624195624 0  8.90122265122265 0.0707196029776667  9.03571428571428 0.212158808933002  L 10.7982625482625 2.06575682382134  C 10.9327541827542 2.20719602977667  11 2.37468982630273  11 2.5682382133995  Z " fill-rule="nonzero" fill="#ffffff" stroke="none" transform="matrix(1 0 0 1 46 80 )" />
  </g>
</svg>