<?xml version="1.0" encoding="utf-8"?>
<svg version="1.1" xmlns:xlink="http://www.w3.org/1999/xlink" width="20px" height="20px" xmlns="http://www.w3.org/2000/svg">
  <g transform="matrix(1 0 0 1 -385 -79 )">
    <path d="M 19.3981481481481 12.4019820601852  C 18.4310619212963 12.0306712962963  17.7408854166667 11.0992476851852  17.7408854166667 10  C 17.7408854166667 8.90075231481482  18.4310619212963 7.9693287037037  19.3981481481481 7.59801793981481  C 19.1673900462963 6.69176793981482  18.8107638888889 5.83796296296296  18.3450520833333 5.05338541666667  C 17.3968460648148 5.47504340277778  16.2514467592593 5.30302372685185  15.4752604166667 4.52473958333333  C 14.6990740740741 3.74855324074074  14.5270543981481 2.60105613425926  14.9487123842593 1.65494791666667  C 14.162037037037 1.18923611111111  13.3082320601852 0.832609953703704  12.4019820601852 0.601851851851852  C 12.0285734953704 1.5689380787037  11.0971498842593 2.25911458333333  10 2.25911458333333  C 8.90075231481482 2.25911458333333  7.9693287037037 1.5689380787037  7.59801793981481 0.601851851851852  C 6.69176793981482 0.832609953703704  5.83796296296296 1.18923611111111  5.05338541666667 1.65494791666667  C 5.47504340277778 2.60315393518519  5.30302372685185 3.74855324074074  4.52683738425926 4.52473958333333  C 3.75065104166667 5.30092592592593  2.60315393518518 5.47294560185185  1.65704571759259 5.05338541666667  C 1.18923611111111 5.83796296296296  0.832609953703704 6.69176793981482  0.601851851851852 7.59801793981481  C 1.5689380787037 7.97142650462963  2.25911458333333 8.90285011574074  2.25911458333333 10  C 2.25911458333333 11.0992476851852  1.5689380787037 12.0306712962963  0.601851851851852 12.4019820601852  C 0.832609953703704 13.3082320601852  1.18923611111111 14.162037037037  1.65494791666667 14.9466145833333  C 2.60315393518519 14.5249565972222  3.74855324074074 14.6969762731481  4.52473958333333 15.4752604166667  C 5.30092592592593 16.2514467592593  5.47294560185185 17.3989438657407  5.05128761574074 18.3450520833333  C 5.83796296296296 18.8107638888889  6.69176793981482 19.1673900462963  7.59801793981481 19.3981481481481  C 7.97142650462963 18.4310619212963  8.90285011574074 17.7408854166667  10 17.7408854166667  C 11.0992476851852 17.7408854166667  12.0306712962963 18.4310619212963  12.4019820601852 19.3981481481481  C 13.3082320601852 19.1673900462963  14.162037037037 18.8107638888889  14.9466145833333 18.3450520833333  C 14.5249565972222 17.3968460648148  14.6969762731481 16.2514467592593  15.4731626157407 15.4752604166667  C 16.2493489583333 14.6990740740741  17.3968460648148 14.5270543981481  18.3429542824074 14.9466145833333  C 18.8107638888889 14.162037037037  19.1673900462963 13.3082320601852  19.3981481481481 12.4019820601852  Z M 12.5802951388889 10  C 12.5802951388889 11.4244068287037  11.4244068287037 12.5802951388889  10 12.5802951388889  C 8.5755931712963 12.5802951388889  7.41970486111111 11.4244068287037  7.41970486111111 10  C 7.41970486111111 8.5755931712963  8.5755931712963 7.41970486111111  10 7.41970486111111  C 11.4244068287037 7.41970486111111  12.5802951388889 8.5755931712963  12.5802951388889 10  Z " fill-rule="nonzero" fill="#ffffff" stroke="none" transform="matrix(1 0 0 1 385 79 )" />
  </g>
</svg>