<?xml version="1.0" encoding="utf-8"?>
<svg version="1.1" xmlns:xlink="http://www.w3.org/1999/xlink" width="50px" height="50px" xmlns="http://www.w3.org/2000/svg">
  <g transform="matrix(1 0 0 1 -62 -619 )">
    <path d="M 87 619  C 101 619  112 630  112 644  C 112 658  101 669  87 669  C 73 669  62 658  62 644  C 62 630  73 619  87 619  Z " fill-rule="nonzero" fill="#5b99e4" stroke="none" />
    <path d="M 87 619.5  C 100.72 619.5  111.5 630.28  111.5 644  C 111.5 657.72  100.72 668.5  87 668.5  C 73.28 668.5  62.5 657.72  62.5 644  C 62.5 630.28  73.28 619.5  87 619.5  Z " stroke-width="1" stroke="#ffffff" fill="none" />
  </g>
</svg>