<svg width="54" height="54" viewBox="0 0 54 54" fill="none" xmlns="http://www.w3.org/2000/svg">
<circle cx="27" cy="27" r="27" fill="#FF7223"/>
<path d="M16 27V34C16 35.6569 17.3431 37 19 37H35C36.6569 37 38 35.6569 38 34V27" stroke="white" stroke-width="2" stroke-linecap="round"/>
<mask id="path-3-inside-1_7863_70" fill="white">
<path fill-rule="evenodd" clip-rule="evenodd" d="M21.6506 18.1213C22.0411 17.7308 22.0411 17.0976 21.6506 16.7071C21.2601 16.3166 20.6269 16.3166 20.2364 16.7071C18.319 18.6245 18.319 21.7332 20.2364 23.6506C21.3728 24.787 21.3728 26.6293 20.2364 27.7657C19.8459 28.1562 19.8459 28.7894 20.2364 29.1799C20.6269 29.5704 21.2601 29.5704 21.6506 29.1799C23.568 27.2625 23.568 24.1538 21.6506 22.2364C20.5143 21.1 20.5143 19.2577 21.6506 18.1213Z"/>
</mask>
<path d="M20.9435 17.4142L22.3577 18.8284C23.1388 18.0474 23.1388 16.781 22.3577 16L20.9435 17.4142ZM20.9435 17.4142L22.3577 16C21.5767 15.219 20.3103 15.219 19.5293 16L20.9435 17.4142ZM20.9435 22.9435C19.4166 21.4166 19.4166 18.9411 20.9435 17.4142L19.5293 16C17.2214 18.3079 17.2214 22.0498 19.5293 24.3577L20.9435 22.9435ZM20.9435 28.4728C22.4704 26.9459 22.4704 24.4704 20.9435 22.9435L19.5293 24.3577C20.2751 25.1035 20.2751 26.3128 19.5293 27.0586L20.9435 28.4728ZM20.9435 28.4728L19.5293 27.0586C18.7482 27.8396 18.7482 29.106 19.5293 29.887L20.9435 28.4728ZM20.9435 28.4728L19.5293 29.887C20.3103 30.668 21.5767 30.668 22.3577 29.887L20.9435 28.4728ZM20.9435 22.9435C22.4704 24.4704 22.4704 26.9459 20.9435 28.4728L22.3577 29.887C24.6656 27.5791 24.6656 23.8372 22.3577 21.5293L20.9435 22.9435ZM20.9435 17.4142C19.4166 18.9411 19.4166 21.4166 20.9435 22.9435L22.3577 21.5293C21.6119 20.7835 21.6119 19.5742 22.3577 18.8284L20.9435 17.4142Z" fill="white" mask="url(#path-3-inside-1_7863_70)"/>
<mask id="path-5-inside-2_7863_70" fill="white">
<path fill-rule="evenodd" clip-rule="evenodd" d="M27.5808 18.1213C27.9713 17.7308 27.9713 17.0976 27.5808 16.7071C27.1902 16.3166 26.5571 16.3166 26.1666 16.7071C24.2492 18.6245 24.2492 21.7332 26.1666 23.6506C27.3029 24.787 27.3029 26.6293 26.1666 27.7657C25.776 28.1562 25.776 28.7894 26.1666 29.1799C26.5571 29.5704 27.1902 29.5704 27.5808 29.1799C29.4982 27.2625 29.4982 24.1538 27.5808 22.2364C26.4444 21.1 26.4444 19.2577 27.5808 18.1213Z"/>
</mask>
<path d="M26.1666 23.6506L25.4594 24.3577L25.4594 24.3577L26.1666 23.6506ZM27.5808 22.2364L26.8737 22.9435L27.5808 22.2364ZM26.8737 17.4142L28.2879 18.8284C29.0689 18.0474 29.0689 16.781 28.2879 16L26.8737 17.4142ZM26.8737 17.4142L28.2879 16C27.5068 15.219 26.2405 15.219 25.4594 16L26.8737 17.4142ZM26.8737 22.9435C25.3468 21.4166 25.3468 18.9411 26.8737 17.4142L25.4594 16C23.1515 18.3079 23.1515 22.0498 25.4594 24.3577L26.8737 22.9435ZM26.8737 28.4728C28.4005 26.9459 28.4005 24.4704 26.8737 22.9435L25.4594 24.3577C26.2053 25.1035 26.2053 26.3128 25.4594 27.0586L26.8737 28.4728ZM26.8737 28.4728L25.4594 27.0586C24.6784 27.8396 24.6784 29.106 25.4594 29.887L26.8737 28.4728ZM26.8737 28.4728L25.4594 29.887C26.2405 30.668 27.5068 30.668 28.2879 29.887L26.8737 28.4728ZM26.8737 22.9435C28.4005 24.4704 28.4005 26.9459 26.8737 28.4728L28.2879 29.887C30.5958 27.5791 30.5958 23.8372 28.2879 21.5293L26.8737 22.9435ZM26.8737 17.4142C25.3468 18.9411 25.3468 21.4166 26.8737 22.9435L28.2879 21.5293C27.542 20.7835 27.542 19.5742 28.2879 18.8284L26.8737 17.4142Z" fill="white" mask="url(#path-5-inside-2_7863_70)"/>
<mask id="path-7-inside-3_7863_70" fill="white">
<path fill-rule="evenodd" clip-rule="evenodd" d="M33.4455 18.1213C33.836 17.7308 33.836 17.0976 33.4455 16.7071C33.055 16.3166 32.4218 16.3166 32.0313 16.7071C30.1139 18.6245 30.1139 21.7332 32.0313 23.6506C33.1676 24.787 33.1676 26.6293 32.0313 27.7657C31.6407 28.1562 31.6407 28.7894 32.0313 29.1799C32.4218 29.5704 33.055 29.5704 33.4455 29.1799C35.3629 27.2625 35.3629 24.1538 33.4455 22.2364C32.3091 21.1 32.3091 19.2577 33.4455 18.1213Z"/>
</mask>
<path d="M32.7384 17.4142L34.1526 18.8284C34.9336 18.0474 34.9336 16.781 34.1526 16L32.7384 17.4142ZM32.7384 17.4142L34.1526 16C33.3715 15.219 32.1052 15.219 31.3242 16L32.7384 17.4142ZM32.7384 22.9435C31.2115 21.4166 31.2115 18.9411 32.7384 17.4142L31.3242 16C29.0162 18.3079 29.0162 22.0498 31.3242 24.3577L32.7384 22.9435ZM32.7384 28.4728C34.2652 26.9459 34.2652 24.4704 32.7384 22.9435L31.3242 24.3577C32.07 25.1035 32.07 26.3128 31.3242 27.0586L32.7384 28.4728ZM32.7384 28.4728L31.3242 27.0586C30.5431 27.8396 30.5431 29.106 31.3242 29.887L32.7384 28.4728ZM32.7384 28.4728L31.3242 29.887C32.1052 30.668 33.3715 30.668 34.1526 29.887L32.7384 28.4728ZM32.7384 22.9435C34.2652 24.4704 34.2652 26.9459 32.7384 28.4728L34.1526 29.887C36.4605 27.5791 36.4605 23.8372 34.1526 21.5293L32.7384 22.9435ZM32.7384 17.4142C31.2115 18.9411 31.2115 21.4166 32.7384 22.9435L34.1526 21.5293C33.4068 20.7835 33.4068 19.5742 34.1526 18.8284L32.7384 17.4142Z" fill="white" mask="url(#path-7-inside-3_7863_70)"/>
</svg>
