<?xml version="1.0" encoding="utf-8"?>
<svg version="1.1" xmlns:xlink="http://www.w3.org/1999/xlink" width="18px" height="18px" xmlns="http://www.w3.org/2000/svg">
  <g transform="matrix(1 0 0 1 -35 -208 )">
    <path d="M 44 208  C 49.04 208  53 211.96  53 217  C 53 222.04  49.04 226  44 226  C 38.96 226  35 222.04  35 217  C 35 211.96  38.96 208  44 208  Z " fill-rule="nonzero" fill="#ffffff" stroke="none" />
    <path d="M 44 208.5  C 48.76 208.5  52.5 212.24  52.5 217  C 52.5 221.76  48.76 225.5  44 225.5  C 39.24 225.5  35.5 221.76  35.5 217  C 35.5 212.24  39.24 208.5  44 208.5  Z " stroke-width="1" stroke="#d7d7d7" fill="none" />
  </g>
</svg>