<svg t="1645598326061" class="icon" viewBox="0 0 1024 1024" version="1.1" xmlns="http://www.w3.org/2000/svg" p-id="2722" width="48" height="48"><path d="M502.087111 149.390222a2819.456 2819.456 0 0 0-114.944 152.064c-29.681778 42.325333-56.32 83.285333-79.132444 122.168889-54.215111 92.387556-84.124444 168.604444-84.124445 220.103111 0 173.824 137.088 314.396444 305.777778 314.396445 168.675556 0 305.777778-140.572444 305.777778-314.396445 0-51.484444-29.909333-127.715556-84.124445-220.103111-22.812444-38.883556-49.450667-79.843556-79.132444-122.168889a2819.456 2819.456 0 0 0-114.944-152.064 2847.345778 2847.345778 0 0 0-27.591111-33.607111c-8.604444 10.325333-17.834667 21.560889-27.562667 33.607111zM158.876444 643.726222c0-66.204444 33.408-151.338667 93.056-253.013333 23.765333-40.504889 51.342222-82.915556 81.976889-126.577778a2883.413333 2883.413333 0 0 1 117.617778-155.619555 2798.250667 2798.250667 0 0 1 49.692445-59.790223l3.982222-4.579555 24.462222-27.960889 24.462222 27.960889 3.982222 4.579555c3.143111 3.683556 6.812444 7.964444 10.922667 12.828445 11.704889 13.852444 24.746667 29.610667 38.769778 46.961778a2883.413333 2883.413333 0 0 1 117.617778 155.619555c30.634667 43.662222 58.197333 86.072889 81.976889 126.577778 59.648 101.674667 93.056 186.808889 93.056 253.013333 0 209.365333-165.831111 379.420444-370.787556 379.420445-204.970667 0-370.787556-170.055111-370.787556-379.420445z" p-id="2723"></path><path d="M529.664 910.193778c-142.876444 0-258.688-116.224-258.688-259.598222 0-143.36 134.442667-70.769778 258.688 0 124.757333 71.068444 258.688-143.36 258.688 0 0 143.374222-115.825778 259.598222-258.702222 259.598222z" p-id="2724"></path><path d="M724.920889 180.821333c0-23.651556 15.658667-51.754667 41.813333-84.110222a512.213333 512.213333 0 0 1 39.594667-43.434667l11.235555-10.766222 11.249778 10.766222 3.527111 3.456A512.199111 512.199111 0 0 1 868.408889 96.711111a315.690667 315.690667 0 0 1 23.438222 32.668445C903.608889 148.48 910.222222 165.518222 910.222222 180.821333c0 51.584-41.443556 93.468444-92.643555 93.468445s-92.657778-41.884444-92.657778-93.468445z m67.100444-63.672889c-21.589333 26.695111-34.588444 50.033778-34.588444 63.672889 0 33.706667 26.965333 60.956444 60.145778 60.956445 33.166222 0 60.131556-27.249778 60.131555-60.956445 0-7.950222-4.664889-19.982222-13.553778-34.432a284.174222 284.174222 0 0 0-21.020444-29.240889 480.213333 480.213333 0 0 0-25.400889-28.828444 392.647111 392.647111 0 0 0-25.713778 28.828444zM113.777778 329.059556c0-17.692444 11.064889-37.546667 29.582222-60.458667a353.422222 353.422222 0 0 1 27.377778-30.023111l11.235555-10.780445 11.249778 10.780445a353.422222 353.422222 0 0 1 27.363556 30.008889c6.300444 7.793778 11.804444 15.402667 16.327111 22.755555 8.462222 13.752889 13.269333 26.140444 13.269333 37.717334 0 37.930667-30.492444 68.750222-68.195555 68.750222-37.717333 0-68.209778-30.819556-68.209778-68.750222z m54.869333-40.021334c-13.937778 17.251556-22.357333 32.341333-22.357333 40.021334 0 20.053333 16.014222 36.252444 35.697778 36.252444 19.669333 0 35.697778-16.199111 35.697777-36.252444 0-4.224-2.887111-11.619556-8.462222-20.693334a188.202667 188.202667 0 0 0-13.909333-19.342222 312.462222 312.462222 0 0 0-13.340445-15.374222 312.462222 312.462222 0 0 0-13.326222 15.388444z" p-id="2725"></path></svg>