<?xml version="1.0" encoding="utf-8"?>
<svg version="1.1" xmlns:xlink="http://www.w3.org/1999/xlink" width="10px" height="15px" xmlns="http://www.w3.org/2000/svg">
  <g transform="matrix(1 0 0 1 -246 -366 )">
    <path d="M 6.8212890625 3.49609375  C 7.0654296875 3.74348958333333  7.1875 4.03645833333333  7.1875 4.375  C 7.1875 4.45963541666667  7.15657552083333 4.53287760416667  7.0947265625 4.5947265625  C 7.03287760416667 4.65657552083333  6.95963541666667 4.6875  6.875 4.6875  C 6.79036458333333 4.6875  6.71712239583333 4.65657552083333  6.6552734375 4.5947265625  C 6.59342447916667 4.53287760416667  6.5625 4.45963541666667  6.5625 4.375  C 6.5625 4.07552083333333  6.38671875 3.84440104166667  6.03515625 3.681640625  C 5.68359375 3.51888020833333  5.33854166666667 3.4375  5 3.4375  C 4.91536458333333 3.4375  4.84212239583333 3.40657552083333  4.7802734375 3.3447265625  C 4.71842447916667 3.28287760416666  4.6875 3.20963541666666  4.6875 3.125  C 4.6875 3.04036458333333  4.71842447916667 2.96712239583333  4.7802734375 2.9052734375  C 4.84212239583333 2.84342447916666  4.91536458333333 2.8125  5 2.8125  C 5.32552083333333 2.8125  5.6494140625 2.86458333333333  5.9716796875 2.96875  C 6.2939453125 3.07291666666667  6.5771484375 3.24869791666667  6.8212890625 3.49609375  Z M 8.0859375 6.1328125  C 8.52864583333333 5.61848958333333  8.75 5.03255208333333  8.75 4.375  C 8.75 3.90625  8.6376953125 3.47005208333333  8.4130859375 3.06640625  C 8.1884765625 2.66276041666667  7.8955078125 2.33235677083333  7.5341796875 2.0751953125  C 7.1728515625 1.81803385416666  6.7724609375 1.6162109375  6.3330078125 1.4697265625  C 5.8935546875 1.3232421875  5.44921875 1.25  5 1.25  C 4.55078125 1.25  4.1064453125 1.3232421875  3.6669921875 1.4697265625  C 3.2275390625 1.6162109375  2.8271484375 1.81803385416666  2.4658203125 2.0751953125  C 2.1044921875 2.33235677083333  1.8115234375 2.66276041666667  1.5869140625 3.06640625  C 1.3623046875 3.47005208333333  1.25 3.90625  1.25 4.375  C 1.25 5.03255208333333  1.47135416666667 5.61848958333333  1.9140625 6.1328125  C 1.97916666666667 6.20442708333333  2.07845052083333 6.31184895833333  2.2119140625 6.455078125  C 2.34537760416667 6.59830729166667  2.44466145833333 6.70572916666667  2.509765625 6.77734375  C 3.34309895833333 7.7734375  3.80208333333333 8.74348958333333  3.88671875 9.6875  L 6.11328125 9.6875  C 6.19791666666667 8.74348958333333  6.65690104166667 7.7734375  7.490234375 6.77734375  C 7.55533854166667 6.70572916666667  7.65462239583333 6.59830729166667  7.7880859375 6.455078125  C 7.92154947916667 6.31184895833333  8.02083333333333 6.20442708333333  8.0859375 6.1328125  Z M 9.5654296875 2.5732421875  C 9.85514322916667 3.1298828125  10 3.73046875  10 4.375  C 10 5.38411458333333  9.66471354166667 6.25651041666667  8.994140625 6.9921875  C 8.701171875 7.31119791666667  8.45865885416667 7.59440104166667  8.2666015625 7.841796875  C 8.07454427083333 8.08919270833333  7.880859375 8.40006510416666  7.685546875 8.7744140625  C 7.490234375 9.14876302083333  7.37955729166667 9.49869791666666  7.353515625 9.82421875  C 7.65950520833333 10.0065104166667  7.8125 10.2734375  7.8125 10.625  C 7.8125 10.8658854166667  7.73111979166667 11.07421875  7.568359375 11.25  C 7.73111979166667 11.42578125  7.8125 11.6341145833333  7.8125 11.875  C 7.8125 12.2135416666667  7.666015625 12.4772135416667  7.373046875 12.666015625  C 7.45768229166667 12.8157552083333  7.5 12.96875  7.5 13.125  C 7.5 13.4244791666667  7.3974609375 13.6555989583333  7.1923828125 13.818359375  C 6.9873046875 13.9811197916667  6.73502604166667 14.0625  6.435546875 14.0625  C 6.30533854166667 14.3489583333333  6.11002604166667 14.5768229166667  5.849609375 14.74609375  C 5.58919270833333 14.9153645833333  5.30598958333333 15  5 15  C 4.69401041666667 15  4.41080729166667 14.9153645833333  4.150390625 14.74609375  C 3.88997395833333 14.5768229166667  3.69466145833333 14.3489583333333  3.564453125 14.0625  C 3.26497395833333 14.0625  3.0126953125 13.9811197916667  2.8076171875 13.818359375  C 2.6025390625 13.6555989583333  2.5 13.4244791666667  2.5 13.125  C 2.5 12.96875  2.54231770833333 12.8157552083333  2.626953125 12.666015625  C 2.333984375 12.4772135416667  2.1875 12.2135416666667  2.1875 11.875  C 2.1875 11.6341145833333  2.26888020833333 11.42578125  2.431640625 11.25  C 2.26888020833333 11.07421875  2.1875 10.8658854166667  2.1875 10.625  C 2.1875 10.2734375  2.34049479166667 10.0065104166667  2.646484375 9.82421875  C 2.62044270833333 9.49869791666666  2.509765625 9.14876302083333  2.314453125 8.7744140625  C 2.119140625 8.40006510416666  1.92545572916667 8.08919270833333  1.7333984375 7.841796875  C 1.54134114583333 7.59440104166667  1.298828125 7.31119791666667  1.005859375 6.9921875  C 0.335286458333333 6.25651041666667  0 5.38411458333333  0 4.375  C 0 3.73046875  0.144856770833333 3.1298828125  0.4345703125 2.5732421875  C 0.724283854166667 2.0166015625  1.10514322916667 1.55436197916666  1.5771484375 1.1865234375  C 2.04915364583333 0.818684895833332  2.5830078125 0.528971354166665  3.1787109375 0.317382812499999  C 3.7744140625 0.105794270833333  4.38151041666667 0  5 0  C 5.61848958333333 0  6.2255859375 0.105794270833333  6.8212890625 0.317382812499999  C 7.4169921875 0.528971354166665  7.95084635416667 0.818684895833332  8.4228515625 1.1865234375  C 8.89485677083333 1.55436197916666  9.27571614583333 2.0166015625  9.5654296875 2.5732421875  Z " fill-rule="nonzero" fill="#ffffff" stroke="none" transform="matrix(1 0 0 1 246 366 )" />
  </g>
</svg>