<?xml version="1.0" encoding="utf-8"?>
<svg version="1.1" xmlns:xlink="http://www.w3.org/1999/xlink" width="14px" height="21px" xmlns="http://www.w3.org/2000/svg">
  <g transform="matrix(1 0 0 1 -36 -364 )">
    <path d="M 9.5498046875 4.89453125  C 9.8916015625 5.24088541666667  10.0625 5.65104166666667  10.0625 6.125  C 10.0625 6.24348958333333  10.0192057291667 6.34602864583333  9.9326171875 6.4326171875  C 9.84602864583333 6.51920572916667  9.74348958333333 6.5625  9.625 6.5625  C 9.50651041666667 6.5625  9.40397135416667 6.51920572916667  9.3173828125 6.4326171875  C 9.23079427083333 6.34602864583333  9.1875 6.24348958333333  9.1875 6.125  C 9.1875 5.70572916666667  8.94140625 5.38216145833333  8.44921875 5.154296875  C 7.95703125 4.92643229166667  7.47395833333333 4.8125  7 4.8125  C 6.88151041666667 4.8125  6.77897135416667 4.76920572916667  6.6923828125 4.6826171875  C 6.60579427083333 4.59602864583333  6.5625 4.49348958333333  6.5625 4.375  C 6.5625 4.25651041666667  6.60579427083333 4.15397135416667  6.6923828125 4.0673828125  C 6.77897135416667 3.98079427083333  6.88151041666667 3.9375  7 3.9375  C 7.45572916666667 3.9375  7.9091796875 4.01041666666667  8.3603515625 4.15625  C 8.8115234375 4.30208333333333  9.2080078125 4.54817708333333  9.5498046875 4.89453125  Z M 11.3203125 8.5859375  C 11.9401041666667 7.86588541666667  12.25 7.04557291666667  12.25 6.125  C 12.25 5.46875  12.0927734375 4.85807291666667  11.7783203125 4.29296875  C 11.4638671875 3.72786458333333  11.0537109375 3.26529947916667  10.5478515625 2.9052734375  C 10.0419921875 2.54524739583333  9.4814453125 2.2626953125  8.8662109375 2.0576171875  C 8.2509765625 1.8525390625  7.62890625 1.75  7 1.75  C 6.37109375 1.75  5.7490234375 1.8525390625  5.1337890625 2.0576171875  C 4.5185546875 2.2626953125  3.9580078125 2.54524739583333  3.4521484375 2.9052734375  C 2.9462890625 3.26529947916667  2.5361328125 3.72786458333333  2.2216796875 4.29296875  C 1.9072265625 4.85807291666667  1.75 5.46875  1.75 6.125  C 1.75 7.04557291666667  2.05989583333333 7.86588541666667  2.6796875 8.5859375  C 2.77083333333333 8.68619791666667  2.90983072916667 8.83658854166666  3.0966796875 9.037109375  C 3.28352864583333 9.23763020833333  3.42252604166667 9.38802083333333  3.513671875 9.48828125  C 4.68033854166667 10.8828125  5.32291666666667 12.2408854166667  5.44140625 13.5625  L 8.55859375 13.5625  C 8.67708333333333 12.2408854166667  9.31966145833333 10.8828125  10.486328125 9.48828125  C 10.5774739583333 9.38802083333333  10.7164713541667 9.23763020833333  10.9033203125 9.037109375  C 11.0901692708333 8.83658854166666  11.2291666666667 8.68619791666667  11.3203125 8.5859375  Z M 13.3916015625 3.6025390625  C 13.7972005208333 4.3818359375  14 5.22265625  14 6.125  C 14 7.53776041666667  13.5305989583333 8.75911458333333  12.591796875 9.7890625  C 12.181640625 10.2356770833333  11.8421223958333 10.6321614583333  11.5732421875 10.978515625  C 11.3043619791667 11.3248697916667  11.033203125 11.7600911458333  10.759765625 12.2841796875  C 10.486328125 12.8082682291667  10.3313802083333 13.2981770833333  10.294921875 13.75390625  C 10.7233072916667 14.0091145833333  10.9375 14.3828125  10.9375 14.875  C 10.9375 15.2122395833333  10.8235677083333 15.50390625  10.595703125 15.75  C 10.8235677083333 15.99609375  10.9375 16.2877604166667  10.9375 16.625  C 10.9375 17.0989583333333  10.732421875 17.4680989583333  10.322265625 17.732421875  C 10.4407552083333 17.9420572916667  10.5 18.15625  10.5 18.375  C 10.5 18.7942708333333  10.3564453125 19.1178385416667  10.0693359375 19.345703125  C 9.7822265625 19.5735677083333  9.42903645833333 19.6875  9.009765625 19.6875  C 8.82747395833333 20.0885416666667  8.55403645833333 20.4075520833333  8.189453125 20.64453125  C 7.82486979166667 20.8815104166667  7.42838541666667 21  7 21  C 6.57161458333333 21  6.17513020833333 20.8815104166667  5.810546875 20.64453125  C 5.44596354166667 20.4075520833333  5.17252604166667 20.0885416666667  4.990234375 19.6875  C 4.57096354166667 19.6875  4.2177734375 19.5735677083333  3.9306640625 19.345703125  C 3.6435546875 19.1178385416667  3.5 18.7942708333333  3.5 18.375  C 3.5 18.15625  3.55924479166667 17.9420572916667  3.677734375 17.732421875  C 3.267578125 17.4680989583333  3.0625 17.0989583333333  3.0625 16.625  C 3.0625 16.2877604166667  3.17643229166667 15.99609375  3.404296875 15.75  C 3.17643229166667 15.50390625  3.0625 15.2122395833333  3.0625 14.875  C 3.0625 14.3828125  3.27669270833333 14.0091145833333  3.705078125 13.75390625  C 3.66861979166667 13.2981770833333  3.513671875 12.8082682291667  3.240234375 12.2841796875  C 2.966796875 11.7600911458333  2.69563802083333 11.3248697916667  2.4267578125 10.978515625  C 2.15787760416667 10.6321614583333  1.818359375 10.2356770833333  1.408203125 9.7890625  C 0.469401041666667 8.75911458333333  0 7.53776041666667  0 6.125  C 0 5.22265625  0.202799479166667 4.3818359375  0.6083984375 3.6025390625  C 1.01399739583333 2.8232421875  1.54720052083333 2.17610677083333  2.2080078125 1.6611328125  C 2.86881510416667 1.14615885416666  3.6162109375 0.74055989583333  4.4501953125 0.444335937499999  C 5.2841796875 0.148111979166666  6.13411458333333 0  7 0  C 7.86588541666667 0  8.7158203125 0.148111979166666  9.5498046875 0.444335937499999  C 10.3837890625 0.74055989583333  11.1311848958333 1.14615885416666  11.7919921875 1.6611328125  C 12.4527994791667 2.17610677083333  12.9860026041667 2.8232421875  13.3916015625 3.6025390625  Z " fill-rule="nonzero" fill="#000000" stroke="none" transform="matrix(1 0 0 1 36 364 )" />
  </g>
</svg>