<?xml version="1.0" encoding="utf-8"?>
<svg version="1.1" xmlns:xlink="http://www.w3.org/1999/xlink" width="34px" height="34px" xmlns="http://www.w3.org/2000/svg">
  <g transform="matrix(1 0 0 1 394 -252 )">
    <path d="M -377 252  C -367.48 252  -360 259.48  -360 269  C -360 278.52  -367.48 286  -377 286  C -386.52 286  -394 278.52  -394 269  C -394 259.48  -386.52 252  -377 252  Z " fill-rule="nonzero" fill="#d7d7d7" stroke="none" />
    <path d="M -377 252.5  C -367.76 252.5  -360.5 259.76  -360.5 269  C -360.5 278.24  -367.76 285.5  -377 285.5  C -386.24 285.5  -393.5 278.24  -393.5 269  C -393.5 259.76  -386.24 252.5  -377 252.5  Z " stroke-width="1" stroke="#d7d7d7" fill="none" />
  </g>
</svg>