<?xml version="1.0" encoding="utf-8"?>
<svg version="1.1" xmlns:xlink="http://www.w3.org/1999/xlink" width="34px" height="34px" xmlns="http://www.w3.org/2000/svg">
  <g transform="matrix(1 0 0 1 144 -252 )">
    <path d="M -127 252  C -117.48 252  -110 259.48  -110 269  C -110 278.52  -117.48 286  -127 286  C -136.52 286  -144 278.52  -144 269  C -144 259.48  -136.52 252  -127 252  Z " fill-rule="nonzero" fill="#ffffff" stroke="none" />
    <path d="M -127 252.5  C -117.76 252.5  -110.5 259.76  -110.5 269  C -110.5 278.24  -117.76 285.5  -127 285.5  C -136.24 285.5  -143.5 278.24  -143.5 269  C -143.5 259.76  -136.24 252.5  -127 252.5  Z " stroke-width="1" stroke="#d7d7d7" fill="none" />
  </g>
</svg>