<?xml version="1.0" encoding="utf-8"?>
<svg version="1.1" xmlns:xlink="http://www.w3.org/1999/xlink" width="30px" height="33px" xmlns="http://www.w3.org/2000/svg">
  <g transform="matrix(1 0 0 1 -180 -761 )">
    <path d="M 28.427734375 10.9669471153846  C 29.4759114583333 13.0955528846154  30 15.3629807692308  30 17.7692307692308  C 30 19.8317307692308  29.6028645833333 21.8016826923077  28.80859375 23.6790865384615  C 28.0143229166667 25.5564903846154  26.9466145833333 27.1760817307692  25.60546875 28.5378605769231  C 24.2643229166667 29.8996394230769  22.6692708333333 30.9837740384615  20.8203125 31.7902644230769  C 18.9713541666667 32.5967548076923  17.03125 33  15 33  C 12.96875 33  11.0286458333333 32.5967548076923  9.1796875 31.7902644230769  C 7.33072916666667 30.9837740384615  5.73567708333333 29.8996394230769  4.39453125 28.5378605769231  C 3.05338541666667 27.1760817307692  1.98567708333333 25.5564903846154  1.19140625 23.6790865384615  C 0.397135416666667 21.8016826923077  0 19.8317307692308  0 17.7692307692308  C 0 15.3629807692308  0.524088541666667 13.0955528846154  1.572265625 10.9669471153846  C 2.62044270833333 8.83834134615384  4.09505208333333 7.05348557692307  5.99609375 5.61237980769231  C 6.55598958333333 5.18930288461538  7.177734375 5.02403846153846  7.861328125 5.11658653846154  C 8.544921875 5.20913461538461  9.08854166666667 5.53966346153846  9.4921875 6.10817307692308  C 9.90885416666667 6.66346153846154  10.068359375 7.28816105769231  9.970703125 7.98227163461539  C 9.873046875 8.67638221153846  9.55078125 9.23497596153846  9.00390625 9.65805288461539  C 7.72786458333333 10.6364182692308  6.74153645833333 11.8329326923077  6.044921875 13.2475961538462  C 5.34830729166667 14.6622596153846  5 16.1694711538462  5 17.7692307692308  C 5 19.1442307692308  5.263671875 20.4564302884615  5.791015625 21.7058293269231  C 6.318359375 22.9552283653846  7.03125 24.0360576923077  7.9296875 24.9483173076923  C 8.828125 25.8605769230769  9.892578125 26.5844350961538  11.123046875 27.1198918269231  C 12.353515625 27.6553485576923  13.6458333333333 27.9230769230769  15 27.9230769230769  C 16.3541666666667 27.9230769230769  17.646484375 27.6553485576923  18.876953125 27.1198918269231  C 20.107421875 26.5844350961538  21.171875 25.8605769230769  22.0703125 24.9483173076923  C 22.96875 24.0360576923077  23.681640625 22.9552283653846  24.208984375 21.7058293269231  C 24.736328125 20.4564302884615  25 19.1442307692308  25 17.7692307692308  C 25 16.1694711538462  24.6516927083333 14.6622596153846  23.955078125 13.2475961538462  C 23.2584635416667 11.8329326923077  22.2721354166667 10.6364182692308  20.99609375 9.65805288461539  C 20.44921875 9.23497596153846  20.126953125 8.67638221153846  20.029296875 7.98227163461539  C 19.931640625 7.28816105769231  20.0911458333333 6.66346153846154  20.5078125 6.10817307692308  C 20.9114583333333 5.53966346153846  21.4583333333333 5.20913461538461  22.1484375 5.11658653846154  C 22.8385416666667 5.02403846153846  23.45703125 5.18930288461538  24.00390625 5.61237980769231  C 25.9049479166667 7.05348557692307  27.3795572916667 8.83834134615384  28.427734375 10.9669471153846  Z M 16.7578125 0.753605769230768  C 17.2526041666667 1.25600961538461  17.5 1.85096153846154  17 2.53846153846154  L 17 15.2307692307692  C 17.5 15.9182692307692  17.2526041666667 16.5132211538462  16.7578125 17.015625  C 16.2630208333333 17.5180288461538  15.6770833333333 17.7692307692308  15 17.7692307692308  C 14.3229166666667 17.7692307692308  13.7369791666667 17.5180288461538  13.2421875 17.015625  C 12.7473958333333 16.5132211538462  12.5 15.9182692307692  13 15.2307692307692  L 13 2.53846153846154  C 12.5 1.85096153846154  12.7473958333333 1.25600961538461  13.2421875 0.753605769230768  C 13.7369791666667 0.251201923076924  14.3229166666667 0  15 0  C 15.6770833333333 0  16.2630208333333 0.251201923076924  16.7578125 0.753605769230768  Z " fill-rule="nonzero" fill="#000000" stroke="none" transform="matrix(1 0 0 1 180 761 )" />
  </g>
</svg>