<?xml version="1.0" encoding="utf-8"?>
<svg version="1.1" xmlns:xlink="http://www.w3.org/1999/xlink" width="40px" height="40px" xmlns="http://www.w3.org/2000/svg">
  <g transform="matrix(1 0 0 1 -1117 -536 )">
    <path d="M 1137 536  C 1148.2 536  1157 544.8  1157 556  C 1157 567.2  1148.2 576  1137 576  C 1125.8 576  1117 567.2  1117 556  C 1117 544.8  1125.8 536  1137 536  Z " fill-rule="nonzero" fill="#ffffff" stroke="none" />
    <path d="M 1137 536.5  C 1147.92 536.5  1156.5 545.08  1156.5 556  C 1156.5 566.92  1147.92 575.5  1137 575.5  C 1126.08 575.5  1117.5 566.92  1117.5 556  C 1117.5 545.08  1126.08 536.5  1137 536.5  Z " stroke-width="1" stroke="#797979" fill="none" />
  </g>
</svg>