<?xml version="1.0" encoding="utf-8"?>
<svg version="1.1" xmlns:xlink="http://www.w3.org/1999/xlink" width="51px" height="28px" xmlns="http://www.w3.org/2000/svg">
  <g transform="matrix(1 0 0 1 -1158 -209 )">
    <path d="M 1.27001953125 19.4359375  C 0.42333984375 17.7078125  0 15.8958333333333  0 14  C 0 12.1041666666667  0.42333984375 10.2921875  1.27001953125 8.5640625  C 2.11669921875 6.8359375  3.249755859375 5.3484375  4.669189453125 4.1015625  C 6.088623046875 2.8546875  7.781982421875 1.859375  9.749267578125 1.115625  C 11.716552734375 0.371875000000001  13.779296875 0  15.9375 0  L 35.0625 0  C 37.220703125 0  39.283447265625 0.371875000000001  41.250732421875 1.115625  C 43.218017578125 1.859375  44.911376953125 2.8546875  46.330810546875 4.1015625  C 47.750244140625 5.3484375  48.88330078125 6.8359375  49.72998046875 8.5640625  C 50.57666015625 10.2921875  51 12.1041666666667  51 14  C 51 15.8958333333333  50.57666015625 17.7078125  49.72998046875 19.4359375  C 48.88330078125 21.1640625  47.750244140625 22.6515625  46.330810546875 23.8984375  C 44.911376953125 25.1453125  43.218017578125 26.140625  41.250732421875 26.884375  C 39.283447265625 27.628125  37.220703125 28  35.0625 28  L 15.9375 28  C 13.779296875 28  11.716552734375 27.628125  9.749267578125 26.884375  C 7.781982421875 26.140625  6.088623046875 25.1453125  4.669189453125 23.8984375  C 3.249755859375 22.6515625  2.11669921875 21.1640625  1.27001953125 19.4359375  Z M 30.119384765625 24.3140625  C 31.688232421875 24.9046875  33.3359375 25.2  35.0625 25.2  C 36.7890625 25.2  38.436767578125 24.9046875  40.005615234375 24.3140625  C 41.574462890625 23.7234375  42.931640625 22.925  44.0771484375 21.91875  C 45.22265625 20.9125  46.131591796875 19.7203125  46.803955078125 18.3421875  C 47.476318359375 16.9640625  47.8125 15.5166666666667  47.8125 14  C 47.8125 12.4833333333333  47.476318359375 11.0359375  46.803955078125 9.6578125  C 46.131591796875 8.2796875  45.22265625 7.0875  44.0771484375 6.08125  C 42.931640625 5.075  41.574462890625 4.2765625  40.005615234375 3.6859375  C 38.436767578125 3.0953125  36.7890625 2.8  35.0625 2.8  C 33.3359375 2.8  31.688232421875 3.0953125  30.119384765625 3.6859375  C 28.550537109375 4.2765625  27.193359375 5.075  26.0478515625 6.08125  C 24.90234375 7.0875  23.993408203125 8.2796875  23.321044921875 9.6578125  C 22.648681640625 11.0359375  22.3125 12.4833333333333  22.3125 14  C 22.3125 15.5166666666667  22.648681640625 16.9640625  23.321044921875 18.3421875  C 23.993408203125 19.7203125  24.90234375 20.9125  26.0478515625 21.91875  C 27.193359375 22.925  28.550537109375 23.7234375  30.119384765625 24.3140625  Z " fill-rule="nonzero" fill="#000000" stroke="none" transform="matrix(1 0 0 1 1158 209 )" />
  </g>
</svg>