<?xml version="1.0" encoding="utf-8"?>
<svg version="1.1" xmlns:xlink="http://www.w3.org/1999/xlink" width="40px" height="40px" xmlns="http://www.w3.org/2000/svg">
  <g transform="matrix(1 0 0 1 -1311 -597 )">
    <path d="M 1331 597  C 1342.2 597  1351 605.8  1351 617  C 1351 628.2  1342.2 637  1331 637  C 1319.8 637  1311 628.2  1311 617  C 1311 605.8  1319.8 597  1331 597  Z " fill-rule="nonzero" fill="#ffffff" stroke="none" />
    <path d="M 1331 597.5  C 1341.92 597.5  1350.5 606.08  1350.5 617  C 1350.5 627.92  1341.92 636.5  1331 636.5  C 1320.08 636.5  1311.5 627.92  1311.5 617  C 1311.5 606.08  1320.08 597.5  1331 597.5  Z " stroke-width="1" stroke="#333333" fill="none" />
  </g>
</svg>