<?xml version="1.0" encoding="utf-8"?>
<svg version="1.1" xmlns:xlink="http://www.w3.org/1999/xlink" width="30px" height="30px" xmlns="http://www.w3.org/2000/svg">
  <g transform="matrix(1 0 0 1 -113 -1051 )">
    <path d="M 29.62890625 0.371093749999999  C 29.8763020833333 0.618489583333329  30 0.911458333333329  30 1.25  L 30 28.75  C 30 29.0885416666667  29.8763020833333 29.3815104166667  29.62890625 29.62890625  C 29.3815104166667 29.8763020833333  29.0885416666667 30  28.75 30  L 18.75 30  C 18.4114583333333 30  18.1184895833333 29.8763020833333  17.87109375 29.62890625  C 17.6236979166667 29.3815104166667  17.5 29.0885416666667  17 28.75  L 17 1.25  C 17.5 0.911458333333329  17.6236979166667 0.618489583333329  17.87109375 0.371093749999999  C 18.1184895833333 0.123697916666665  18.4114583333333 0  18.75 0  L 28.75 0  C 29.0885416666667 0  29.3815104166667 0.123697916666665  29.62890625 0.371093749999999  Z M 12.12890625 0.371093749999999  C 12.3763020833333 0.618489583333329  12.5 0.911458333333329  13 1.25  L 13 28.75  C 12.5 29.0885416666667  12.3763020833333 29.3815104166667  12.12890625 29.62890625  C 11.8815104166667 29.8763020833333  11.5885416666667 30  11.25 30  L 1.25 30  C 0.911458333333333 30  0.618489583333333 29.8763020833333  0.37109375 29.62890625  C 0.123697916666667 29.3815104166667  0 29.0885416666667  0 28.75  L 0 1.25  C 0 0.911458333333329  0.123697916666667 0.618489583333329  0.37109375 0.371093749999999  C 0.618489583333333 0.123697916666665  0.911458333333333 0  1.25 0  L 11.25 0  C 11.5885416666667 0  11.8815104166667 0.123697916666665  12.12890625 0.371093749999999  Z " fill-rule="nonzero" fill="#000000" stroke="none" transform="matrix(1 0 0 1 113 1051 )" />
  </g>
</svg>