<?xml version="1.0" encoding="utf-8"?>
<svg version="1.1" xmlns:xlink="http://www.w3.org/1999/xlink" width="27px" height="27px" xmlns="http://www.w3.org/2000/svg">
  <g transform="matrix(1 0 0 1 -493 -25 )">
    <path d="M 5.24412131926546 4.91420621777344  C 5.26260857764175 5.2015253203125  5.01852156995006 5.45320210253906  4.72339421109858 5.45320210253906  L 22.2766057889014 5.45320210253906  C 21.9825241472697 5.45320210253906  21.7373808483006 5.20168547460938  21.7558786807345 4.91420621777344  L 20.4273731032539 25.5609330644531  C 20.4430130587548 25.3178683330078  20.6401787864449 25.1379310253906  20.8946372322004 25  L 6.10536276779961 25  C 6.35727957977609 25.1379310253906  6.55717172901901 25.3207433847656  6.57262689674613 25.5609330644531  L 5.24412131926546 4.91420621777344  Z M 3.32819054949259 5.03020008984375  L 4.65669615415593 25.6769269101563  C 4.70430031713112 26.4167539101562  5.34203733791076 27  6.10536276779961 27  L 20.8946372322004 27  C 21.6545298173727 27  22.2958297247503 26.4147372949219  22.3433038458441 25.6769269101563  L 23.6718094505074 5.03020008984375  C 23.7224557889014 4.24308306445313  23.0870261960374 3.59113312792969  22.2766057889014 4  L 4.72339421109858 4  C 3.91185368778189 3.59113312792969  3.27766993093589 4.2450368203125  3.32819054949259 5.03020008984375  Z M 1.02221826574581 5.45320210253906  L 25.9777817342542 5.45320210253906  C 26.5078806107039 5.45320210253906  26.9376111026095 5.03636352539062  26.9376111026095 4.52216761523438  C 26.9376111026095 4.00797123046875  26.5078806107039 3.59113312792969  25.9777817342542 4  L 1.02221826574581 4  C 0.49211938929607 3.59113312792969  0.0623888973904639 4.00797123046875  0.0623888973904639 4.52216761523438  C 0.0623888973904639 5.03636352539062  0.49211938929607 5.45320210253906  1.02221826574581 5.45320210253906  Z M 7.91876981213756 4.07460910253906  C 7.91876981213756 4.83449011523438  8.55737164948454 5.45320210253906  9.3369513087951 5.45320210253906  L 17.6630486912049 5.45320210253906  C 18.447664564876 5.45320210253906  19.0812301878624 4.83170539746094  19.0812301878624 4.07460910253906  L 19.0812301878624 1.378593  C 19.0812301878624 0.618711512695312  18.4426283505155 0  17.6630486912049 0  L 9.3369513087951 0  C 8.55233543512403 0  7.91876981213756 0.621496705078125  7.91876981213756 1.378593  L 7.91876981213756 4.07460910253906  Z M 9.83842854884826 4.07460910253906  L 9.83842854884826 1.378593  C 9.83842854884826 1.64523848730469  9.61738752315561 1.86206897460937  9.3369513087951 1.86206897460937  L 17.6630486912049 1.86206897460937  C 17.3829378533747 1.86206897460937  17.1615714511517 1.64759726953125  17.1615714511517 1.378593  L 17.1615714511517 4.07460910253906  C 17.1615714511517 3.80796316699219  17.3826124768444 3.59113312792969  17.6630486912049 3.59113312792969  L 9.3369513087951 3.59113312792969  C 9.61706214662532 3.59113312792969  9.83842854884826 3.80560483300781  9.83842854884826 4.07460910253906  Z M 15.7751512161727 8.56219206445313  L 15.7751512161727 22.0289410898437  C 15.7751512161727 22.543137  16.2048812187903 22.9599755771484  16.734980584528 22.9599755771484  C 17.2650794609778 22.9599755771484  17.6948099257007 22.543137  17.6948099257007 22.0289410898437  L 17.6948099257007 8.56219206445313  C 17.6948099257007 8.04799612792969  17.2650794609778 7.63115757714844  16.734980584528 7.63115757714844  C 16.2048812187903 7.63115757714844  15.7751512161727 8.04799612792969  15.7751512161727 8.56219206445313  Z M 11.2248487838273 22.0289410898437  L 11.2248487838273 8.56219206445313  C 11.2248487838273 8.04799612792969  10.7951187812097 7.63115757714844  10.265019415472 7.63115757714844  C 9.73492053902223 7.63115757714844  9.30519007429929 8.04799612792969  9.30519007429929 8.56219206445313  L 9.30519007429929 22.0289410898437  C 9.30519007429929 22.543137  9.73492053902223 22.9599755771484  10.265019415472 22.9599755771484  C 10.7951187812097 22.9599755771484  11.2248487838273 22.543137  11.2248487838273 22.0289410898437  Z " fill-rule="nonzero" fill="#000000" stroke="none" transform="matrix(1 0 0 1 493 25 )" />
  </g>
</svg>