<?xml version="1.0" encoding="utf-8"?>
<svg version="1.1" xmlns:xlink="http://www.w3.org/1999/xlink" width="18px" height="9px" xmlns="http://www.w3.org/2000/svg">
  <g transform="matrix(1 0 0 1 -325 -200 )">
    <path d="M 12.2876694717269 5.47705621342555  C 13.1634944778418 5.14286954655627  14.0257228417955 4.66814790679525  14.8742255713121 4.05507715130691  L 16.4719696910512 5.51967592773438  C 16.5903794779472 5.62821823238908  16.7509776129426 5.68919666419542  16.9184343394887 5.68919666419542  C 17.2671449207347 5.68919666419542  17.5498307004291 5.4300680328089  17.5498307004291 5.11041666666667  C 17.5498307004291 4.95691466733276  17.4833087748222 4.80969971025366  17.3648989879262 4.70115740559896  L 15.8339272023077 3.2977665417591  C 16.4874973376146 2.73805072082659  17.1326901567691 2.0946996511456  17.7694444424716 1.36875  C 17.8918569556768 1.22598805174695  17.9584023281985 1.04966902011678  17.9584023281985 0.868086014395165  C 17.9584023281985 0.420633090080988  17.5626944033026 0.0579008255930849  17.0745639404144 0.0579008255930849  C 16.8102491299051 0.0579008255930849  16.5598067957363 0.166337299328063  16.3919191938921 0.353472216796879  C 13.9729797940341 3.11111111653646  11.556060600142 4.44907407226562  9.13585859374999 4.44907407226562  C 6.70631313920454 4.44907407226562  4.18939394531251 3.10185185546876  1.58914140625 0.332638883463545  C 1.42123541209052 0.153780634259675  1.17660887353029 0.0509094540426342  0.91919191228693 0.0509094540426342  C 0.431051529026862 0.0509094540426342  0.0353355620806145 0.413649090410047  0.0353355620806145 0.861111108398442  C 0.0353355620806145 1.05505958660699  0.111234508474085 1.24257337543645  0.249242418323857 1.38958333333333  C 1.0827033672071 2.27720572052301  1.9206924814651 3.04062719044973  2.76328125401499 3.67807845063802  L 1.11489898792613 5.42638888346355  C 1.01574850568917 5.53153539246752  0.961187006397102 5.66587763324435  0.961187006397102 5.80486110839844  C 0.961187006397102 6.12449583814508  1.24385807358606 6.38361098306828  1.59255050603693 6.38361098306828  C 1.77594292846739 6.38361098306828  1.9502729473716 6.31051500170831  2.07020202414773 6.18333333333334  L 3.75378787286933 4.39768518880209  C 3.75963134784748 4.39148833560357  3.76531994819801 4.38519007443692  3.77085163060707 4.37879543054029  C 4.59747986959467 4.90330503465767  5.42852396968913 5.30694946375298  6.26405049218399 5.58807987432313  C 6.2355207530613 5.63358465497837  6.21341560374785 5.68322775835765  6.19898989701704 5.73611111653646  L 5.52550504261363 8.20532407226563  C 5.51298019888966 8.25123903301978  5.50664683619487 8.29838896212426  5.50664683619487 8.34571759440105  C 5.50664683619487 8.66534964439618  5.78931553352802 8.92446261695159  6.13800504261363 8.92446261695159  C 6.42770347586537 8.92446261695159  6.6802292185174 8.74373602399654  6.75050504261365 8.48611111653646  L 7.42398989701703 6.01689814453125  C 7.43421617619916 5.97940951434359  7.44031497274421 5.94109760615392  7.44220906087102 5.90253734210849  C 8.00464324196243 6.01364359808395  8.56910223378323 6.06944444986979  9.13560605468749 6.06944444986979  C 9.79429063437336 6.06944444986979  10.4458952350807 5.99408187646318  11.0903705654734 5.8441921178009  L 12.0345959517046 8.30601852213542  C 12.1269444352268 8.53197936714448  12.3625503932399 8.68169935580858  12.6257838319236 8.68169935580858  C 12.974448451074 8.68169935580858  13.2570969711281 8.42260487909235  13.2570969711281 8.10299564487108  C 13.2570969711281 8.04158295576046  13.2464329113117 7.98056171581563  13.2255050426136 7.92222221679687  L 12.2876694717269 5.47705621342555  Z " fill-rule="nonzero" fill="#aaaaaa" stroke="none" transform="matrix(1 0 0 1 325 200 )" />
  </g>
</svg>