<?xml version="1.0" encoding="utf-8"?>
<svg version="1.1" xmlns:xlink="http://www.w3.org/1999/xlink" width="27px" height="22px" xmlns="http://www.w3.org/2000/svg">
  <g transform="matrix(1 0 0 1 -495 -31 )">
    <path d="M 2.22746341456269 21.3348170424988  C 2.04014634146342 21.6924043440143  1.66551219494332 21.8806081872063  1.27214634149914 21.8806081872063  C 1.21595121944074 21.8806081872063  1.15975609770389 21.8806081872063  1.10356097564548 21.8617878026609  C 0.466682927043635 21.7676858812265  0.0171219512195109 21.1842539680745  0.0920487805235322 20.5443609022556  C 0.672731707388528 15.067629072574  2.60209756108279 11.0212464492775  5.80521951230231 8.49931495412359  C 8.10921951219512 6.67373767777843  11.0313658537657 5.65743692589873  14.4779999998214 5.46923308270677  L 15.1898048780488 5.43159231393915  L 15.1898048780488 1.53577276506696  C 15.1898048780488 -0.00749874697485882  16.5946829269365 -0.346265664268092  17.3439512193336 0.406549707530545  L 26.0916585364782 9.34623224735667  C 27.1968292681498 10.4754553048931  27.1406341464129 11.6423191311971  26.0354634147413 12.7715421887336  L 17.5125365851872 21.4853801169232  C 16.6134146338605 22.3887585631461  15.1898048780488 21.8429674184387  15.1898048780488 20.5631812864779  L 15.1898048780488 16.3850559733024  L 14.3094146339677 16.3850559733024  C 11.1062926827482 16.3850559733024  5.28073170717416 17.0249490391212  2.22746341456269 21.3348170424988  Z " fill-rule="nonzero" fill="#2c2c2c" stroke="none" transform="matrix(1 0 0 1 495 31 )" />
  </g>
</svg>