<?xml version="1.0" encoding="utf-8"?>
<svg version="1.1" xmlns:xlink="http://www.w3.org/1999/xlink" width="12px" height="20px" xmlns="http://www.w3.org/2000/svg">
  <g transform="matrix(1 0 0 1 -1395 -686 )">
    <path d="M 12 2.85359801488834  C 12 3.0686517783292  11.9266409266409 3.25475599669148  11.7799227799228 3.41191066997519  L 5.62934362934363 10  L 11.7799227799228 16.5880893300248  C 11.9266409266409 16.7452440033085  12 16.9313482216708  12 17.1464019851117  C 12 17.3614557485525  11.9266409266409 17.5475599669148  11.7799227799228 17.7047146401985  L 9.85714285714286 19.7642679900744  C 9.71042471042471 19.9214226633581  9.53667953667954 20  9.33590733590734 20  C 9.13513513513514 20  8.96138996138996 19.9214226633581  8.81467181467182 19.7642679900744  L 0.22007722007722 10.5583126550868  C 0.0733590733590735 10.4011579818031  0 10.2150537634409  0 10  C 0 9.78494623655914  0.0733590733590735 9.59884201819686  0.22007722007722 9.44168734491315  L 8.81467181467182 0.235732009925558  C 8.96138996138996 0.0785773366418518  9.13513513513514 0  9.33590733590734 0  C 9.53667953667954 0  9.71042471042471 0.0785773366418518  9.85714285714286 0.235732009925558  L 11.7799227799228 2.29528535980149  C 11.9266409266409 2.45244003308519  12 2.63854425144747  12 2.85359801488834  Z " fill-rule="nonzero" fill="#000000" stroke="none" transform="matrix(1 0 0 1 1395 686 )" />
  </g>
</svg>