<?xml version="1.0" encoding="utf-8"?>
<svg version="1.1" xmlns:xlink="http://www.w3.org/1999/xlink" width="19px" height="10px" xmlns="http://www.w3.org/2000/svg">
  <g transform="matrix(1 0 0 1 -1518 -1667 )">
    <path d="M 18.6474609375 8.10763888888889  C 18.8824869791667 8.32754629629629  19 8.58796296296296  19 8.88888888888889  C 19 9.18981481481481  18.8824869791667 9.45023148148148  18.6474609375 9.67013888888889  C 18.4124348958333 9.8900462962963  18.1341145833333 10  17.8125 10  L 1.1875 10  C 0.865885416666667 10  0.587565104166667 9.8900462962963  0.3525390625 9.67013888888889  C 0.117513020833333 9.45023148148148  0 9.18981481481481  0 8.88888888888889  C 0 8.58796296296296  0.117513020833333 8.32754629629629  0.3525390625 8.10763888888889  L 8.6650390625 0.329861111111112  C 8.90006510416667 0.109953703703702  9.17838541666667 0  9.5 0  C 9.82161458333333 0  10.0999348958333 0.109953703703702  10.3349609375 0.329861111111112  L 18.6474609375 8.10763888888889  Z " fill-rule="nonzero" fill="#000000" stroke="none" transform="matrix(1 0 0 1 1518 1667 )" />
  </g>
</svg>