<?xml version="1.0" encoding="utf-8"?>
<svg version="1.1" xmlns:xlink="http://www.w3.org/1999/xlink" width="34px" height="32px" xmlns="http://www.w3.org/2000/svg">
  <g transform="matrix(1 0 0 1 -30 -2739 )">
    <path d="M 32.4835289453125 14.3744817708333  C 33.55308859375 13.3513938802083  33.4703510546875 12.4696848958333  33.3268896484375 12.0346575520833  C 33.1818703515625 11.5995970052083  32.719210703125 10.8392454427083  31.2413482421875 10.6282727864583  L 25.3599724609375 9.79065755208334  C 23.914419296875 9.58433333333334  22.1449603515625 8.32477278645833  21.4970810546875 7.03898177083333  L 18.86692140625 1.81380598958333  C 18.205630703125 0.500157552083335  17.325219296875 0.303893880208335  16.8585971875 0.303893880208335  C 16.391975078125 0.303893880208335  15.51163140625 0.500124348958335  14.850340703125 1.81377278645833  L 12.2193682421875 7.03894856770834  C 11.5723017578125 8.32400911458334  9.8036217578125 9.58433333333334  8.3572896484375 9.79065755208334  L 2.47588 10.6282727864583  C 0.99723859375 10.8384485677083  0.5346128125 11.5995970052083  0.39033859375 12.0346575520833  C 0.2469110546875 12.4696848958333  0.1641396484375 13.3513938802083  1.2344782421875 14.3736848958333  L 5.490669296875 18.4405696614583  C 6.53736859375 19.4412454427083  7.2128496484375 21.4796848958333  6.9653482421875 22.8922454427083  L 5.96122 28.6351575520833  C 5.76655140625 29.7463333333333  6.080229296875 30.3923333333333  6.3781589453125 30.7392727864583  C 6.9835010546875 31.4424817708333  8.06803 31.5390696614583  9.2108782421875 30.9510091145833  L 14.4704524609375 28.2395091145833  C 15.6984089453125 27.6081848958333  18.018819296875 27.6074212239583  19.2468096484375 28.2395091145833  L 24.5079417578125 30.9510091145833  C 25.015509296875 31.2121848958333  25.49947140625 31.3451302083333  25.947940703125 31.3451302083333  C 26.5083410546875 31.3451302083333  27.0025310546875 31.1303059895833  27.339069296875 30.7392727864583  C 27.6369989453125 30.3930970052083  27.950710703125 29.7463333333333  27.7568210546875 28.6359212239583  L 26.7526589453125 22.8922454427083  C 26.5059703515625 21.4804485677083  27.18063859375 19.4420091145833  28.2273717578125 18.4413333333333  L 32.4835289453125 14.3744817708333  Z " fill-rule="nonzero" fill="#d7d7d7" stroke="none" transform="matrix(1 0 0 1 30 2739 )" />
  </g>
</svg>