<?xml version="1.0" encoding="utf-8"?>
<svg version="1.1" xmlns:xlink="http://www.w3.org/1999/xlink" width="14px" height="13px" xmlns="http://www.w3.org/2000/svg">
  <g transform="matrix(1 0 0 1 -38 -3023 )">
    <path d="M 13.3755707421875 5.83963321940104  C 13.81597765625 5.42400376383464  13.7819092578125 5.06580948893229  13.7228369140625 4.88907963053385  C 13.6631230859375 4.71233628336589  13.472616171875 4.40344346110026  12.8640845703125 4.3177358194987  L 10.4423416015625 3.97745463053385  C 9.847113828125 3.89363541666667  9.1185130859375 3.3819389444987  8.8517392578125 2.85958634440104  L 7.76873234375 0.73685868326823  C 7.496436171875 0.203189005533855  7.133913828125 0.123456888834636  6.9417753125 0.123456888834636  C 6.749636796875 0.123456888834636  6.38714234375 0.203175516764324  6.114846171875 0.736845194498699  L 5.0315045703125 2.85957285563151  C 4.7650654296875 3.38162870279948  4.0367854296875 3.89363541666667  3.4412369140625 3.97745463053385  L 1.01948 4.3177358194987  C 0.41062765625 4.40311973063151  0.2201346875 4.71233628336589  0.16072765625 4.88907963053385  C 0.1016692578125 5.06580948893229  0.0675869140625 5.42400376383464  0.5083145703125 5.83930948893229  L 2.260863828125 7.49148142496745  C 2.69185765625 7.89800596110026  2.9699969140625 8.72612198893229  2.8680845703125 9.29997471110026  L 2.45462 11.6330327555339  C 2.37446234375 12.0844479166667  2.503623828125 12.3468854166667  2.6263007421875 12.4878295694987  C 2.8755592578125 12.773508219401  3.32213 12.8127470499674  3.7927145703125 12.5738474527995  L 5.9584216015625 11.4723005777995  C 6.4640507421875 11.2158251139323  7.419513828125 11.2155148722331  7.9251569140625 11.4723005777995  L 10.0915054296875 12.5738474527995  C 10.300503828125 12.6799501139323  10.49978234375 12.7339591471354  10.684446171875 12.7339591471354  C 10.9151992578125 12.7339591471354  11.1186892578125 12.6466868082682  11.257263828125 12.4878295694987  C 11.3799407421875 12.3471956583659  11.509116171875 12.0844479166667  11.4292792578125 11.6333429972331  L 11.0158007421875 9.29997471110026  C 10.9142230859375 8.72643223063151  11.19202765625 7.89831620279948  11.6230354296875 7.49179166666667  L 13.3755707421875 5.83963321940104  Z " fill-rule="nonzero" fill="#ffd700" stroke="none" transform="matrix(1 0 0 1 38 3023 )" />
  </g>
</svg>