<?xml version="1.0" encoding="utf-8"?>
<svg version="1.1" xmlns:xlink="http://www.w3.org/1999/xlink" width="18px" height="14px" xmlns="http://www.w3.org/2000/svg">
  <g transform="matrix(1 0 0 1 -5115 -635 )">
    <path d="M 17.6748387096774 1.93265993265993  C 17.8916129032258 2.15263748597082  18 2.41975308641975  18 2.73400673400673  C 18 3.04826038159371  17.8916129032258 3.31537598204265  17.6748387096774 3.53535353535353  L 9.26709677419355 12.0673400673401  L 7.68774193548387 13.6700336700337  C 7.47096774193548 13.8900112233446  7.20774193548387 14  6.89806451612903 14  C 6.58838709677419 14  6.32516129032258 13.8900112233446  6.10838709677419 13.6700336700337  L 4.52903225806452 12.0673400673401  L 0.325161290322581 7.8013468013468  C 0.108387096774194 7.58136924803591  0 7.31425364758698  0 7  C 0 6.68574635241302  0.108387096774194 6.41863075196409  0.325161290322581 6.1986531986532  L 1.90451612903226 4.5959595959596  C 2.12129032258065 4.37598204264871  2.38451612903226 4.26599326599326  2.6941935483871 4.26599326599327  C 3.00387096774194 4.26599326599326  3.26709677419355 4.37598204264871  3.48387096774194 4.5959595959596  L 6.89806451612903 8.07239057239057  L 14.5161290322581 0.32996632996633  C 14.7329032258065 0.109988776655443  14.9961290322581 0  15.3058064516129 0  C 15.6154838709677 0  15.8787096774194 0.109988776655443  16.0954838709677 0.32996632996633  L 17.6748387096774 1.93265993265993  Z " fill-rule="nonzero" fill="#f2f2f2" stroke="none" transform="matrix(1 0 0 1 5115 635 )" />
  </g>
</svg>