<?xml version="1.0" encoding="utf-8"?>
<svg version="1.1" xmlns:xlink="http://www.w3.org/1999/xlink" width="34px" height="34px" xmlns="http://www.w3.org/2000/svg">
  <g transform="matrix(1 0 0 1 -5107 -723 )">
    <path d="M 5124 724  C 5132.96 724  5140 731.04  5140 740  C 5140 748.96  5132.96 756  5124 756  C 5115.04 756  5108 748.96  5108 740  C 5108 731.04  5115.04 724  5124 724  Z " fill-rule="nonzero" fill="#41a28e" stroke="none" fill-opacity="0" />
    <path d="M 5124 724  C 5132.96 724  5140 731.04  5140 740  C 5140 748.96  5132.96 756  5124 756  C 5115.04 756  5108 748.96  5108 740  C 5108 731.04  5115.04 724  5124 724  Z " stroke-width="2" stroke="#41a28e" fill="none" />
  </g>
</svg>