<?xml version="1.0" encoding="utf-8"?>
<svg version="1.1" xmlns:xlink="http://www.w3.org/1999/xlink" width="26px" height="26px" xmlns="http://www.w3.org/2000/svg">
  <g transform="matrix(1 0 0 1 -5443 -488 )">
    <path d="M 9.80823289225322 16.1471301863902  C 9.62538414646624 16.1471301863902  9.4499896469926 16.223744938674  9.32047297297298 16.3601904904576  L 6.95382884232475 18.8438095095424  C 3.37812226258499 13.4832432055387  3.77195117520327 6.22390206681381  7.90394142794553 1.33064285714286  C 7.9519303581749 1.26623569735875  7.97802465479323 1.18663269691782  7.97802465479323 1.1046453058128  C 7.97802465479323 0.902929883635065  7.82334105863746 0.739407224841822  7.63252917279365 0.739407224841822  C 7.58944571896334 0.739407224841822  7.54674232688265 0.747925877965997  7.50662162162162 0.764523795256694  C 3.27787346748773 3.02326826025809  0.611497413426334 7.60560289393972  0.611497413426334 12.6142275962729  C 0.611497413426334 16.0560699528498  1.87589125725987 19.3634006700749  4.13804054054054 21.838761919029  L 2.06506756756757 23.9571428571429  C 1.93841845158859 24.0936963882959  1.86747605197449 24.2773091505896  1.86747605197449 24.4685482251765  C 1.86747605197449 24.8679778305135  2.17095973360587 25.1933419078943  2.54876127475718 25.1989523666853  L 9.80416668016258 25.1989523666853  C 10.1857904425881 25.1989523430467  10.495157621801 24.8719070393074  10.4951576441617 24.4684762047433  L 10.4951576441617 16.7984762047433  C 10.4569558594791 16.4278654749382  10.1608858552048 16.1471301863902  9.80823289225322 16.1471301863902  Z M 16.1917671077468 9.85286981360976  C 16.3746158535338 9.85286981360976  16.5500103530074 9.77625506132602  16.679527027027 9.63980950954241  L 19.0461711576753 7.15619049045759  C 22.6457374759117 12.4959548717625  22.2877621333056 19.754263025942  18.1824324324324 24.6693571428571  C 18.1344435022031 24.7337643026412  18.1083492055847 24.8133673030822  18.1083492055847 24.8953546941872  C 18.1083492055847 25.0970701163649  18.2630328017405 25.2605927751582  18.4538446875843 25.2605927751582  C 18.4969281414146 25.2605927751582  18.5396315334953 25.252074122034  18.5797522387563 25.2354762047433  C 22.7766062367336 22.9649076567877  25.4170191298375 18.4008051410338  25.4170191298375 13.4168749928012  C 25.4170191298375 9.96004621504504  24.1416191162758 6.63952826671617  21.8619594594595 4.16123808097098  L 23.9349324324324 2.04285714285714  C 24.0615815484114 1.90630361170406  24.1325239480255 1.72269084941038  24.1325239480255 1.53145177482348  C 24.1325239480255 1.13202216948653  23.8290402663941 0.806658092105699  23.4512387252428 0.801047633314733  L 16.1958333198374 0.80104763331473  C 15.8142095574119 0.801047656953253  15.504842378199 1.12809296069262  15.5048423558383 1.5315237952567  L 15.5048423558383 9.20152379525669  C 15.5430441405209 9.57213452506177  15.8391141447952 9.85286981360976  16.1917671077468 9.85286981360976  Z " fill-rule="nonzero" fill="#000000" stroke="none" transform="matrix(1 0 0 1 5443 488 )" />
  </g>
</svg>