<?xml version="1.0" encoding="utf-8"?>
<svg version="1.1" xmlns:xlink="http://www.w3.org/1999/xlink" width="23px" height="35px" xmlns="http://www.w3.org/2000/svg">
  <g transform="matrix(1 0 0 1 -5516 -483 )">
    <path d="M 15.68896484375 8.15755208333333  C 16.25048828125 8.73480902777778  16.53125 9.41840277777778  16.53125 10.2083333333333  C 16.53125 10.4058159722222  16.4601236979167 10.5767144097222  16.31787109375 10.7210286458333  C 16.1756184895833 10.8653428819444  16.0071614583333 10.9375  15.8125 10.9375  C 15.6178385416667 10.9375  15.4493815104167 10.8653428819444  15.30712890625 10.7210286458333  C 15.1648763020833 10.5767144097222  15.09375 10.4058159722222  15.09375 10.2083333333333  C 15.09375 9.50954861111111  14.689453125 8.97026909722222  13.880859375 8.59049479166667  C 13.072265625 8.21072048611111  12.2786458333333 8.02083333333333  11.5 8.02083333333333  C 11.3053385416667 8.02083333333333  11.1368815104167 7.94867621527778  10.99462890625 7.80436197916667  C 10.8523763020833 7.66004774305555  10.78125 7.48914930555555  10.78125 7.29166666666667  C 10.78125 7.09418402777778  10.8523763020833 6.92328559027778  10.99462890625 6.77897135416667  C 11.1368815104167 6.63465711805555  11.3053385416667 6.5625  11.5 6.5625  C 12.2486979166667 6.5625  12.99365234375 6.68402777777778  13.73486328125 6.92708333333333  C 14.47607421875 7.17013888888889  15.12744140625 7.58029513888889  15.68896484375 8.15755208333333  Z M 18.59765625 14.3098958333333  C 19.6158854166667 13.1098090277778  20.125 11.7426215277778  20.125 10.2083333333333  C 20.125 9.11458333333333  19.86669921875 8.09678819444444  19.35009765625 7.15494791666667  C 18.83349609375 6.21310763888889  18.15966796875 5.44216579861111  17.32861328125 4.84212239583333  C 16.49755859375 4.24207899305555  15.57666015625 3.77115885416667  14.56591796875 3.42936197916667  C 13.55517578125 3.08756510416667  12.533203125 2.91666666666667  11.5 2.91666666666667  C 10.466796875 2.91666666666667  9.44482421875 3.08756510416667  8.43408203125 3.42936197916667  C 7.42333984375 3.77115885416667  6.50244140625 4.24207899305555  5.67138671875 4.84212239583333  C 4.84033203125 5.44216579861111  4.16650390625 6.21310763888889  3.64990234375 7.15494791666667  C 3.13330078125 8.09678819444444  2.875 9.11458333333333  2.875 10.2083333333333  C 2.875 11.7426215277778  3.38411458333333 13.1098090277778  4.40234375 14.3098958333333  C 4.55208333333333 14.4769965277778  4.78043619791667 14.7276475694444  5.08740234375 15.0618489583333  C 5.39436848958333 15.3960503472222  5.62272135416667 15.6467013888889  5.7724609375 15.8138020833333  C 7.68912760416667 18.1380208333333  8.74479166666667 20.4014756944444  8.939453125 22.6041666666667  L 14.060546875 22.6041666666667  C 14.2552083333333 20.4014756944444  15.3108723958333 18.1380208333333  17.2275390625 15.8138020833333  C 17.3772786458333 15.6467013888889  17.6056315104167 15.3960503472222  17.91259765625 15.0618489583333  C 18.2195638020833 14.7276475694444  18.4479166666667 14.4769965277778  18.59765625 14.3098958333333  Z M 22.00048828125 6.00423177083333  C 22.6668294270833 7.30305989583333  23 8.70442708333333  23 10.2083333333333  C 23 12.5629340277778  22.2288411458333 14.5985243055556  20.6865234375 16.3151041666667  C 20.0126953125 17.0594618055556  19.4549153645833 17.7202690972222  19.01318359375 18.2975260416667  C 18.5714518229167 18.8747829861111  18.1259765625 19.6001519097222  17.6767578125 20.4736328125  C 17.2275390625 21.3471137152778  16.9729817708333 22.1636284722222  16.9130859375 22.9231770833333  C 17.6168619791667 23.3485243055556  17.96875 23.9713541666667  17.96875 24.7916666666667  C 17.96875 25.3537326388889  17.7815755208333 25.83984375  17.4072265625 26.25  C 17.7815755208333 26.66015625  17.96875 27.1462673611111  17.96875 27.7083333333333  C 17.96875 28.4982638888889  17.6318359375 29.1134982638889  16.9580078125 29.5540364583333  C 17.1526692708333 29.9034288194444  17.25 30.2604166666667  17.25 30.625  C 17.25 31.3237847222222  17.01416015625 31.8630642361111  16.54248046875 32.2428385416667  C 16.07080078125 32.6226128472222  15.4905598958333 32.8125  14.8017578125 32.8125  C 14.5022786458333 33.4809027777778  14.0530598958333 34.0125868055556  13.4541015625 34.4075520833333  C 12.8551432291667 34.8025173611111  12.2037760416667 35  11.5 35  C 10.7962239583333 35  10.1448567708333 34.8025173611111  9.5458984375 34.4075520833333  C 8.94694010416667 34.0125868055556  8.49772135416667 33.4809027777778  8.1982421875 32.8125  C 7.50944010416667 32.8125  6.92919921875 32.6226128472222  6.45751953125 32.2428385416667  C 5.98583984375 31.8630642361111  5.75 31.3237847222222  5.75 30.625  C 5.75 30.2604166666667  5.84733072916667 29.9034288194444  6.0419921875 29.5540364583333  C 5.3681640625 29.1134982638889  5.03125 28.4982638888889  5.03125 27.7083333333333  C 5.03125 27.1462673611111  5.21842447916667 26.66015625  5.5927734375 26.25  C 5.21842447916667 25.83984375  5.03125 25.3537326388889  5.03125 24.7916666666667  C 5.03125 23.9713541666667  5.38313802083333 23.3485243055556  6.0869140625 22.9231770833333  C 6.02701822916667 22.1636284722222  5.7724609375 21.3471137152778  5.3232421875 20.4736328125  C 4.8740234375 19.6001519097222  4.42854817708333 18.8747829861111  3.98681640625 18.2975260416667  C 3.54508463541667 17.7202690972222  2.9873046875 17.0594618055556  2.3134765625 16.3151041666667  C 0.771158854166667 14.5985243055556  0 12.5629340277778  0 10.2083333333333  C 0 8.70442708333333  0.333170572916667 7.30305989583333  0.99951171875 6.00423177083333  C 1.66585286458333 4.70540364583333  2.54182942708333 3.62684461805555  3.62744140625 2.7685546875  C 4.71305338541667 1.91026475694444  5.94091796875 1.23426649305555  7.31103515625 0.740559895833332  C 8.68115234375 0.246853298611109  10.0774739583333 0  11.5 0  C 12.9225260416667 0  14.31884765625 0.246853298611109  15.68896484375 0.740559895833332  C 17.05908203125 1.23426649305555  18.2869466145833 1.91026475694444  19.37255859375 2.7685546875  C 20.4581705729167 3.62684461805555  21.3341471354167 4.70540364583333  22.00048828125 6.00423177083333  Z " fill-rule="nonzero" fill="#000000" stroke="none" transform="matrix(1 0 0 1 5516 483 )" />
  </g>
</svg>