<?xml version="1.0" encoding="utf-8"?>
<svg version="1.1" xmlns:xlink="http://www.w3.org/1999/xlink" width="100px" height="60px" xmlns="http://www.w3.org/2000/svg">
  <defs>
    <mask fill="white" id="clip55">
      <path d="M 0 60  L 0 0  L 100 0  L 100 60  L 80.5769230769231 60  L 68.8181818181818 60  L 0 60  Z " fill-rule="evenodd" />
    </mask>
  </defs>
  <g transform="matrix(1 0 0 1 -155 -321 )">
    <path d="M 0 60  L 0 0  L 100 0  L 100 60  L 80.5769230769231 60  L 68.8181818181818 60  L 0 60  Z " fill-rule="nonzero" fill="#ffffff" stroke="none" transform="matrix(1 0 0 1 155 321 )" />
    <path d="M 0 60  L 0 0  L 100 0  L 100 60  L 80.5769230769231 60  L 68.8181818181818 60  L 0 60  Z " stroke-width="2" stroke="#797979" fill="none" transform="matrix(1 0 0 1 155 321 )" mask="url(#clip55)" />
  </g>
</svg>