<?xml version="1.0" encoding="utf-8"?>
<svg version="1.1" xmlns:xlink="http://www.w3.org/1999/xlink" width="38px" height="38px" xmlns="http://www.w3.org/2000/svg">
  <g transform="matrix(1 0 0 1 -2472 -1058 )">
    <path d="M 0.15077892485119 19  C 0.15077892485119 8.59006928943453  8.59006928943452 0.15077892485119  19 0.15077892485119  C 29.4099307105655 0.15077892485119  37.8492210751488 8.59006928943452  37.8492210751488 19  C 37.8492210751488 29.4099307105655  29.4099307105655 37.8492210751488  19 37.8492210751488  C 8.59006928943453 37.8492210751488  0.15077892485119 29.4099307105655  0.15077892485119 19  Z M 26.2285076819495 9.88655695718737  C 26.0107257595961 9.88655695718737  25.7945911343544 9.92429803751061  25.589697265625 9.99810500372024  L 16.0029761904762 13.449365234375  C 14.8136808730978 13.8776352384284  13.8774089274778 14.8140853580428  13.449365234375 16.0034621465774  L 9.99810500372024 25.589697265625  C 9.92429803751061 25.7945911343544  9.88655695718736 26.0107257595961  9.88655695718736 26.2285076819495  C 9.88655695718736 27.269528736171  10.730471263829 28.1134430428126  11.7714923180505 28.1134430428126  C 11.9892742404039 28.1134430428126  12.2054088656456 28.0757019624894  12.410302734375 28.0018949962798  L 21.9970238095238 24.550634765625  C 23.1863191269021 24.1223647615716  24.1225910725221 23.1859146419572  24.550634765625 21.9965378534226  L 28.0018949962798 12.410302734375  C 28.0757019624894 12.2054088656456  28.1134430428126 11.9892742404039  28.1134430428126 11.7714923180505  C 28.1134430428126 10.730471263829  27.269528736171 9.88655695718737  26.2285076819495 9.88655695718737  Z M 19 21.3561360677083  C 20.3012580187216 21.3561360677083  21.3561360677083 20.3012580187216  21.3561360677083 19  C 21.3561360677083 17.6987419812784  20.3012580187216 16.6438639322917  19 16.6438639322917  C 17.6987419812784 16.6438639322917  16.6438639322917 17.6987419812784  16.6438639322917 19  C 16.6438639322917 20.3012580187216  17.6987419812784 21.3561360677083  19 21.3561360677083  Z " fill-rule="nonzero" fill="#999999" stroke="none" transform="matrix(1 0 0 1 2472 1058 )" />
  </g>
</svg>