<?xml version="1.0" encoding="utf-8"?>
<svg version="1.1" xmlns:xlink="http://www.w3.org/1999/xlink" width="44px" height="44px" xmlns="http://www.w3.org/2000/svg">
  <g transform="matrix(1 0 0 1 -2676 -607 )">
    <path d="M 26.5514450187002 15.1733688110871  C 27.1797758967558 14.5452276603121  28.1983003108572 14.5452276603121  28.8266311889129 15.1733688110871  C 29.4547723396878 15.8016996891427  29.4547723396878 16.8202241032442  28.8266311889129 17.4485549812999  L 24.2751861702127 22  L 28.8266311889129 26.5514450187001  C 29.1163697220469 26.8514334618879  29.2783084110802 27.2522029326259  29.2783084110802 27.6692658578888  C 29.2783084110802 28.5579155218452  28.5579155218452 29.2783084110802  27.6692658578887 29.2783084110802  C 27.252202932626 29.2783084110802  26.8514334618878 29.1163697220468  26.5514450187002 28.8266311889129  L 22 24.2751861702128  L 17.4485549812998 28.8266311889129  C 17.1485665381122 29.1163697220468  16.747797067374 29.2783084110802  16.3307341421113 29.2783084110802  C 15.4420844781548 29.2783084110802  14.7216915889198 28.5579155218452  14.7216915889198 27.6692658578887  C 14.7216915889198 27.2522029326259  14.8836302779531 26.8514334618879  15.1733688110871 26.5514450187001  L 19.7248138297873 22  L 15.1733688110871 17.4485549812999  C 14.8836302779533 17.1485665381121  14.7216915889198 16.7477970673741  14.7216915889198 16.3307341421114  C 14.7216915889198 15.4420844781549  15.4420844781548 14.7216915889199  16.3307341421113 14.7216915889199  C 16.7477970673742 14.7216915889199  17.1485665381122 14.8836302779532  17.4485549812998 15.1733688110871  L 22 19.7248138297872  L 26.5514450187002 15.1733688110871  Z M 43.9902482101894 22  C 43.9902482101894 9.85494680851066  34.1450531914893 0.00975178981050878  22 0.00975178981050878  C 9.85494680851066 0.00975178981050878  0.00975178981056199 9.85494680851066  0.00975178981056199 22  C 0.00975178981056199 34.1450531914893  9.85494680851066 43.9902482101895  22 43.9902482101895  C 34.1450531914893 43.9902482101895  43.9902482101894 34.1450531914893  43.9902482101894 22  Z M 3.22783689619354 22  C 3.22783689619354 11.6324024655087  11.6324024655087 3.22783689619349  22 3.22783689619349  C 32.3675975344913 3.22783689619349  40.7721631038065 11.6324025157913  40.7721631038065 22  C 40.7721631038065 32.3675974842088  32.3675975344913 40.7721631038065  22 40.7721631038065  C 11.6324024655087 40.7721631038065  3.22783689619354 32.3675975344913  3.22783689619354 22  Z " fill-rule="nonzero" fill="#262626" stroke="none" transform="matrix(1 0 0 1 2676 607 )" />
  </g>
</svg>