<?xml version="1.0" encoding="utf-8"?>
<svg version="1.1" xmlns:xlink="http://www.w3.org/1999/xlink" width="19px" height="19px" xmlns="http://www.w3.org/2000/svg">
  <g transform="matrix(1 0 0 1 -3676 -710 )">
    <path d="M 3685.5 710  C 3690.82 710  3695 714.18  3695 719.5  C 3695 724.82  3690.82 729  3685.5 729  C 3680.18 729  3676 724.82  3676 719.5  C 3676 714.18  3680.18 710  3685.5 710  Z " fill-rule="nonzero" fill="#ffffff" stroke="none" />
    <path d="M 3685.5 710.5  C 3690.54 710.5  3694.5 714.46  3694.5 719.5  C 3694.5 724.54  3690.54 728.5  3685.5 728.5  C 3680.46 728.5  3676.5 724.54  3676.5 719.5  C 3676.5 714.46  3680.46 710.5  3685.5 710.5  Z " stroke-width="1" stroke="#41a28e" fill="none" />
  </g>
</svg>