<?xml version="1.0" encoding="utf-8"?>
<svg version="1.1" xmlns:xlink="http://www.w3.org/1999/xlink" width="22px" height="22px" xmlns="http://www.w3.org/2000/svg">
  <g transform="matrix(1 0 0 1 -497 -103 )">
    <path d="M 10.0833333261719 0.916666673828125  C 10.0833333261719 0.410405657584904  9.67292769007135 0  9.16666667382813 0  L 0.916666673828125 0  C 0.410405649194733 0  0 0.410405649194733  0 0.916666673828125  L 0 9.16666667382813  C 0 9.67292769007135  0.410405657584904 10.0833333261719  0.916666673828125 10.0833333261719  L 9.16666667382813 10.0833333261719  C 9.67292768168118 10.0833333143064  10.0833333143064 9.67292768168118  10.0833333261719 9.16666667382813  L 10.0833333261719 0.916666673828125  Z M 8.25 1.83333332617187  L 8.25 8.25  L 1.83333332617187 8.25  L 1.83333332617187 1.83333332617187  L 8.25 1.83333332617187  Z M 10.0833333261719 12.8333333261719  C 10.0833333143064 12.3270723183188  9.67292768168118 11.9166666856936  9.16666667382813 11.9166666738281  L 0.916666673828125 11.9166666738281  C 0.410405657584902 11.9166666738281  0 12.3270723099287  0 12.8333333261719  L 0 21.0833333261719  C 0 21.5895943508053  0.410405649194733 22  0.916666673828125 22  L 9.16666667382813 22  C 9.67292769007135 21.9999999881345  10.0833333261719 21.5895943424151  10.0833333261719 21.0833333261719  L 10.0833333261719 12.8333333261719  Z M 8.25 13.75  L 8.25 20.1666666738281  L 1.83333332617187 20.1666666738281  L 1.83333332617187 13.75  L 8.25 13.75  Z M 22 0.916666673828125  C 22 0.410405649194733  21.5895943508053 0  21.0833333261719 0  L 12.8333333261719 0  C 12.3270723099287 0  11.9166666738281 0.410405657584904  11.9166666738281 0.916666673828125  L 11.9166666738281 9.16666667382813  C 11.9166666856936 9.67292768168118  12.3270723183188 10.0833333143064  12.8333333261719 10.0833333261719  L 21.0833333261719 10.0833333261719  C 21.5895943424151 10.0833333261719  21.9999999881345 9.67292769007135  22 9.16666667382813  L 22 0.916666673828125  Z M 20.1666666738281 1.83333332617187  L 20.1666666738281 8.25  L 13.75 8.25  L 13.75 1.83333332617187  L 20.1666666738281 1.83333332617187  Z M 3.66666667382812 6.41666667382812  L 3.66666667382812 3.66666667382812  L 6.41666667382812 3.66666667382812  L 6.41666667382812 6.41666667382812  L 3.66666667382812 6.41666667382812  Z M 3.66666667382812 18.3333333261719  L 3.66666667382812 15.5833333261719  L 6.41666667382812 15.5833333261719  L 6.41666667382812 18.3333333261719  L 3.66666667382812 18.3333333261719  Z M 19.25 14.6666666738281  L 19.25 11.9166666738281  L 22 11.9166666738281  L 22 14.6666666738281  L 19.25 14.6666666738281  Z M 19.25 17.4166666738281  L 19.25 19.25  L 17.4166666738281 19.25  L 17.4166666738281 22  L 22 22  L 22 17.4166666738281  L 19.25 17.4166666738281  Z M 11.9166666738281 22  L 11.9166666738281 19.25  L 14.6666666738281 19.25  L 14.6666666738281 22  L 11.9166666738281 22  Z M 15.5833333261719 6.41666667382812  L 15.5833333261719 3.66666667382812  L 18.3333333261719 3.66666667382812  L 18.3333333261719 6.41666667382812  L 15.5833333261719 6.41666667382812  Z M 11.9166666738281 14.6666666738281  L 11.9166666738281 11.9166666738281  L 14.6666666738281 11.9166666738281  L 14.6666666738281 14.6666666738281  L 11.9166666738281 14.6666666738281  Z M 14.6666666738281 19.25  L 14.6666666738281 14.6666666738281  L 17.4166666738281 14.6666666738281  L 17.4166666738281 19.25  L 14.6666666738281 19.25  Z " fill-rule="nonzero" fill="#000000" stroke="none" transform="matrix(1 0 0 1 497 103 )" />
  </g>
</svg>