<?xml version="1.0" encoding="utf-8"?>
<svg version="1.1" xmlns:xlink="http://www.w3.org/1999/xlink" width="40px" height="31px" xmlns="http://www.w3.org/2000/svg">
  <g transform="matrix(1 0 0 1 -2993 -166 )">
    <path d="M 15.8196225863197 30.9928334705104  L 15.6705329211169 30.9928334705104  C 15.0405089600202 30.9928334705104  14.4345317023429 30.7559506994978  13.9776441098684 30.3256942411963  L 0.939514586693426 18.1044768778421  C -0.0367820791471827 17.1907861849836  -0.0704475094353421 15.6728026989288  0.862565096750343 14.7156029550161  C 1.79557770293603 13.7584032111034  3.34899554334976 13.7293971335079  4.32529224169101 14.6430877936969  L 15.4589218400237 25.0804328223882  L 35.6533540904087 1.05858592678853  C 36.5142265213346 0.0385397140884942  38.058025699881 -0.111324922146286  39.1016531937973 0.729850674732189  C 40.1452806877135 1.57102623894109  40.2943703204157 3.07934103246408  39.4383072366737 4.10422159143003  L 17.5654141840918 30.1226518613756  C 17.1325732950367 30.6399264871245  16.497739986756 30.9541587330527  15.8196225863197 30.9928334705104  Z " fill-rule="nonzero" fill="#212121" stroke="none" transform="matrix(1 0 0 1 2993 166 )" />
  </g>
</svg>