<?xml version="1.0" encoding="utf-8"?>
<svg version="1.1" xmlns:xlink="http://www.w3.org/1999/xlink" width="190px" height="190px" xmlns="http://www.w3.org/2000/svg">
  <g transform="matrix(1 0 0 1 1363 -307 )">
    <path d="M 87 7.91666672851562  C 87.0833332714844 3.54441249732417  83.5389209597071 0  79.1666667285156 0  L 7.91666672851562 0  C 3.54441242486361 0  0 3.54441242486361  0 7.91666672851562  L 0 79.1666667285156  C 0 83.5389209597071  3.54441249732417 87.0833332714844  7.91666672851562 87  L 79.1666667285156 87  C 83.5389208872465 87.0833331690097  87.0833331690097 83.5389208872465  87 79.1666667285156  L 87 7.91666672851562  Z M 72 16  L 72 72  L 16 72  L 16 16  L 72 16  Z M 87 110.833333271484  C 87.0833331690097 106.461079112753  83.5389208872465 102.91666683099  79.1666667285156 103  L 7.91666672851562 103  C 3.54441249732416 102.916666728516  0 106.461079040293  0 110.833333271484  L 0 182.083333271484  C 0 186.455587575136  3.54441242486361 190  7.91666672851562 190  L 79.1666667285156 190  C 83.5389209597071 189.999999897525  87.0833332714844 186.455587502676  87 182.083333271484  L 87 110.833333271484  Z M 72 118  L 72 174  L 16 174  L 16 118  L 72 118  Z M 190 7.91666672851562  C 190 3.54441242486361  186.455587575136 0  182.083333271484 0  L 110.833333271484 0  C 106.461079040293 0  102.916666728516 3.54441249732417  103 7.91666672851562  L 103 79.1666667285156  C 102.91666683099 83.5389208872465  106.461079112753 87.0833331690097  110.833333271484 87  L 182.083333271484 87  C 186.455587502676 87.0833332714844  189.999999897525 83.5389209597071  190 79.1666667285156  L 190 7.91666672851562  Z M 174 16  L 174 72  L 118 72  L 118 16  L 174 16  Z M 32 56  L 32 32  L 56 32  L 56 56  L 32 56  Z M 32 158  L 32 134  L 56 134  L 56 158  L 32 158  Z M 166 126  L 166 103  L 190 103  L 190 126  L 166 126  Z M 166 150  L 166 166  L 150 166  L 150 190  L 190 190  L 190 150  L 166 150  Z M 103 190  L 103 166  L 126 166  L 126 190  L 103 190  Z M 134 56  L 134 32  L 158 32  L 158 56  L 134 56  Z M 103 126  L 103 103  L 126 103  L 126 126  L 103 126  Z M 126 166  L 126 126  L 150 126  L 150 166  L 126 166  Z " fill-rule="nonzero" fill="#000000" stroke="none" transform="matrix(1 0 0 1 -1363 307 )" />
  </g>
</svg>