<?xml version="1.0" encoding="utf-8"?>
<svg version="1.1" xmlns:xlink="http://www.w3.org/1999/xlink" width="33px" height="35px" xmlns="http://www.w3.org/2000/svg">
  <g transform="matrix(1 0 0 1 1054 -53 )">
    <path d="M 32.8565217391304 33.6469072164948  C 32.8565217391304 26.4123711340206  28.2114130434783 20.2422680412371  21.7728260869565 18.0231958762887  C 24.4630434782609 16.2912371134021  26.2385869565217 13.2603092783505  26.2385869565217 9.83247422680412  C 26.2385869565217 4.45618556701031  21.8804347826087 0.0902061855670103  16.5 0.0902061855670103  C 11.1375 0.0902061855670103  6.76141304347827 4.45618556701031  6.76141304347827 9.83247422680412  C 6.76141304347827 13.2603092783505  8.53695652173911 16.2731958762887  11.2271739130435 18.0231958762887  C 4.78858695652175 20.2422680412371  0.143478260869557 26.4123711340206  0.143478260869557 33.6469072164948  C 0.143478260869557 34.3865979381443  0.753260869565226 35  1.48858695652173 35  C 2.22391304347828 35  2.8336956521739 34.3865979381443  2.8336956521739 33.6469072164948  C 2.8336956521739 26.0335051546392  8.96739130434783 19.8453608247423  16.5 19.8453608247423  C 24.0326086956522 19.8453608247423  30.1663043478261 26.0335051546392  30.1663043478261 33.6469072164948  C 30.1663043478261 34.3865979381443  30.7760869565217 35  31.5114130434783 35  C 32.2467391304348 35  32.8565217391304 34.3865979381443  32.8565217391304 33.6469072164948  Z M 23.5483695652174 9.83247422680412  C 23.5483695652174 13.7113402061856  20.391847826087 16.8685567010309  16.5 16.8685567010309  C 12.608152173913 16.8685567010309  9.45163043478262 13.7113402061856  9.45163043478262 9.83247422680412  C 9.45163043478262 5.95360824742268  12.608152173913 2.79639175257732  16.5 2.79639175257732  C 20.391847826087 2.79639175257732  23.5483695652174 5.95360824742268  23.5483695652174 9.83247422680412  Z M 23.3690217391304 24.0309278350516  C 22.8489130434783 23.5077319587629  21.9880434782609 23.5077319587629  21.4679347826087 24.0309278350516  L 15.3880434782609 30.110824742268  L 12.7516304347826 27.4768041237113  C 12.2315217391304 26.9536082474227  11.3706521739131 26.9536082474227  10.8505434782609 27.4768041237113  C 10.3304347826087 28  10.3304347826087 28.8659793814433  10.8505434782609 29.389175257732  L 15.3880434782609 33.9355670103093  L 23.3690217391304 25.9432989690722  C 23.8891304347826 25.4201030927835  23.8891304347826 24.5541237113402  23.3690217391304 24.0309278350516  Z " fill-rule="nonzero" fill="#000000" stroke="none" transform="matrix(1 0 0 1 -1054 53 )" />
  </g>
</svg>