<?xml version="1.0" encoding="utf-8"?>
<svg version="1.1" xmlns:xlink="http://www.w3.org/1999/xlink" width="88px" height="88px" xmlns="http://www.w3.org/2000/svg">
  <g transform="matrix(1 0 0 1 720 -138 )">
    <path d="M -676 138  C -651.36 138  -632 157.36  -632 182  C -632 206.64  -651.36 226  -676 226  C -700.64 226  -720 206.64  -720 182  C -720 157.36  -700.64 138  -676 138  Z " fill-rule="nonzero" fill="#ffffff" stroke="none" />
    <path d="M -676 138.5  C -651.64 138.5  -632.5 157.64  -632.5 182  C -632.5 206.36  -651.64 225.5  -676 225.5  C -700.36 225.5  -719.5 206.36  -719.5 182  C -719.5 157.64  -700.36 138.5  -676 138.5  Z " stroke-width="1" stroke="#797979" fill="none" />
  </g>
</svg>