<?xml version="1.0" encoding="utf-8"?>
<svg version="1.1" xmlns:xlink="http://www.w3.org/1999/xlink" width="38px" height="38px" xmlns="http://www.w3.org/2000/svg">
  <g transform="matrix(1 0 0 1 -2534 -902 )">
    <path d="M 38 13.8830021911217  C 37.9997332765777 13.5424337296695  37.833307117936 13.2231200078859  37.5535 13.0263245033113  L 19.6090555390625 0.443543046357616  C 19.2438755623522 0.187648738199667  18.7561244376477 0.187648738199668  18.3909444609375 0.443543046357616  L 0.446499999999994 13.0263245033113  C 0.166692882063966 13.2231200078859  0.000266723422256234 13.5424337296695  0 13.8830021911217  L 0 36.951434894971  C 0 37.5305414116833  0.472588312238859 38  1.0555555390625 38  L 12.6666666666667 38  C 13.2496338934903 38  13.7222222057292 37.5305414116833  14 36.951434894971  L 14 24  L 24 24  L 24 36.951434894971  C 24.2777777942708 37.5305414116833  24.7503661065097 38  25.3333333333333 38  L 36.9444444609375 38  C 37.5274116877611 38  38 37.5305414116833  38 36.951434894971  L 38 13.8830021911217  Z " fill-rule="nonzero" fill="#000000" stroke="none" transform="matrix(1 0 0 1 2534 902 )" />
  </g>
</svg>