<?xml version="1.0" encoding="utf-8"?>
<svg version="1.1" xmlns:xlink="http://www.w3.org/1999/xlink" width="25px" height="19px" xmlns="http://www.w3.org/2000/svg">
  <g transform="matrix(1 0 0 1 -3680 -285 )">
    <path d="M 25 5.6140625  C 18.1015625 -1.7046875  6.909375 -1.7046875  0 5.6140625  L 2.2734375 8.025  C 7.9203125 2.0328125  17.0796875 2.0328125  22.7265625 8.025  L 25 5.6140625  Z M 15.909375 15.2578125  C 14.034375 13.2578125  10.9765625 13.2578125  9.090625 15.2578125  L 12.5 18.875  L 15.909375 15.2578125  Z M 4.5453125 10.4375  L 4.546875 10.4375  L 6.8203125 12.8484375  C 9.95625 9.5203125  15.046875 9.5203125  18.1828125 12.8484375  L 20.4546875 10.4375  C 16.06875 5.784375  8.94375 5.784375  4.5453125 10.4375  Z " fill-rule="nonzero" fill="#000000" stroke="none" transform="matrix(1 0 0 1 3680 285 )" />
  </g>
</svg>