<?xml version="1.0" encoding="utf-8"?>
<svg version="1.1" xmlns:xlink="http://www.w3.org/1999/xlink" width="34px" height="26px" xmlns="http://www.w3.org/2000/svg">
  <g transform="matrix(1 0 0 1 -4574 -507 )">
    <path d="M 34 7.68240131578947  C 24.618125 -2.33273026315789  9.39675 -2.33273026315789  0 7.68240131578947  L 3.091875 10.9815789473684  C 10.771625 2.78174342105263  23.228375 2.78174342105263  30.908125 10.9815789473684  L 34 7.68240131578947  Z M 21.63675 20.8791118421053  C 19.08675 18.1422697368421  14.928125 18.1422697368421  12.36325 20.8791118421053  L 17 25.8289473684211  L 21.63675 20.8791118421053  Z M 6.181625 14.2828947368421  L 6.18375 14.2828947368421  L 9.275625 17.582072368421  C 13.5405 13.0277960526316  20.46375 13.0277960526316  24.728625 17.582072368421  L 27.818375 14.2828947368421  C 21.8535 7.91546052631579  12.1635 7.91546052631579  6.181625 14.2828947368421  Z " fill-rule="nonzero" fill="#000000" stroke="none" transform="matrix(1 0 0 1 4574 507 )" />
  </g>
</svg>