<?xml version="1.0" encoding="utf-8"?>
<svg version="1.1" xmlns:xlink="http://www.w3.org/1999/xlink" width="34px" height="34px" xmlns="http://www.w3.org/2000/svg">
  <g transform="matrix(1 0 0 1 -4571 -714 )">
    <path d="M 4588 717  C 4595.84 717  4602 723.16  4602 731  C 4602 738.84  4595.84 745  4588 745  C 4580.16 745  4574 738.84  4574 731  C 4574 723.16  4580.16 717  4588 717  Z " fill-rule="nonzero" fill="#ffffff" stroke="none" />
    <path d="M 4588 716  C 4596.4 716  4603 722.6  4603 731  C 4603 739.4  4596.4 746  4588 746  C 4579.6 746  4573 739.4  4573 731  C 4573 722.6  4579.6 716  4588 716  Z " stroke-width="4" stroke="#000000" fill="none" />
  </g>
</svg>