<?xml version="1.0" encoding="utf-8"?>
<svg version="1.1" xmlns:xlink="http://www.w3.org/1999/xlink" width="159px" height="122px" xmlns="http://www.w3.org/2000/svg">
  <g transform="matrix(1 0 0 1 -5454 -226 )">
    <path d="M 158.424782492898 88.3864583333333  C 158.424782492898 106.866493055556  143.391490589489 121.9046875  124.91748046875 122  L 34.1883877840909 122  C 15.7143776633523 121.9046875  0.663441051136364 106.866493055556  0.663441051136364 88.3688078703704  C 0.663441051136364 75.5192708333333  8.07421875 64.0111689814815  19.137451171875 58.4159722222222  C 18.8727805397727 56.8097800925926  18.7316228693182 55.1506365740741  18.7316228693182 53.4914930555556  C 18.7316228693182 37.2707175925926  31.9298650568182 24.0681712962963  48.1629971590909 24.0681712962963  C 52.5388849431818 24.0681712962963  56.7736150568182 25.0212962962963  60.6025168678977 26.8216435185185  C 67.7309792258523 11.2539351851852  83.3465465198864 0.840162037037037  101.273570667614 0.840162037037037  C 125.993807705966 0.840162037037037  146.091131036932 20.9616898148148  146.091131036932 45.672337962963  C 146.091131036932 50.7380208333333  145.226540305398 55.7684027777778  143.532648259943 60.5340277777778  C 152.672607421875 66.641087962963  158.424782492898 77.0195601851852  158.424782492898 88.3864583333333  Z M 58.7145330255682 44.8604166666667  C 56.1207608309659 41.6833333333333  52.2565696022727 39.8476851851852  48.1453524502841 39.8476851851852  C 40.6110617897727 39.8476851851852  34.5059925426136 45.9723958333333  34.5059925426136 53.4914930555556  C 34.5059925426136 55.644849537037  35.0176890980114 57.7276041666667  36.0057927911932 59.6868055555556  C 37.1350541548295 61.875462962963  37.1526988636364 64.4700810185185  36.0940163352273 66.6940393518518  C 35.0353338068182 68.9179976851852  32.9885475852273 70.5065393518518  30.5712224786932 71.0007523148148  C 22.3840775923295 72.6951967592593  16.4378107244318 80.0024884259259  16.4378107244318 88.3688078703704  C 16.4378107244318 98.1471643518518  24.3955743963068 106.125173611111  34.1883877840909 106  L 124.91748046875 106  C 134.692649147727 106.125173611111  142.650412819602 98.1648148148148  142.650412819602 88.3688078703704  C 142.650412819602 80.7967592592593  137.833407315341 74.0542824074074  130.652010830966 71.6008680555556  C 128.428777521307 70.8418981481481  126.646661931818 69.1121527777778  125.817360617898 66.9058449074074  C 124.988059303977 64.699537037037  125.199795809659 62.2284722222222  126.381991299716 60.1810185185185  C 128.940474076705 55.7507523148148  130.29911665483 50.7380208333333  130.29911665483 45.6546875  C 130.29911665483 29.6280671296296  117.259676846591 16.602025462963  101.255925958807 16.602025462963  C 86.9107776988636 16.6196759259259  74.8594415838068 26.9098958333333  72.6185635653409 41.1008680555556  C 72.12451171875 44.1720486111111  69.8836337002841 46.6784143518518  66.884033203125 47.4903356481481  C 63.8844327059659 48.3022569444444  60.6907404119318 47.2785300925926  58.7145330255682 44.8604166666667  Z M 121.688498757102 52.9972800925926  C 121.670854048295 57.3569444444444  118.141912286932 60.887037037037  113.783669211648 60.887037037037  C 109.425426136364 60.887037037037  105.896484375 57.3569444444444  105.896484375 52.9972800925926  C 105.896484375 47.6315393518518  102.667502663352 42.9188657407407  97.6740500710227 40.9596643518518  C 93.6157670454545 39.3887731481481  91.6042702414773 34.7996527777778  93.1922940340909 30.7400462962963  C 94.7803178267045 26.6804398148148  99.3502974076705 24.6506365740741  103.408580433239 26.2568287037037  C 114.507102272727 30.5811921296296  121.688498757102 41.0832175925926  121.688498757102 52.9972800925926  Z " fill-rule="nonzero" fill="#333333" stroke="none" transform="matrix(1 0 0 1 5454 226 )" />
  </g>
</svg>