<?xml version="1.0" encoding="utf-8"?>
<svg version="1.1" xmlns:xlink="http://www.w3.org/1999/xlink" width="25px" height="34px" xmlns="http://www.w3.org/2000/svg">
  <g transform="matrix(1 0 0 1 -2520 -1245 )">
    <path d="M 13.8615733736762 25.6138392857143  L 13.8804841149773 19.9787946428571  L 16.679273827534 22.7868303571429  L 13.8615733736762 25.6138392857143  Z M 13.8804841149773 14.0212053571429  L 13.8615733736762 8.38616071428571  L 16.679273827534 11.2131696428571  L 13.8804841149773 14.0212053571429  Z M 11.4031770045386 20.0167410714286  L 11.4031770045386 31.609375  L 20.17776096823 22.8058035714286  L 14.3910741301059 17  L 20.17776096823 11.1941964285714  L 11.4031770045386 2.390625  L 11.4031770045386 13.9832589285714  L 6.58093797276853 9.14508928571429  L 4.82223903177005 10.9095982142857  L 10.8736762481089 17  L 4.82223903177005 23.0904017857143  L 6.58093797276853 24.8549107142857  L 11.4031770045386 20.0167410714286  Z M 24.3948562783661 10.0652901785714  C 24.798285426122 12.0448288690476  25 14.3563988095238  25 17  C 25 19.6436011904762  24.798285426122 21.9551711309524  24.3948562783661 23.9347098214286  C 23.9914271306102 25.9142485119048  23.4398638426626 27.5396205357143  22.7401664145235 28.8108258928571  C 22.0404689863843 30.08203125  21.1548159354513 31.1097470238095  20.0832072617247 31.8939732142857  C 19.011598587998 32.6781994047619  17.8674987392839 33.2252604166667  16.6509077155824 33.53515625  C 15.434316691881 33.8450520833333  14.0506807866868 34  12.5 34  C 10.9493192133132 34  9.56568330811901 33.8450520833333  8.34909228441755 33.53515625  C 7.13250126071609 33.2252604166667  5.98840141200202 32.6781994047619  4.91679273827534 31.8939732142857  C 3.84518406454866 31.1097470238095  2.95953101361573 30.08203125  2.25983358547655 28.8108258928571  C 1.56013615733737 27.5396205357143  1.00857286938981 25.9142485119048  0.605143721633888 23.9347098214286  C 0.201714573877963 21.9551711309524  0 19.6436011904762  0 17  C 0 14.3563988095238  0.201714573877963 12.0448288690476  0.605143721633888 10.0652901785714  C 1.00857286938981 8.08575148809523  1.56013615733737 6.46037946428571  2.25983358547655 5.18917410714286  C 2.95953101361573 3.91796875  3.84518406454866 2.89025297619048  4.91679273827534 2.10602678571429  C 5.98840141200202 1.32180059523809  7.13250126071609 0.774739583333331  8.34909228441755 0.46484375  C 9.56568330811901 0.154947916666669  10.9493192133132 0  12.5 0  C 14.0506807866868 0  15.434316691881 0.154947916666669  16.6509077155824 0.46484375  C 17.8674987392839 0.774739583333331  19.011598587998 1.32180059523809  20.0832072617247 2.10602678571429  C 21.1548159354513 2.89025297619048  22.0404689863843 3.91796875  22.7401664145235 5.18917410714286  C 23.4398638426626 6.46037946428571  23.9914271306102 8.08575148809523  24.3948562783661 10.0652901785714  Z " fill-rule="nonzero" fill="#000000" stroke="none" transform="matrix(1 0 0 1 2520 1245 )" />
  </g>
</svg>