<?xml version="1.0" encoding="utf-8"?>
<svg version="1.1" xmlns:xlink="http://www.w3.org/1999/xlink" width="15px" height="24px" xmlns="http://www.w3.org/2000/svg">
  <g transform="matrix(1 0 0 1 -2496 -2333 )">
    <path d="M 15 3.424317617866  C 15 3.68238213399504  14.9083011583012 3.90570719602977  14.7249034749035 4.09429280397022  L 7.03667953667954 12  L 14.7249034749035 19.9057071960298  C 14.9083011583012 20.0942928039702  15 20.317617866005  15 20.575682382134  C 15 20.833746898263  14.9083011583012 21.0570719602978  14.7249034749035 21.2456575682382  L 12.3214285714286 23.7171215880893  C 12.1380308880309 23.9057071960298  11.9208494208494 24  11.6698841698842 24  C 11.4189189189189 24  11.2017374517375 23.9057071960298  11.0183397683398 23.7171215880893  L 0.275096525096525 12.6699751861042  C 0.0916988416988418 12.4813895781638  0 12.258064516129  0 12  C 0 11.741935483871  0.0916988416988418 11.5186104218362  0.275096525096525 11.3300248138958  L 11.0183397683398 0.282878411910669  C 11.2017374517375 0.0942928039702222  11.4189189189189 0  11.6698841698842 0  C 11.9208494208494 0  12.1380308880309 0.0942928039702222  12.3214285714286 0.282878411910669  L 14.7249034749035 2.75434243176179  C 14.9083011583012 2.94292803970223  15 3.16625310173697  15 3.424317617866  Z " fill-rule="nonzero" fill="#000000" stroke="none" transform="matrix(1 0 0 1 2496 2333 )" />
  </g>
</svg>