<?xml version="1.0" encoding="utf-8"?>
<svg version="1.1" xmlns:xlink="http://www.w3.org/1999/xlink" width="33px" height="32px" xmlns="http://www.w3.org/2000/svg">
  <g transform="matrix(1 0 0 1 -2929 -4321 )">
    <path d="M 1.8877510858209 20.8942487251244  C 2.38444018255814 20.9207459525947  2.82188529930939 21.233105342322  3.01229885820896 21.6972364427861  L 3.08456775 21.6972364427861  L 3.08456775 27.0283668843284  C 3.08698021804492 28.3802856274321  4.17264490568638 29.4749417268281  5.51104663559674 29.4749417268281  C 5.51287292516641 29.4749417268281  5.514699214153 29.4749396441693  5.51652549906717 29  L 27.4348047341418 29  C 27.436631019055 29.4749396441693  27.4384573080435 29.4749417268281  27.4402835976122 29.4749417268281  C 28.7786853275226 29.4749417268281  29.864350015164 28.3802856274321  29.866762483209 27.0283668843284  L 29.866762483209 21.6972364427861  L 29.939031375 21.6972364427861  C 30.1322662047392 21.2188147959899  30.5893412601681 20.9028973734206  31.1008085652985 20.8942487251244  C 31.6213106292357 20.872749967317  32.0938979180397 21.1993890092965  32.262585755597 21.6972364427861  L 32.3348546781716 21.6972364427861  L 32.3348546781716 27.0283668843284  C 32.3294172286665 29.7358391528387  30.152432838374 31.9263956735295  27.4720341520522 32  L 5.51652549906717 32  C 2.83612681274541 31.9263956735295  0.6591424224529 29.7358391528387  0.653704972947762 27.0283668843284  L 0.653704972947762 21.6972364427861  L 0.725973864738806 21.6972364427861  C 0.915613711700491 21.2158969618879  1.37489337151272 20.898455787187  1.8877510858209 20.8942487251244  Z M 3.08456775 9.86588737562189  L 3.08456775 9.86256924751244  L 3.08456775 4.96943208955224  C 3.08698021804492 3.61751334644846  4.17264490568638 2.52285724705254  5.51104663559674 2.52285724705254  C 5.51287292516577 2.52285724705254  5.51469921415364 2.52285932971132  5.51652549906717 3  L 27.4348047341418 3  C 27.4366310190556 2.52285932971131  27.4384573080429 2.52285724705254  27.4402835976122 2.52285724705254  C 28.7786853275226 2.52285724705254  29.864350015164 3.61751334644846  29.866762483209 4.96943208955224  L 29.8667624832089 9.86256924751244  C 29.8750877023365 10.5465822736501  30.4236053463314 11.0981824001965  31.1008085652985 11.1035502487562  C 31.1051965146104 11.1035980421596  31.1095846871298 11.1036219393823  31.1139728915368 11.1036219393823  C 31.7882608191141 11.1036219393823  32.334879186313 10.551482174535  32.334879186313 9.87038325779026  C 32.334879186313 9.86777856809053  32.3348710168915 9.86517388492633  32.3348546781716 9.86256924751244  L 32.3348546781716 4.96943208955224  C 32.3276067592847 2.26282405189052  30.1504853975156 0.0741080947246178  27.4709391800373 0  L 5.51652549906717 0  C 2.83612681274541 0.0747214284605788  0.659142422452901 2.26527794915131  0.653704972947761 4.97275021766169  L 0.653704972947761 9.86588737562189  C 0.662030192352831 10.5499004137566  1.21054785484298 11.1015005451424  1.8877510858209 11.1068683768657  C 2.55739882440957 11.0977651176242  3.09309040871081 10.5423057072224  3.08456775 9.86588737562189  Z M 1.23404608208955 14.7590245335821  L 1.23404608208955 15  L 31.7172841203358 15  C 31.7172841203358 14.7557064054726  31.7172841203358 14.7557064054726  31.7172841203358 14.7557064054726  C 32.396107621507 14.7557064054726  32.9464027975746 15.3115601186722  32.9464027975746 15.9972404228856  C 32.9464027975746 16.6829207270989  32.396107621507 17.2387744402985  31.7172841203358 17.2387744402985  C 31.7172841203358 17.2387744402985  31.7172841203358 17.2387744402985  31.7172841203358 17  L 1.23404608208955 17  C 0.558344051807482 17.2328564617763  0.0106721231922602 16.6835793946207  0 16.0011115671642  C 0.0336420444579747 15.3280098746936  0.567560003227504 14.7906129466459  1.23404608208955 14.7590245335821  Z " fill-rule="nonzero" fill="#000000" stroke="none" transform="matrix(1 0 0 1 2929 4321 )" />
  </g>
</svg>