<?xml version="1.0" encoding="utf-8"?>
<svg version="1.1" xmlns:xlink="http://www.w3.org/1999/xlink" width="162px" height="121px" xmlns="http://www.w3.org/2000/svg">
  <g transform="matrix(1 0 0 1 -3357 -5451 )">
    <path d="M 3357 5451  L 3519 5451  L 3519 5572  L 3357 5572  L 3357 5451  " fill-rule="nonzero" fill="#cccccc" stroke="none" />
    <path d="M 3365 5459  L 3511 5459  L 3511 5564  L 3365 5564  L 3365 5459  " fill-rule="nonzero" fill="#ffffff" stroke="none" />
    <path d="M 3450.315 5487.3  C 3445.233 5487.3  3441.24 5483.307  3441.24 5478.225  C 3441.24 5473.143  3445.233 5469.15  3450.315 5469.15  C 3455.397 5469.15  3459.39 5473.143  3459.39 5478.225  C 3459.39 5483.307  3455.397 5487.3  3450.315 5487.3  " fill-rule="nonzero" fill="#cccccc" stroke="none" />
    <path d="M 3368 5561  L 3368 5506.55  L 3403 5481.8  L 3452 5516.63333333333  L 3480 5496.65  L 3508 5516.63333333333  L 3508 5561  L 3368 5561  " fill-rule="nonzero" fill="#169bd5" stroke="none" />
  </g>
</svg>