<?xml version="1.0" encoding="utf-8"?>
<svg version="1.1" xmlns:xlink="http://www.w3.org/1999/xlink" width="72px" height="72px" xmlns="http://www.w3.org/2000/svg">
  <g transform="matrix(1 0 0 1 -20 -251 )">
    <path d="M 56 251  C 76.16 251  92 266.84  92 287  C 92 307.16  76.16 323  56 323  C 35.84 323  20 307.16  20 287  C 20 266.84  35.84 251  56 251  Z " fill-rule="nonzero" fill="#ffffff" stroke="none" />
    <path d="M 56 251.5  C 75.88 251.5  91.5 267.12  91.5 287  C 91.5 306.88  75.88 322.5  56 322.5  C 36.12 322.5  20.5 306.88  20.5 287  C 20.5 267.12  36.12 251.5  56 251.5  Z " stroke-width="1" stroke="#797979" fill="none" />
  </g>
</svg>