<?xml version="1.0" encoding="utf-8"?>
<svg version="1.1" xmlns:xlink="http://www.w3.org/1999/xlink" width="36px" height="40px" xmlns="http://www.w3.org/2000/svg">
  <g transform="matrix(1 0 0 1 -481 -36 )">
    <path d="M 12.8607954545455 15.234375  C 13.0142045454545 15.390625  13.0909090909091 15.5902777777778  13 15.8333333333333  L 13 30.8333333333333  C 13.0909090909091 31.0763888888889  13.0142045454545 31.2760416666667  12.8607954545455 31.4322916666667  C 12.7073863636364 31.5885416666667  12.5113636363636 31.6666666666667  12.2727272727273 31.6666666666667  L 10.6363636363636 31.6666666666667  C 10.3977272727273 31.6666666666667  10.2017045454545 31.5885416666667  10.0482954545455 31.4322916666667  C 9.89488636363636 31.2760416666667  9.81818181818182 31.0763888888889  10 30.8333333333333  L 10 15.8333333333333  C 9.81818181818182 15.5902777777778  9.89488636363636 15.390625  10.0482954545455 15.234375  C 10.2017045454545 15.078125  10.3977272727273 15  10.6363636363636 15  L 12.2727272727273 15  C 12.5113636363636 15  12.7073863636364 15.078125  12.8607954545455 15.234375  Z M 19.40625 15.234375  C 19.5596590909091 15.390625  19.6363636363636 15.5902777777778  19 15.8333333333333  L 19 30.8333333333333  C 19.6363636363636 31.0763888888889  19.5596590909091 31.2760416666667  19.40625 31.4322916666667  C 19.2528409090909 31.5885416666667  19.0568181818182 31.6666666666667  18.8181818181818 31.6666666666667  L 17.1818181818182 31.6666666666667  C 16.9431818181818 31.6666666666667  16.7471590909091 31.5885416666667  16.59375 31.4322916666667  C 16.4403409090909 31.2760416666667  16.3636363636364 31.0763888888889  17 30.8333333333333  L 17 15.8333333333333  C 16.3636363636364 15.5902777777778  16.4403409090909 15.390625  16.59375 15.234375  C 16.7471590909091 15.078125  16.9431818181818 15  17.1818181818182 15  L 18.8181818181818 15  C 19.0568181818182 15  19.2528409090909 15.078125  19.40625 15.234375  Z M 25.9517045454545 15.234375  C 26.1051136363636 15.390625  26.1818181818182 15.5902777777778  26 15.8333333333333  L 26 30.8333333333333  C 26.1818181818182 31.0763888888889  26.1051136363636 31.2760416666667  25.9517045454545 31.4322916666667  C 25.7982954545455 31.5885416666667  25.6022727272727 31.6666666666667  25.3636363636364 31.6666666666667  L 23.7272727272727 31.6666666666667  C 23.4886363636364 31.6666666666667  23.2926136363636 31.5885416666667  23.1392045454545 31.4322916666667  C 22.9857954545455 31.2760416666667  22.9090909090909 31.0763888888889  23 30.8333333333333  L 23 15.8333333333333  C 22.9090909090909 15.5902777777778  22.9857954545455 15.390625  23.1392045454545 15.234375  C 23.2926136363636 15.078125  23.4886363636364 15  23.7272727272727 15  L 25.3636363636364 15  C 25.6022727272727 15  25.7982954545455 15.078125  25.9517045454545 15.234375  Z M 29.2755681818182 35.7421875  C 29.3948863636364 35.4210069444444  29.4545454545455 35.0694444444444  29 34.6875  L 29 10  L 7 10  L 7 34.6875  C 6.54545454545455 35.0694444444444  6.60511363636364 35.4210069444444  6.72443181818182 35.7421875  C 6.84375 36.0633680555556  6.96732954545455 36.2977430555556  7.09517045454545 36.4453125  C 7.22301136363636 36.5928819444444  7.3125 36.6666666666667  7.36363636363636 36  L 28.6363636363636 36  C 28.6875 36.6666666666667  28.7769886363636 36.5928819444444  28.9048295454545 36.4453125  C 29.0326704545455 36.2977430555556  29.15625 36.0633680555556  29.2755681818182 35.7421875  Z M 13.5255681818182 3.61979166666667  L 12.2727272727273 7  L 23.7272727272727 7  L 22.5 3.61979166666667  C 22.3806818181818 3.46354166666667  22.2357954545455 3.36805555555555  22.0653409090909 3.33333333333333  L 13.9602272727273 3.33333333333333  C 13.7897727272727 3.36805555555555  13.6448863636364 3.46354166666667  13.5255681818182 3.61979166666667  Z M 35.7698863636364 6.90104166666667  C 35.9232954545455 7.05729166666667  36 7.25694444444444  36 7.5  L 36 9.16666666666666  C 36 9.40972222222222  35.9232954545455 9.609375  35.7698863636364 9.765625  C 35.6164772727273 9.921875  35.4204545454545 10  35.1818181818182 10  L 32.7272727272727 10  L 32.7272727272727 34.6875  C 32.7272727272727 36.1284722222222  32.3267045454545 37.3741319444444  31.5255681818182 38.4244791666667  C 30.7244318181818 39.4748263888889  29.7613636363636 40  28.6363636363636 40  L 7.36363636363636 40  C 6.23863636363636 40  5.27556818181818 39.4921875  4.47443181818182 38.4765625  C 3.67329545454546 37.4609375  3.27272727272727 36.2326388888889  3.27272727272727 34.7916666666667  L 3.27272727272727 10  L 0.818181818181818 10  C 0.579545454545455 10  0.383522727272727 9.921875  0.230113636363636 9.765625  C 0.0767045454545454 9.609375  0 9.40972222222222  0 9.16666666666666  L 0 7.5  C 0 7.25694444444444  0.0767045454545454 7.05729166666667  0.230113636363636 6.90104166666667  C 0.383522727272727 6.74479166666667  0.579545454545455 6.66666666666667  0.818181818181818 6.66666666666667  L 8.71875 6.66666666666667  L 10.5085227272727 2.31770833333333  C 10.7642045454545 1.67534722222222  11.2244318181818 1.12847222222222  11.8892045454545 0.677083333333335  C 12.5539772727273 0.225694444444442  13.2272727272727 0  13.9090909090909 0  L 22.0909090909091 0  C 22.7727272727273 0  23.4460227272727 0.225694444444442  24.1107954545455 0.677083333333335  C 24.7755681818182 1.12847222222222  25.2357954545455 1.67534722222222  25.4914772727273 2.31770833333333  L 27.28125 6.66666666666667  L 35.1818181818182 6.66666666666667  C 35.4204545454545 6.66666666666667  35.6164772727273 6.74479166666667  35.7698863636364 6.90104166666667  Z " fill-rule="nonzero" fill="#ffffff" stroke="none" transform="matrix(1 0 0 1 481 36 )" />
  </g>
</svg>