<?xml version="1.0" encoding="utf-8"?>
<svg version="1.1" xmlns:xlink="http://www.w3.org/1999/xlink" width="438px" height="472px" xmlns="http://www.w3.org/2000/svg">
  <g transform="matrix(1 0 0 1 -1912 -1645 )">
    <path d="M 1912 1645  L 2350 1645  L 2350 2117  L 1912 2117  L 1912 1645  " fill-rule="nonzero" fill="#cccccc" stroke="none" />
    <path d="M 1943 1676  L 2319 1676  L 2319 2086  L 1943 2086  L 1943 1676  " fill-rule="nonzero" fill="#ffffff" stroke="none" />
    <path d="M 2172.61 1781.5  C 2154.214 1781.5  2139.76 1767.046  2139.76 1748.65  C 2139.76 1730.254  2154.214 1715.8  2172.61 1715.8  C 2191.006 1715.8  2205.46 1730.254  2205.46 1748.65  C 2205.46 1767.046  2191.006 1781.5  2172.61 1781.5  " fill-rule="nonzero" fill="#cccccc" stroke="none" />
    <path d="M 1954 2075  L 1954 1861.6  L 2042.5 1764.6  L 2166.4 1842.2  L 2237.2 1822.8  L 2308 1842.2  L 2308 2075  L 1954 2075  " fill-rule="nonzero" fill="#169bd5" stroke="none" />
  </g>
</svg>