<?xml version="1.0" encoding="utf-8"?>
<svg version="1.1" xmlns:xlink="http://www.w3.org/1999/xlink" width="32px" height="32px" xmlns="http://www.w3.org/2000/svg">
  <g transform="matrix(1 0 0 1 -3218 -570 )">
    <path d="M 23.5513889003255 18.4570555669922  L 23.5513889003255 18.4277777663411  C 22.6760524369144 21.4728327869659  20.099061581012 23.7234048011207  16.9638889003255 24.1808610996745  C 16.5358162743699 24.2429662894178  16.1038243606033 24.2741400056637  15.6712700545496 24.2741400056637  C 11.0597100943687 24.2741400056637  7.1937794640074 20.7894791377578  6.71666666666667 16.2026666666667  C 6.69790392469806 15.968899216209  6.6885112629736 15.7344740863657  6.6885112629736 15.4999548731237  C 6.6885112629736 10.6490538204432  10.6209435436265 6.71662153979037  15.4718445963069 6.71662153979037  C 15.4812297489533 6.71662153979037  15.4906148955725 6.71663658210179  15.5 6.71666666666667  C 16.6385412136597 6.71826865319286  17.766342536507 6.93687331176103  18.8230277663411 7.36077776634114  C 19.1678539683904 7.51558567112141  19.5738430208134 7.3823705149213  19.7599166666667 7.05336109967448  L 21.8679166666667 3.17405556699219  C 21.922150415182 3.06725758060843  21.9504162785486 2.94916863827146  21.9504162785486 2.82938921861329  C 21.9504162785486 2.5417038841592  21.788232730927 2.27859452609411  21.5312222336589 2.14933333333333  C 19.6342106452277 1.29045187147759  17.5757879236938 0.84617828572384  15.4934021928165 0.84617828572384  C 7.40856709869944 0.84617828572384  0.854513292490977 7.4002320919323  0.854513292490977 15.4850671860494  C 0.854513292490977 15.6315788091324  0.856712809384966 15.7780821766467  0.861111099674479 15.9245277663411  C 1.16007360882759 23.5692498131951  7.23095341103031 29.7289408240881  14.8705277663411 30.1388889003255  C 22.9090518900193 30.4953638091908  29.7283750325349 24.2971679037065  30.1388889003255 16.2612222336589  L 30.1388889003255 13.3334444330078  C 30.1311008501238 12.9324728885346  29.8079159778461 12.6092880314062  29.4069444330078 13  L 16.2319444330078 13  C 15.827702684934 12.6015  15.5 12.9292026849341  15.5 13.3334444330078  L 15.5 17.7251110996745  C 15.5 18.1293528820581  15.827702684934 18.4570555669922  16.2319444330078 18.4570555669922  L 23.5513889003255 18.4570555669922  Z " fill-rule="nonzero" fill="#000000" stroke="none" transform="matrix(1 0 0 1 3218 570 )" />
  </g>
</svg>