<?xml version="1.0" encoding="utf-8"?>
<svg version="1.1" xmlns:xlink="http://www.w3.org/1999/xlink" width="6px" height="3px" xmlns="http://www.w3.org/2000/svg">
  <g transform="matrix(1 0 0 1 -3156 -669 )">
    <path d="M 0.602451171874996 2.37427734375  C 0.650986328125001 2.39369140625  0.700214843749997 2.412412109375  0.749443359375 2.430439453125  C 0.700214843749997 2.41310546875  0.650986328125001 2.394384765625  0.602451171874996 2.37427734375  Z M 0.450605468749998 2.30771484375  L 0.463085937499997 2.31395507812501  C 0.488740234375001 2.3257421875  0.515087890624997 2.33614257812501  0.540742187500001 2.34723632812501  C 0.510234375000003 2.3340625  0.480419921874997 2.32158203125  0.450605468749998 2.30771484375  Z M 0.298759765625 2.233525390625  C 0.307080078124997 2.237685546875  0.31609375 2.24115234375001  0.324414062499997 2.246005859375  C 0.31609375 2.24184570312501  0.307080078124997 2.237685546875  0.298759765625 2.233525390625  Z M 2.06474609375 2.631513671875  C 1.621689453125 2.6474609375  1.175859375 2.5808984375  0.753603515625002 2.431826171875  C 1.183486328125 2.58505859375  1.6279296875 2.64884765625  2.06474609375 2.631513671875  Z M 2.104267578125 2.630126953125  C 2.138935546875 2.628046875  2.17291015625 2.6252734375  2.206884765625 2.623193359375  C 2.17291015625 2.625966796875  2.1382421875 2.628046875  2.104267578125 2.630126953125  Z M 2.3046484375 2.61417968750001  C 2.318515625 2.61209960937501  2.333076171875 2.61071289062501  2.34763671875 2.609326171875  C 2.333076171875 2.610712890625  2.319208984375 2.61279296875  2.3046484375 2.61417968750001  Z M 5.044111328125 0.758056640625  C 5.04619140625 0.753203124999999  5.04827148437499 0.748349609374998  5.051044921875 0.744189453124996  C 5.04896484375 0.749042968749997  5.04619140625 0.753896484374998  5.044111328125 0.758056640625  Z " fill-rule="nonzero" fill="#ffffff" stroke="none" transform="matrix(1 0 0 1 3156 669 )" />
  </g>
</svg>