<?xml version="1.0" encoding="utf-8"?>
<svg version="1.1" xmlns:xlink="http://www.w3.org/1999/xlink" width="19px" height="15px" xmlns="http://www.w3.org/2000/svg">
  <g transform="matrix(1 0 0 1 -3075 -611 )">
    <path d="M 16.8855494005927 4.03539932914402  L 15.7852250300173 5.13081269865134  C 14.9125317436814 4.47838987702742  13.9177182698215 3.86547862090151  12.8372246745243 3.42073462835438  L 13.5632462284482 1.36543817934782  C 13.6731795528017 1.03285177479621  13.495560008082 0.673812202785311  13.1637158203125 0.55782523777173  C 12.8318716325431 0.441838272758149  12.4677742793643 0.611183763586965  12.3444399919181 0.939022163722835  L 11.6145337880519 3.0053157067243  C 10.9330747750677 2.8233818324731  10.2257105657431 2.71861943783966  9.50025592672408 2.71861943783966  C 8.81477954921136 2.71861943783966  8.14545468963951 2.81215351773831  7.4988733646611 2.97594280229601  L 6.93703781654101 0.738701596467382  C 6.85049939385774 0.39413213315219  6.49980300377161 0.184767747961948  6.15342217807118 0.270910113790755  C 5.80726848733841 0.357052479619562  5.59671437230611 0.706369947350526  5.68325279498922 1.05093941066576  L 6.26778261503172 3.37835791076092  C 5.27759995454147 3.77389261571449  4.35767564451522 4.31267715405858  3.5356330259099 4.89718420497795  L 2.14698848329734 3.29787597656249  C 1.9137208714978 3.02904848845109  1.50555933459058 2.99965608016303  1.23549585802795 3.23185610563859  C 0.96565951643313 3.46405613111415  0.935904835668115 3.87034965183426  1.16917244746766 4.13917713994565  L 2.51178063141658 5.68528890791567  C 1.74090518715876 6.3244006700613  1.09244837995969 6.96674098548121  0.598836543642212 7.49782502547556  C -0.0632618871228448 8.21025178328805  -0.0632618871228448 9.30998004415759  0.598836543642212 10.0224068019701  C 2.24488365436423 11.7934124490489  5.61284095501075 14.801612389606  9.50025592672408 14.801612389606  C 13.3876708984376 14.801612389606  16.7556281990841 11.7934124490489  18.4016753098061 10.0224068019701  C 19.0637737405712 9.31020613960599  19.0637737405712 8.21025178328805  18.4016753098061 7.49782502547556  C 17.9748819201943 7.03863190869595  17.4323277776121 6.49626456841643  16.7949730289521 5.9447251411961  L 17.7993133755387 4.9449813179348  C 18.0516603246228 4.6937892747962  18.0516603246228 4.28659137228262  17.7993133755387 4.03539932914402  C 17.5469664264548 3.78420728600545  17.1378963496767 3.78420728600545  16.8855494005927 4.03539932914402  Z M 12.225875538793 8.94687075407611  C 12.225875538793 10.4452052904212  11.0054793574893 11.6600161345109  9.50025592672408 11.6600161345109  C 7.99503249595902 11.6600161345109  6.77463631465511 10.4452052904212  6.77463631465511 8.94687075407611  C 6.77463631465511 7.44853621773098  7.99503249595902 6.23372537364132  9.50025592672408 6.23372537364132  C 11.0054793574893 6.23372537364132  12.225875538793 7.44853621773098  12.225875538793 8.94687075407611  Z " fill-rule="nonzero" fill="#000000" stroke="none" transform="matrix(1 0 0 1 3075 611 )" />
  </g>
</svg>