<?xml version="1.0" encoding="utf-8"?>
<svg version="1.1" xmlns:xlink="http://www.w3.org/1999/xlink" width="27px" height="33px" xmlns="http://www.w3.org/2000/svg">
  <g transform="matrix(1 0 0 1 -1809 -1015 )">
    <path d="M 24.7088507156905 28.7682746704102  C 26.2975288570804 26.463637902832  26.9503585882867 24.3463699951172  26.9880944219843 24.2339486938477  C 26.9390378455529 24.211464440918  22.6145125723885 21.7869116088867  22.5692296014532 17.7322498901367  C 22.5277201991368 11.6502572753906  25.9730007020324 11.4928675048828  26.1277176054414 11.3954356933594  C 24.1918698972902 8.58490305175781  21.1805512606534 8.14271260986327  20.1088539007867 8.10149146728515  C 17.5465915523929 7.84292244873047  15.1088574109485 9.57046318359374  13.8069715171547 9.57046318359374  C 12.5088592288571 9.57046318359374  10.5013134588069 8.0977441040039  8.37678661904505 8.13521784667968  C 5.58433573672419 8.1764389892578  3.00697904010051 9.74284251708985  1.56547062800482 12.2273533447266  C -1.33641414991256 17.2301014160156  0.822074918050666 24.6386654296875  3.65226163406907 28.6933271484375  C 5.0333927269996 30.6794368652344  6.68244818755463 32.9091260742188  8.84848442963291 32.8304311889648  C 10.931501830201 32.7479889038086  11.7201805479677 31.4888702636719  14.2409334940451 31.4888702636719  C 16.7616864401224 31.4888702636719  17.4673463163789 32.8304311889648  19.6748919607736 32.7854626464844  C 21.9163998333698 32.7442415039062  23.3390403286167 30.7618791503906  24.7088507156905 28.7682746704102  Z M 21.8182866436298 0.138315673828131  C 21.8182866436298 4.65390476074219  18.1314967534418 8.31134454345704  13.5881037259615 8.31134454345704  C 13.5881037259615 3.79950281982423  17.2711200106534 0.138315673828131  21.8182866436298 0.138315673828131  Z " fill-rule="nonzero" fill="#000000" stroke="none" transform="matrix(1 0 0 1 1809 1015 )" />
  </g>
</svg>