<?xml version="1.0" encoding="utf-8"?>
<svg version="1.1" xmlns:xlink="http://www.w3.org/1999/xlink" width="411px" height="314px" xmlns="http://www.w3.org/2000/svg">
  <g transform="matrix(1 0 0 1 -4506 -390 )">
    <path d="M 4506 390  L 4917 390  L 4917 704  L 4506 704  L 4506 390  " fill-rule="nonzero" fill="#cccccc" stroke="none" />
    <path d="M 4528 412  L 4895 412  L 4895 682  L 4528 682  L 4528 412  " fill-rule="nonzero" fill="#ffffff" stroke="none" />
    <path d="M 4743.27 484.2  C 4730.082 484.2  4719.72 473.838  4719.72 460.65  C 4719.72 447.462  4730.082 437.1  4743.27 437.1  C 4756.458 437.1  4766.82 447.462  4766.82 460.65  C 4766.82 473.838  4756.458 484.2  4743.27 484.2  " fill-rule="nonzero" fill="#cccccc" stroke="none" />
    <path d="M 4536 674  L 4536 534.3  L 4623.75 470.8  L 4746.6 557.567883211679  L 4816.8 508.9  L 4887 557.567883211679  L 4887 674  L 4536 674  " fill-rule="nonzero" fill="#169bd5" stroke="none" />
  </g>
</svg>