<?xml version="1.0" encoding="utf-8"?>
<svg version="1.1" xmlns:xlink="http://www.w3.org/1999/xlink" width="32px" height="8px" xmlns="http://www.w3.org/2000/svg">
  <g transform="matrix(1 0 0 1 -2085 -34 )">
    <path d="M 0 4  C 0 1.76  1.76000000000022 0  4 0  C 6.23999999999978 0  8 1.76  8 4  C 8 6.24  6.23999999999978 8  4 8  C 1.76000000000022 8  0 6.24  0 4  Z M 12 4  C 12 1.76  13.7600000000002 0  16 0  C 18.2399999999998 0  20 1.76  20 4  C 20 6.24  18.2399999999998 8  16 8  C 13.7600000000002 8  12 6.24  12 4  Z M 24 4  C 24 1.76  25.7600000000002 0  28 0  C 30.2399999999998 0  32 1.76  32 4  C 32 6.24  30.2399999999998 8  28 8  C 25.7600000000002 8  24 6.24  24 4  Z " fill-rule="nonzero" fill="#000000" stroke="none" transform="matrix(1 0 0 1 2085 34 )" />
  </g>
</svg>