<?xml version="1.0" encoding="utf-8"?>
<svg version="1.1" xmlns:xlink="http://www.w3.org/1999/xlink" width="24px" height="19px" xmlns="http://www.w3.org/2000/svg">
  <g transform="matrix(1 0 0 1 -5832 -1116 )">
    <path d="M 2.45884108928571 0.118951040716241  L 21.6042964017857 0.118951040716241  C 22.9117240714286 0.118951040716241  23.9806900714286 1.1611412109375  23.9971356964286 2.44447646983349  L 12.0384210803571 9.01360070426551  L 0.0769655625000002 2.45002001454151  C 0.0879293035714286 1.16391301037865  1.14867249107143 0.118951040716241  2.45884108928571 0.118951040716241  Z M 0.0769655625000002 4.96402664091013  L 0 4.96402664091013  L 0 16.5861101605269  C 0.0660018214285716 17.8805325359261  1.14319063392857 18.9393533944457  2.45884111607143 19  L 21.6042964285714 19  C 22.9199469107143 18.9393533944457  23.9971357232143 17.8805325359261  24 16.5861101605269  L 24 4.95848306911496  L 12.3179968392857 11.22271126112  C 12.1398358392857 11.3197236456432  11.9233017053571 11.3197236456432  11.7451407053571 11.22271126112  L 0.0769655625000002 4.96402664091013  Z " fill-rule="nonzero" fill="#000000" stroke="none" transform="matrix(1 0 0 1 5832 1116 )" />
  </g>
</svg>