<?xml version="1.0" encoding="utf-8"?>
<svg version="1.1" xmlns:xlink="http://www.w3.org/1999/xlink" width="35px" height="27px" xmlns="http://www.w3.org/2000/svg">
  <g transform="matrix(1 0 0 1 -3412 -2486 )">
    <path d="M 13.8421697630297 26.993758183993  L 13.7117163059773 26.993758183993  C 13.1604453400176 26.993758183993  12.63021523955 26.7874409318207  12.2304385961349 26.4127014358807  L 0.822075263356748 15.7684153452173  C -0.0321843192537848 14.9726202256309  -0.0616415707559244 13.6505055764863  0.75474445965655 12.8168154769495  C 1.57113049006902 11.9831253774127  2.93037110043104 11.9578620195069  3.78463071147963 12.7536571106392  L 13.5265566100208 21.84424794208  L 31.1966848291076 0.921994194299686  C 31.9499482061678 0.0335668477544949  33.3007724873958 -0.0969604160628944  34.2139465445726 0.635676394121584  C 35.1271206017493 1.36831317585191  35.2575740303637 2.68200670569452  34.5085188320895 3.57464461189067  L 15.3697374110803 26.235858072811  C 14.9910016331572 26.68638758556  14.4355224884115 26.9600737352394  13.8421697630297 26.993758183993  Z " fill-rule="nonzero" fill="#212121" stroke="none" transform="matrix(1 0 0 1 3412 2486 )" />
  </g>
</svg>