<?xml version="1.0" encoding="utf-8"?>
<svg version="1.1" xmlns:xlink="http://www.w3.org/1999/xlink" width="100px" height="100px" xmlns="http://www.w3.org/2000/svg">
  <g transform="matrix(1 0 0 1 -5670 -3650 )">
    <path d="M 77.4739583333333 41.6666666666667  C 77.4739583333333 42.7951388888889  77.0616319444445 43.7717013888889  76.2369791666667 44.5963541666667  L 48.7630208333333 72.0703125  C 47.9383680555556 72.8949652777778  46.9618055555556 73.3072916666667  45.8333333333333 73.3072916666667  C 44.7048611111111 73.3072916666667  43.7282986111111 72.8949652777778  42.9036458333333 72.0703125  L 23.7630208333333 52.9296875  C 22.9383680555556 52.1050347222222  22.5260416666667 51.1284722222222  22.5260416666667 50  C 22.5260416666667 48.8715277777778  22.9383680555556 47.8949652777778  23.7630208333333 47.0703125  L 30.4036458333333 40.4296875  C 31.2282986111111 39.6050347222222  32.2048611111111 39.1927083333333  33.3333333333333 39.1927083333333  C 34.4618055555556 39.1927083333333  35.4383680555556 39.6050347222222  36.2630208333333 40.4296875  L 45.8333333333333 50  L 63.7369791666667 32.0963541666667  C 64.5616319444445 31.2717013888889  65.5381944444445 30.859375  66.6666666666667 30.859375  C 67.7951388888889 30.859375  68.7717013888889 31.2717013888889  69.5963541666667 32.0963541666667  L 76.2369791666667 38.7369791666667  C 77.0616319444445 39.5616319444444  77.4739583333333 40.5381944444444  77.4739583333333 41.6666666666667  Z M 80.6640625 67.7734375  C 83.8324652777778 62.3480902777778  85.4166666666667 56.4236111111111  85.4166666666667 50  C 85.4166666666667 43.5763888888889  83.8324652777778 37.6519097222222  80.6640625 32.2265625  C 77.4956597222222 26.8012152777778  73.1987847222222 22.5043402777778  67.7734375 19.3359375  C 62.3480902777778 16.1675347222222  56.4236111111111 14.5833333333333  50 14.5833333333333  C 43.5763888888889 14.5833333333333  37.6519097222222 16.1675347222222  32.2265625 19.3359375  C 26.8012152777778 22.5043402777778  22.5043402777778 26.8012152777778  19.3359375 32.2265625  C 16.1675347222222 37.6519097222222  14.5833333333333 43.5763888888889  14.5833333333333 50  C 14.5833333333333 56.4236111111111  16.1675347222222 62.3480902777778  19.3359375 67.7734375  C 22.5043402777778 73.1987847222222  26.8012152777778 77.4956597222222  32.2265625 80.6640625  C 37.6519097222222 83.8324652777778  43.5763888888889 85.4166666666667  50 85.4166666666667  C 56.4236111111111 85.4166666666667  62.3480902777778 83.8324652777778  67.7734375 80.6640625  C 73.1987847222222 77.4956597222222  77.4956597222222 73.1987847222222  80.6640625 67.7734375  Z M 93.2942708333333 24.90234375  C 97.7647569444444 32.5629340277778  100 40.9288194444444  100 50  C 100 59.0711805555556  97.7647569444444 67.4370659722222  93.2942708333333 75.09765625  C 88.8237847222222 82.7582465277778  82.7582465277778 88.8237847222222  75.09765625 93.2942708333333  C 67.4370659722222 97.7647569444445  59.0711805555556 100  50 100  C 40.9288194444445 100  32.5629340277778 97.7647569444445  24.90234375 93.2942708333333  C 17.2417534722222 88.8237847222222  11.1762152777778 82.7582465277778  6.70572916666667 75.09765625  C 2.23524305555556 67.4370659722222  0 59.0711805555556  0 50  C 0 40.9288194444444  2.23524305555556 32.5629340277778  6.70572916666667 24.90234375  C 11.1762152777778 17.2417534722222  17.2417534722222 11.1762152777778  24.90234375 6.70572916666666  C 32.5629340277778 2.23524305555555  40.9288194444445 0  50 0  C 59.0711805555556 0  67.4370659722222 2.23524305555555  75.09765625 6.70572916666666  C 82.7582465277778 11.1762152777778  88.8237847222222 17.2417534722222  93.2942708333333 24.90234375  Z " fill-rule="nonzero" fill="#41a28e" stroke="none" transform="matrix(1 0 0 1 5670 3650 )" />
  </g>
</svg>