<?xml version="1.0" encoding="utf-8"?>
<svg version="1.1" xmlns:xlink="http://www.w3.org/1999/xlink" width="30px" height="23px" xmlns="http://www.w3.org/2000/svg">
  <g transform="matrix(1 0 0 1 -172 -51 )">
    <path d="M 29.8409598214286 14.9482886904762  C 29.9469866071429 15.0566716269841  30 15.1850198412698  30 15.3333333333333  L 30 18.6190476190476  C 30 18.7673611111111  29.9469866071429 18.8957093253968  29.8409598214286 19.0040922619048  C 29.7349330357143 19.1124751984127  29.609375 19.1666666666667  29.4642857142857 19  L 6.42857142857143 19  L 6.42857142857143 22.452380952381  C 6.42857142857143 22.6006944444444  6.37555803571429 22.7290426587302  6.26953125 22.8374255952381  C 6.16350446428571 22.945808531746  6.03794642857143 23  5.89285714285714 23  C 5.75892857142857 23  5.625 22.9429563492063  5.49107142857143 22.828869047619  L 0.150669642857143 17.3526785714286  C 0.0502232142857143 17.25  0 17.124503968254  0 16.9761904761905  C 0 16.8164682539683  0.0502232142857143 16.6852678571429  0.150669642857143 16.5825892857143  L 5.5078125 11.1063988095238  C 5.60825892857143 11.0037202380952  5.73660714285714 10.952380952381  5.89285714285714 10.952380952381  C 6.03794642857143 10.952380952381  6.16350446428571 11.0065724206349  6.26953125 11.1149553571429  C 6.37555803571429 11.2233382936508  6.42857142857143 11.3516865079365  6.42857142857143 11.5  L 6.42857142857143 14.7857142857143  L 29.4642857142857 14.7857142857143  C 29.609375 14.7857142857143  29.7349330357143 14.8399057539683  29.8409598214286 14.9482886904762  Z M 29.8493303571429 5.63020833333333  C 29.9497767857143 5.7328869047619  30 5.8640873015873  30 6.02380952380952  C 30 6.18353174603174  29.9497767857143 6.31473214285714  29.8493303571429 6.41741071428571  L 24.4921875 11.8936011904762  C 24.3917410714286 11.9962797619048  24.2633928571429 12.047619047619  24.1071428571429 12.047619047619  C 23.9620535714286 12.047619047619  23.8364955357143 11.9934275793651  23.73046875 11.8850446428571  C 23.6244419642857 11.7766617063492  23.5714285714286 11.6483134920635  23.5714285714286 11.5  L 23.5714285714286 8.21428571428571  L 0.535714285714286 8.21428571428571  C 0.390625 8.21428571428571  0.265066964285714 8.16009424603175  0.159040178571429 8.05171130952381  C 0.0530133928571429 7.94332837301587  0 7.81498015873016  0 7.66666666666667  L 0 4.38095238095238  C 0 4.23263888888889  0.0530133928571429 4.10429067460317  0.159040178571429 3.99590773809524  C 0.265066964285714 3.8875248015873  0.390625 3.83333333333333  0.535714285714286 4  L 23.5714285714286 4  L 23.5714285714286 0.547619047619048  C 23.5714285714286 0.387896825396824  23.6216517857143 0.256696428571429  23.7220982142857 0.154017857142858  C 23.8225446428571 0.0513392857142868  23.9508928571429 0  24.1071428571429 0  C 24.2410714285714 0  24.375 0.0570436507936506  24.5089285714286 0.171130952380952  L 29.8493303571429 5.63020833333333  Z " fill-rule="nonzero" fill="#aaaaaa" stroke="none" transform="matrix(1 0 0 1 172 51 )" />
  </g>
</svg>