<?xml version="1.0" encoding="utf-8"?>
<svg version="1.1" xmlns:xlink="http://www.w3.org/1999/xlink" width="26px" height="26px" xmlns="http://www.w3.org/2000/svg">
  <g transform="matrix(1 0 0 1 -342 -51 )">
    <path d="M 14.7434895833333 17.7565104166667  C 14.8450520833333 17.8580729166667  14.8958333333333 17.9878472222222  14.8958333333333 18.1458333333333  L 14.8958333333333 20.8541666666667  C 14.8958333333333 21.0121527777778  14.8450520833333 21.1419270833333  14.7434895833333 21.2434895833333  C 14.6419270833333 21.3450520833333  14.5121527777778 21.3958333333333  14.3541666666667 21.3958333333333  L 11.6458333333333 21.3958333333333  C 11.4878472222222 21.3958333333333  11.3580729166667 21.3450520833333  11.2565104166667 21.2434895833333  C 11.1549479166667 21.1419270833333  11.1041666666667 21.0121527777778  11.1041666666667 20.8541666666667  L 11.1041666666667 18.1458333333333  C 11.1041666666667 17.9878472222222  11.1549479166667 17.8580729166667  11.2565104166667 17.7565104166667  C 11.3580729166667 17.6549479166667  11.4878472222222 17.6041666666667  11.6458333333333 17.6041666666667  L 14.3541666666667 17.6041666666667  C 14.5121527777778 17.6041666666667  14.6419270833333 17.6549479166667  14.7434895833333 17.7565104166667  Z M 17.3756510416667 6.119140625  C 18.611328125 7.12912326388889  19.2291666666667 8.33940972222222  19.2291666666667 9.75  C 19.2291666666667 10.3142361111111  19.14453125 10.8220486111111  18.9752604166667 11.2734375  C 18.8059895833333 11.7248263888889  18.5492621527778 12.1141493055556  18.205078125 12.44140625  C 17.8608940972222 12.7686631944444  17.5674913194444 13.0169270833333  17.3248697916667 13.1861979166667  C 17.0822482638889 13.35546875  16.7465277777778 13.55859375  16.3177083333333 13.7955729166667  C 15.9565972222222 13.9986979166667  15.6942274305556 14.1566840277778  15.5305989583333 14.26953125  C 15.3669704861111 14.3823784722222  15.2202690972222 14.5177951388889  15.0904947916667 14.67578125  C 14.9607204861111 14.8337673611111  14.8958333333333 14.9973958333333  14.8958333333333 15.1666666666667  L 14.8958333333333 15.7083333333333  C 14.8958333333333 15.8663194444444  14.8450520833333 15.99609375  14.7434895833333 16.09765625  C 14.6419270833333 16.19921875  14.5121527777778 16.25  14.3541666666667 16.25  L 11.6458333333333 16.25  C 11.4878472222222 16.25  11.3580729166667 16.19921875  11.2565104166667 16.09765625  C 11.1549479166667 15.99609375  11.1041666666667 15.8663194444444  11.1041666666667 15.7083333333333  L 11.1041666666667 14.5572916666667  C 11.1041666666667 14.1623263888889  11.1634114583333 13.7983940972222  11.2819010416667 13.4654947916667  C 11.400390625 13.1325954861111  11.5358072916667 12.8645833333333  11.6881510416667 12.6614583333333  C 11.8404947916667 12.4583333333333  12.060546875 12.2580295138889  12.3483072916667 12.060546875  C 12.6360677083333 11.8630642361111  12.8674045138889 11.7191840277778  13.0423177083333 11.62890625  C 13.2172309027778 11.5386284722222  13.4683159722222 11.4201388888889  13.7955729166667 11.2734375  C 14.3936631944444 10.9913194444444  14.8168402777778 10.7486979166667  15.0651041666667 10.5455729166667  C 15.3133680555556 10.3424479166667  15.4375 10.0659722222222  15.4375 9.71614583333333  C 15.4375 9.2421875  15.1920572916667 8.83875868055555  14.701171875 8.505859375  C 14.2102864583333 8.17296006944444  13.6714409722222 8.00651041666667  13.0846354166667 8.00651041666667  C 12.4526909722222 8.00651041666667  11.9166666666667 8.15885416666667  11.4765625 8.46354166666667  C 11.1493055555556 8.68923611111111  10.6979166666667 9.15755208333333  10.1223958333333 9.86848958333333  C 10.0208333333333 10.00390625  9.87977430555556 10.0716145833333  9.69921875 10.0716145833333  C 9.57508680555556 10.0716145833333  9.46788194444444 10.0377604166667  9.37760416666667 9.97005208333333  L 7.54947916666667 8.58203125  C 7.43663194444444 8.50303819444444  7.36892361111111 8.39019097222222  7.34635416666667 8.24348958333333  C 7.32378472222222 8.09678819444444  7.35199652777778 7.96701388888889  7.43098958333333 7.85416666666667  C 8.80772569444444 5.6875  10.7769097222222 4.60416666666667  13.3385416666667 4.60416666666667  C 14.7942708333333 4.60416666666667  16.1399739583333 5.10915798611111  17.3756510416667 6.119140625  Z M 17.2063802083333 3.02994791666667  C 15.869140625 2.45442708333333  14.4670138888889 2.16666666666667  13 2.16666666666667  C 11.5329861111111 2.16666666666667  10.130859375 2.45442708333333  8.79361979166667 3.02994791666667  C 7.45638020833333 3.60546875  6.30533854166667 4.37565104166667  5.34049479166667 5.34049479166667  C 4.37565104166667 6.30533854166667  3.60546875 7.45638020833333  3.02994791666667 8.79361979166667  C 2.45442708333333 10.130859375  2.16666666666667 11.5329861111111  2.16666666666667 13  C 2.16666666666667 14.4670138888889  2.45442708333333 15.869140625  3.02994791666667 17.2063802083333  C 3.60546875 18.5436197916667  4.37565104166667 19.6946614583333  5.34049479166667 20.6595052083333  C 6.30533854166667 21.6243489583333  7.45638020833333 22.39453125  8.79361979166667 22.9700520833333  C 10.130859375 23.5455729166667  11.5329861111111 23.8333333333333  13 23.8333333333333  C 14.4670138888889 23.8333333333333  15.869140625 23.5455729166667  17.2063802083333 22.9700520833333  C 18.5436197916667 22.39453125  19.6946614583333 21.6243489583333  20.6595052083333 20.6595052083333  C 21.6243489583333 19.6946614583333  22.39453125 18.5436197916667  22.9700520833333 17.2063802083333  C 23.5455729166667 15.869140625  23.8333333333333 14.4670138888889  23.8333333333333 13  C 23.8333333333333 11.5329861111111  23.5455729166667 10.130859375  22.9700520833333 8.79361979166667  C 22.39453125 7.45638020833333  21.6243489583333 6.30533854166667  20.6595052083333 5.34049479166667  C 19.6946614583333 4.37565104166667  18.5436197916667 3.60546875  17.2063802083333 3.02994791666667  Z M 24.2565104166667 6.474609375  C 25.4188368055556 8.46636284722222  26 10.6414930555556  26 13  C 26 15.3585069444444  25.4188368055556 17.5336371527778  24.2565104166667 19.525390625  C 23.0941840277778 21.5171440972222  21.5171440972222 23.0941840277778  19.525390625 24.2565104166667  C 17.5336371527778 25.4188368055556  15.3585069444444 26  13 26  C 10.6414930555556 26  8.46636284722222 25.4188368055556  6.474609375 24.2565104166667  C 4.48285590277778 23.0941840277778  2.90581597222222 21.5171440972222  1.74348958333333 19.525390625  C 0.581163194444444 17.5336371527778  0 15.3585069444444  0 13  C 0 10.6414930555556  0.581163194444444 8.46636284722222  1.74348958333333 6.474609375  C 2.90581597222222 4.48285590277778  4.48285590277778 2.90581597222222  6.474609375 1.74348958333333  C 8.46636284722222 0.581163194444442  10.6414930555556 0  13 0  C 15.3585069444444 0  17.5336371527778 0.581163194444442  19.525390625 1.74348958333333  C 21.5171440972222 2.90581597222222  23.0941840277778 4.48285590277778  24.2565104166667 6.474609375  Z " fill-rule="nonzero" fill="#000000" stroke="none" transform="matrix(1 0 0 1 342 51 )" />
  </g>
</svg>