<?xml version="1.0" encoding="utf-8"?>
<svg version="1.1" xmlns:xlink="http://www.w3.org/1999/xlink" width="110px" height="110px" xmlns="http://www.w3.org/2000/svg">
  <g transform="matrix(1 0 0 1 -128 -134 )">
    <path d="M 183 134  C 213.8 134  238 158.2  238 189  C 238 219.8  213.8 244  183 244  C 152.2 244  128 219.8  128 189  C 128 158.2  152.2 134  183 134  Z " fill-rule="nonzero" fill="#ffffff" stroke="none" />
    <path d="M 183 134.5  C 213.52 134.5  237.5 158.48  237.5 189  C 237.5 219.52  213.52 243.5  183 243.5  C 152.48 243.5  128.5 219.52  128.5 189  C 128.5 158.48  152.48 134.5  183 134.5  Z " stroke-width="1" stroke="#797979" fill="none" />
  </g>
</svg>