<?xml version="1.0" encoding="utf-8"?>
<svg version="1.1" xmlns:xlink="http://www.w3.org/1999/xlink" width="38px" height="38px" xmlns="http://www.w3.org/2000/svg">
  <g transform="matrix(1 0 0 1 -441 -1014 )">
    <path d="M 8.72787234042553 10.3668877005348  C 8.72868085106383 4.65103743315508  13.3517446808511 0.00406417112299511  19.0355744680851 0.00406417112299475  C 24.7202127659574 0.00406417112299475  29.3432765957447 4.65103743315508  29.3432765957447 10.3668877005348  C 29.3432765957447 16.0819251336898  24.7202127659574 20.7297112299465  19.0355744680851 20.7297112299465  C 13.3509361702128 20.7297112299465  8.72787234042553 16.0827379679144  8.72787234042553 10.3668877005348  Z M 19.0355744680851 23.3161497326203  C 22.276085106383 23.3161497326203  25.2465531914894 22.1074652406417  27.5103829787234 20.1135828877005  C 29.0724255319149 20.5866524064171  30.4695319148936 21.2141604278075  31.6952340425532 21.9879786096257  C 34.5403829787234 23.7851550802139  37.9328936170213 27.3226096256685  37.9328936170213 33.9683422459893  L 37.9328936170213 38  L 0.139063829787234 38  L 0.139063829787234 33.9683422459893  C 0.139063829787234 27.3217967914439  3.53157446808511 23.7794652406417  6.37591489361702 21.9879786096257  C 7.6008085106383 21.2141604278075  8.99953191489362 20.5866524064171  10.5599574468085 20.1135828877005  C 12.8254042553191 22.1074652406417  15.7950638297872 23.3161497326203  19.0355744680851 23.3161497326203  Z " fill-rule="nonzero" fill="#999999" stroke="none" transform="matrix(1 0 0 1 441 1014 )" />
  </g>
</svg>