<?xml version="1.0" encoding="utf-8"?>
<svg version="1.1" xmlns:xlink="http://www.w3.org/1999/xlink" width="40px" height="44px" xmlns="http://www.w3.org/2000/svg">
  <g transform="matrix(1 0 0 1 -386 -68 )">
    <path d="M 14.2897727272727 16.7578125  C 14.4602272727273 16.9296875  14.5454545454545 17.1493055555556  15 17.4166666666667  L 15 33.9166666666667  C 14.5454545454545 34.1840277777778  14.4602272727273 34.4036458333333  14.2897727272727 34.5755208333333  C 14.1193181818182 34.7473958333333  13.9015151515152 34.8333333333333  13.6363636363636 34.8333333333333  L 11.8181818181818 34.8333333333333  C 11.5530303030303 34.8333333333333  11.3352272727273 34.7473958333333  11.1647727272727 34.5755208333333  C 10.9943181818182 34.4036458333333  10.9090909090909 34.1840277777778  11 33.9166666666667  L 11 17.4166666666667  C 10.9090909090909 17.1493055555556  10.9943181818182 16.9296875  11.1647727272727 16.7578125  C 11.3352272727273 16.5859375  11.5530303030303 16.5  11.8181818181818 16.5  L 13.6363636363636 16.5  C 13.9015151515152 16.5  14.1193181818182 16.5859375  14.2897727272727 16.7578125  Z M 21.5625 16.7578125  C 21.7329545454545 16.9296875  21.8181818181818 17.1493055555556  21.8181818181818 17.4166666666667  L 21.8181818181818 33.9166666666667  C 21.8181818181818 34.1840277777778  21.7329545454545 34.4036458333333  21.5625 34.5755208333333  C 21.3920454545455 34.7473958333333  21.1742424242424 34.8333333333333  20.9090909090909 34.8333333333333  L 19.0909090909091 34.8333333333333  C 18.8257575757576 34.8333333333333  18.6079545454545 34.7473958333333  18.4375 34.5755208333333  C 18.2670454545455 34.4036458333333  18.1818181818182 34.1840277777778  18.1818181818182 33.9166666666667  L 18.1818181818182 17.4166666666667  C 18.1818181818182 17.1493055555556  18.2670454545455 16.9296875  18.4375 16.7578125  C 18.6079545454545 16.5859375  18.8257575757576 16.5  19.0909090909091 16.5  L 20.9090909090909 16.5  C 21.1742424242424 16.5  21.3920454545455 16.5859375  21.5625 16.7578125  Z M 28.8352272727273 16.7578125  C 29.0056818181818 16.9296875  29.0909090909091 17.1493055555556  29 17.4166666666667  L 29 33.9166666666667  C 29.0909090909091 34.1840277777778  29.0056818181818 34.4036458333333  28.8352272727273 34.5755208333333  C 28.6647727272727 34.7473958333333  28.4469696969697 34.8333333333333  28.1818181818182 34.8333333333333  L 26.3636363636364 34.8333333333333  C 26.0984848484848 34.8333333333333  25.8806818181818 34.7473958333333  25.7102272727273 34.5755208333333  C 25.5397727272727 34.4036458333333  25.4545454545455 34.1840277777778  25 33.9166666666667  L 25 17.4166666666667  C 25.4545454545455 17.1493055555556  25.5397727272727 16.9296875  25.7102272727273 16.7578125  C 25.8806818181818 16.5859375  26.0984848484848 16.5  26.3636363636364 16.5  L 28.1818181818182 16.5  C 28.4469696969697 16.5  28.6647727272727 16.5859375  28.8352272727273 16.7578125  Z M 32.5284090909091 39.31640625  C 32.6609848484849 38.9631076388889  32.7272727272727 38.5763888888889  32 38.15625  L 32 11  L 8 11  L 8 38.15625  C 7.27272727272727 38.5763888888889  7.33901515151515 38.9631076388889  7.47159090909091 39.31640625  C 7.60416666666667 39.6697048611111  7.74147727272727 39.9275173611111  7.88352272727273 40.08984375  C 8.02556818181818 40.2521701388889  8.125 40.3333333333333  8.18181818181818 40  L 31.8181818181818 40  C 31.875 40.3333333333333  31.9744318181818 40.2521701388889  32.1164772727273 40.08984375  C 32.2585227272727 39.9275173611111  32.3958333333333 39.6697048611111  32.5284090909091 39.31640625  Z M 15.0284090909091 3.98177083333333  L 13.6363636363636 8  L 26.3636363636364 8  L 25 3.98177083333333  C 24.8674242424242 3.80989583333333  24.7064393939394 3.70486111111111  24.5170454545455 3.66666666666667  L 15.5113636363636 3.66666666666667  C 15.3219696969697 3.70486111111111  15.1609848484849 3.80989583333333  15.0284090909091 3.98177083333333  Z M 39.7443181818182 7.59114583333333  C 39.9147727272727 7.76302083333333  40 7.98263888888889  40 8.25  L 40 10.0833333333333  C 40 10.3506944444444  39.9147727272727 10.5703125  39.7443181818182 10.7421875  C 39.5738636363636 10.9140625  39.3560606060606 11  39.0909090909091 11  L 36 11  L 36 38.15625  C 36.3636363636364 39.7413194444444  35.9185606060606 41.1115451388889  35.0284090909091 42.2669270833333  C 34.1382575757576 43.4223090277778  33.0681818181818 44  31.8181818181818 44  L 8.18181818181818 44  C 6.93181818181818 44  5.86174242424243 43.44140625  4.97159090909091 42.32421875  C 4.08143939393939 41.20703125  3.63636363636364 39.8559027777778  4 38.2708333333333  L 4 11  L 0.909090909090909 11  C 0.643939393939394 11  0.426136363636364 10.9140625  0.255681818181818 10.7421875  C 0.0852272727272727 10.5703125  0 10.3506944444444  0 10.0833333333333  L 0 8.25  C 0 7.98263888888889  0.0852272727272727 7.76302083333333  0.255681818181818 7.59114583333333  C 0.426136363636364 7.41927083333333  0.643939393939394 7.33333333333333  0.909090909090909 7.33333333333333  L 9.6875 7.33333333333333  L 11.6761363636364 2.54947916666667  C 11.9602272727273 1.84288194444444  12.4715909090909 1.24131944444444  13.2102272727273 0.744791666666668  C 13.9488636363636 0.248263888888886  14.6969696969697 0  15.4545454545455 0  L 24.5454545454545 0  C 25.3030303030303 0  26.0511363636364 0.248263888888886  26.7897727272727 0.744791666666668  C 27.5284090909091 1.24131944444444  28.0397727272727 1.84288194444444  28.3238636363636 2.54947916666667  L 30.3125 7.33333333333333  L 39.0909090909091 7.33333333333333  C 39.3560606060606 7.33333333333333  39.5738636363636 7.41927083333333  39.7443181818182 7.59114583333333  Z " fill-rule="nonzero" fill="#000000" stroke="none" transform="matrix(1 0 0 1 386 68 )" />
  </g>
</svg>