<?xml version="1.0" encoding="utf-8"?>
<svg version="1.1" xmlns:xlink="http://www.w3.org/1999/xlink" width="40px" height="40px" xmlns="http://www.w3.org/2000/svg">
  <g transform="matrix(1 0 0 1 -998 -264 )">
    <path d="M 32.4715909090909 18.4375  C 32.6420454545455 18.6079545454545  32.7272727272727 18.8257575757576  32.7272727272727 19.0909090909091  L 32.7272727272727 20.9090909090909  C 32.7272727272727 21.1742424242424  32.6420454545455 21.3920454545455  32.4715909090909 21.5625  C 32.3011363636364 21.7329545454545  32.0833333333333 21.8181818181818  31.8181818181818 21.8181818181818  L 21.8181818181818 21.8181818181818  L 21.8181818181818 31.8181818181818  C 21.8181818181818 32.0833333333333  21.7329545454545 32.3011363636364  21.5625 32.4715909090909  C 21.3920454545455 32.6420454545455  21.1742424242424 32.7272727272727  20.9090909090909 32.7272727272727  L 19.0909090909091 32.7272727272727  C 18.8257575757576 32.7272727272727  18.6079545454545 32.6420454545455  18.4375 32.4715909090909  C 18.2670454545455 32.3011363636364  18.1818181818182 32.0833333333333  18.1818181818182 31.8181818181818  L 18.1818181818182 21.8181818181818  L 8.18181818181818 21.8181818181818  C 7.91666666666667 21.8181818181818  7.69886363636364 21.7329545454545  7.52840909090909 21.5625  C 7.35795454545455 21.3920454545455  7.27272727272727 21.1742424242424  7.27272727272727 20.9090909090909  L 7.27272727272727 19.0909090909091  C 7.27272727272727 18.8257575757576  7.35795454545455 18.6079545454545  7.52840909090909 18.4375  C 7.69886363636364 18.2670454545455  7.91666666666667 18.1818181818182  8.18181818181818 18.1818181818182  L 18.1818181818182 18.1818181818182  L 18.1818181818182 8.18181818181818  C 18.1818181818182 7.91666666666666  18.2670454545455 7.69886363636364  18.4375 7.52840909090909  C 18.6079545454545 7.35795454545455  18.8257575757576 7.27272727272727  19.0909090909091 7.27272727272727  L 20.9090909090909 7.27272727272727  C 21.1742424242424 7.27272727272727  21.3920454545455 7.35795454545455  21.5625 7.52840909090909  C 21.7329545454545 7.69886363636364  21.8181818181818 7.91666666666666  21.8181818181818 8.18181818181818  L 21.8181818181818 18.1818181818182  L 31.8181818181818 18.1818181818182  C 32.0833333333333 18.1818181818182  32.3011363636364 18.2670454545455  32.4715909090909 18.4375  Z M 35.0284090909091 35.0284090909091  C 35.9185606060606 34.1382575757576  36.3636363636364 33.0681818181818  36 31.8181818181818  L 36 8.18181818181818  C 36.3636363636364 6.93181818181818  35.9185606060606 5.86174242424242  35.0284090909091 4.97159090909091  C 34.1382575757576 4.08143939393939  33.0681818181818 3.63636363636364  31.8181818181818 4  L 8.18181818181818 4  C 6.93181818181818 3.63636363636364  5.86174242424243 4.08143939393939  4.97159090909091 4.97159090909091  C 4.08143939393939 5.86174242424242  3.63636363636364 6.93181818181818  4 8.18181818181818  L 4 31.8181818181818  C 3.63636363636364 33.0681818181818  4.08143939393939 34.1382575757576  4.97159090909091 35.0284090909091  C 5.86174242424243 35.9185606060606  6.93181818181818 36.3636363636364  8.18181818181818 36  L 31.8181818181818 36  C 33.0681818181818 36.3636363636364  34.1382575757576 35.9185606060606  35.0284090909091 35.0284090909091  Z M 37.5994318181818 2.40056818181818  C 39.1998106060606 4.00094696969697  40 5.9280303030303  40 8.18181818181818  L 40 31.8181818181818  C 40 34.0719696969697  39.1998106060606 35.999053030303  37.5994318181818 37.5994318181818  C 35.999053030303 39.1998106060606  34.0719696969697 40  31.8181818181818 40  L 8.18181818181818 40  C 5.9280303030303 40  4.00094696969697 39.1998106060606  2.40056818181818 37.5994318181818  C 0.800189393939394 35.999053030303  0 34.0719696969697  0 31.8181818181818  L 0 8.18181818181818  C 0 5.9280303030303  0.800189393939394 4.00094696969697  2.40056818181818 2.40056818181818  C 4.00094696969697 0.80018939393939  5.9280303030303 0  8.18181818181818 0  L 31.8181818181818 0  C 34.0719696969697 0  35.999053030303 0.80018939393939  37.5994318181818 2.40056818181818  Z " fill-rule="nonzero" fill="#aaaaaa" stroke="none" transform="matrix(1 0 0 1 998 264 )" />
  </g>
</svg>