<?xml version="1.0" encoding="utf-8"?>
<svg version="1.1" xmlns:xlink="http://www.w3.org/1999/xlink" width="35px" height="28px" xmlns="http://www.w3.org/2000/svg">
  <g transform="matrix(1 0 0 1 -478 -26 )">
    <path d="M 32.314453125 25.265625  C 32.4381510416667 25.139678030303  32.5 24.9905303030303  32 24.8181818181818  L 32 9.54545454545455  C 32.0833333333333 10.0227272727273  31.6341145833333 10.4602272727273  31.15234375 10.8579545454545  C 27.6627604166667 13.5890151515151  24.8893229166667 15.8295454545455  22.83203125 17.5795454545455  C 22.16796875 18.1496212121212  21.6276041666667 18.59375  21.2109375 18.9119318181818  C 20.7942708333333 19.2301136363636  20.2311197916667 19.5516098484848  19.521484375 19.8764204545455  C 18.8118489583333 20.2012310606061  18.14453125 20.3636363636364  17.51953125 20.3636363636364  L 17.5 20.3636363636364  L 17.48046875 20.3636363636364  C 16.85546875 20.3636363636364  16.1881510416667 20.2012310606061  15.478515625 19.8764204545455  C 14.7688802083333 19.5516098484848  14.2057291666667 19.2301136363636  13.7890625 18.9119318181818  C 13.3723958333333 18.59375  12.83203125 18.1496212121212  12.16796875 17.5795454545455  C 10.1106770833333 15.8295454545455  7.33723958333333 13.5890151515151  3.84765625 10.8579545454545  C 3.36588541666667 10.4602272727273  2.91666666666667 10.0227272727273  3 9.54545454545455  L 3 24.8181818181818  C 2.5 24.9905303030303  2.56184895833333 25.139678030303  2.685546875 25.265625  C 2.80924479166667 25.391571969697  2.95572916666667 25.4545454545455  3.125 25  L 31.875 25  C 32.0442708333333 25.4545454545455  32.1907552083333 25.391571969697  32.314453125 25.265625  Z M 31.591796875 6.53267045454545  C 32.197265625 5.57149621212121  32.5 4.69981060606061  32.5 3.91761363636364  L 32.5 3.69886363636364  L 32.5 3.43039772727273  C 32.5 3.43039772727273  32.4967447916667 3.34422348484848  32.490234375 3.171875  C 32.4837239583333 2.99952651515151  32.4641927083333 2.91666666666666  32.431640625 2.92329545454545  C 32.3990885416667 2.92992424242424  32.36328125 2.87026515151515  32.32421875 2.74431818181818  C 32.28515625 2.61837121212121  32.2265625 2.5686553030303  32.1484375 2.59517045454545  C 32.0703125 2.62168560606061  31.9791666666667 2.60511363636364  31.875 3  L 3.125 3  C 2.95572916666667 2.54545454545455  2.80924479166667 2.60842803030303  2.685546875 2.734375  C 2.56184895833333 2.86032196969697  2.5 3.0094696969697  2.5 3.18181818181818  C 2.5 5.40909090909091  3.45703125 7.29166666666666  5.37109375 8.82954545454545  C 7.88411458333333 10.844696969697  10.4947916666667 12.9460227272727  13.203125 15.1335227272727  C 13.28125 15.1998106060606  13.5091145833333 15.3953598484848  13.88671875 15.7201704545455  C 14.2643229166667 16.0449810606061  14.5638020833333 16.2935606060606  14.78515625 16.4659090909091  C 15.0065104166667 16.6382575757576  15.2962239583333 16.8470643939394  15.654296875 17.0923295454545  C 16.0123697916667 17.3375946969697  16.3411458333333 17.5198863636364  16.640625 17.6392045454545  C 16.9401041666667 17.7585227272727  17.2200520833333 17.8181818181818  17.48046875 17.8181818181818  L 17.5 17.8181818181818  L 17.51953125 17.8181818181818  C 17.7799479166667 17.8181818181818  18.0598958333333 17.7585227272727  18.359375 17.6392045454545  C 18.6588541666667 17.5198863636364  18.9876302083333 17.3375946969697  19.345703125 17.0923295454545  C 19.7037760416667 16.8470643939394  19.9934895833333 16.6382575757576  20.21484375 16.4659090909091  C 20.4361979166667 16.2935606060606  20.7356770833333 16.0449810606061  21.11328125 15.7201704545455  C 21.4908854166667 15.3953598484848  21.71875 15.1998106060606  21.796875 15.1335227272727  C 24.5052083333333 12.9460227272727  27.1158854166667 10.844696969697  29.62890625 8.82954545454545  C 30.33203125 8.2594696969697  30.986328125 7.4938446969697  31.591796875 6.53267045454545  Z M 34.08203125 0.93465909090909  C 34.6940104166667 1.55776515151515  35 2.30681818181818  35 3.18181818181818  L 35 24.8181818181818  C 35 25.6931818181818  34.6940104166667 26.4422348484849  34.08203125 27.0653409090909  C 33.4700520833333 27.688446969697  32.734375 28  31.875 28  L 3.125 28  C 2.265625 28  1.52994791666667 27.688446969697  0.91796875 27.0653409090909  C 0.305989583333333 26.4422348484849  0 25.6931818181818  0 24.8181818181818  L 0 3.18181818181818  C 0 2.30681818181818  0.305989583333333 1.55776515151515  0.91796875 0.93465909090909  C 1.52994791666667 0.311553030303027  2.265625 0  3.125 0  L 31.875 0  C 32.734375 0  33.4700520833333 0.311553030303027  34.08203125 0.93465909090909  Z " fill-rule="nonzero" fill="#000000" stroke="none" transform="matrix(1 0 0 1 478 26 )" />
  </g>
</svg>