<?xml version="1.0" encoding="utf-8"?>
<svg version="1.1" xmlns:xlink="http://www.w3.org/1999/xlink" width="54px" height="54px" xmlns="http://www.w3.org/2000/svg">
  <g transform="matrix(1 0 0 1 -872 -365 )">
    <path d="M 899 365  C 914.12 365  926 376.88  926 392  C 926 407.12  914.12 419  899 419  C 883.88 419  872 407.12  872 392  C 872 376.88  883.88 365  899 365  Z " fill-rule="nonzero" fill="#ffffff" stroke="none" />
    <path d="M 899 365.5  C 913.84 365.5  925.5 377.16  925.5 392  C 925.5 406.84  913.84 418.5  899 418.5  C 884.16 418.5  872.5 406.84  872.5 392  C 872.5 377.16  884.16 365.5  899 365.5  Z " stroke-width="1" stroke="#797979" fill="none" />
  </g>
</svg>