<?xml version="1.0" encoding="utf-8"?>
<svg version="1.1" xmlns:xlink="http://www.w3.org/1999/xlink" width="12px" height="12px" viewBox="1306 455  12 12" xmlns="http://www.w3.org/2000/svg">
  <path d="M 1312 455  C 1315.36 455  1318 457.64  1318 461  C 1318 464.36  1315.36 467  1312 467  C 1308.64 467  1306 464.36  1306 461  C 1306 457.64  1308.64 455  1312 455  Z " fill-rule="nonzero" fill="#ffffff" stroke="none" />
  <path d="M 1312 455.5  C 1315.08 455.5  1317.5 457.92  1317.5 461  C 1317.5 464.08  1315.08 466.5  1312 466.5  C 1308.92 466.5  1306.5 464.08  1306.5 461  C 1306.5 457.92  1308.92 455.5  1312 455.5  Z " stroke-width="1" stroke="#797979" fill="none" />
  <path d="M 1312 464  C 1310.32 464  1309 462.68  1309 461  C 1309 459.32  1310.32 458  1312 458  C 1313.68 458  1315 459.32  1315 461  C 1315 462.68  1313.68 464  1312 464  " fill-rule="nonzero" fill="#797979" stroke="none" />
</svg>